<?xml version="1.0" standalone="no"?>
<!DOCTYPE svg PUBLIC "-//W3C//DTD SVG 20010904//EN"
 "http://www.w3.org/TR/2001/REC-SVG-20010904/DTD/svg10.dtd">
<svg version="1.0" xmlns="http://www.w3.org/2000/svg"
 width="270.000000pt" height="270.000000pt" viewBox="0 0 270.000000 270.000000"
 preserveAspectRatio="xMidYMid meet">
<metadata>
Created by potrace 1.11, written by Peter Selinger 2001-2013
</metadata>
<g transform="translate(0.000000,270.000000) scale(0.100000,-0.100000)"
fill="#000000" stroke="none">
<path d="M445 2644 c-131 -28 -210 -69 -296 -154 -106 -106 -156 -238 -146
-380 11 -134 56 -231 152 -325 88 -86 191 -134 320 -150 57 -7 475 -7 580 0
211 14 349 35 452 66 l65 20 25 -23 c13 -13 51 -49 83 -80 l59 -57 -18 -53
c-17 -51 -45 -180 -55 -263 -24 -186 -29 -732 -7 -810 65 -235 283 -390 535
-381 341 13 575 324 482 641 -90 303 -365 740 -571 908 l-64 52 59 59 c72 71
100 135 94 214 -10 133 -119 233 -258 235 -79 1 -139 -26 -211 -94 l-54 -51
-79 79 c-134 134 -331 268 -562 383 -269 134 -464 189 -585 164z"/>
<path d="M1204 1388 c-11 -13 -48 -54 -82 -92 -34 -37 -62 -72 -62 -76 0 -7
48 -63 120 -140 8 -9 49 -54 90 -100 41 -46 89 -99 106 -117 l30 -33 55 61
c30 34 68 78 86 97 l31 36 -25 31 c-14 16 -81 91 -149 166 -68 75 -133 148
-144 162 -26 33 -31 33 -56 5z"/>
<path d="M761 1087 c-78 -90 -96 -134 -96 -237 0 -91 10 -120 67 -192 35 -44
122 -88 176 -88 75 0 130 28 203 104 38 39 69 74 69 78 0 7 -123 149 -180 208
-8 9 -50 55 -94 103 -43 48 -81 87 -85 86 -3 0 -30 -28 -60 -62z"/>
</g>
</svg>
