<?xml version="1.0" encoding="UTF-8"?>
<svg width="71px" height="67px" viewBox="0 0 71 67" version="1.1" xmlns="http://www.w3.org/2000/svg" xmlns:xlink="http://www.w3.org/1999/xlink">
    <!-- Generator: Sketch 61.2 (89653) - https://sketch.com -->
    <title>beaker-dark</title>
    <desc>Created with Sketch.</desc>
    <g id="Welcome" stroke="none" stroke-width="1" fill="none" fill-rule="evenodd">
        <g id="How-it-works" transform="translate(-915.000000, -573.000000)" fill="#494562" fill-rule="nonzero">
            <g id="beaker-dark" transform="translate(915.000000, 573.000000)">
                <path d="M38.1006211,0.219901862 C40.0840827,0.296680198 41.9912573,0.373458533 43.9747189,0.527015204 C44.8138758,0.60379354 45.7293196,0.527015204 46.4159025,1.29479856 C48.3993641,3.44459195 48.3993641,3.82848363 46.3396155,6.1318337 C45.7293196,6.82283872 45.1953107,7.51384374 45.1953107,8.43518376 C45.1190237,14.0400023 43.9747189,19.6448207 44.8901628,25.2496392 C45.5767456,29.4724477 47.5602073,33.2345861 50.2302517,36.5360546 C51.1456956,37.6877296 52.5951483,37.6109513 53.6631661,38.6090696 C57.5538024,42.5247647 61.9021605,45.9030115 65.7927968,49.7419283 C68.4628413,52.3523917 69.912294,55.3467468 70.8277378,58.8017719 C71.3617467,60.7212302 70.5988769,62.026462 69.3019981,63.5620287 C67.1659625,66.0189354 64.419631,65.481487 61.8258735,65.8653787 C53.892027,67.0938321 45.8056066,66.0957137 37.7954731,66.8634971 C36.8037423,66.9402754 35.6594375,67.3241671 34.7439937,66.3260487 C34.1336978,65.6350437 33.294541,65.9421571 32.5316711,66.0189354 C25.5895554,66.7867188 18.6474398,66.4028271 11.7053241,66.4028271 C8.11983577,66.4028271 4.3054865,65.7118221 1.63544201,62.5639103 C0.796285165,61.5657919 -0.195445646,60.5676736 0.0334153109,59.2624419 C0.338563253,57.3429835 0.262276267,55.1931901 1.78801598,53.8111801 C3.69519061,52.0452783 5.29721731,50.1258199 6.82295702,48.1295832 C9.26414055,44.9048931 12.010472,42.0640947 14.9093775,39.2232963 C18.0371439,36.1521629 21.3174843,33.1578078 24.1401027,29.779561 C26.7338602,26.7084276 26.8101472,23.3301809 26.5812863,19.7983774 C26.4287123,16.727244 26.2761383,13.7328889 26.5049993,10.6617555 C26.6575732,9.04941045 26.5049993,7.59062207 25.4369815,6.20861203 C24.9792596,5.59438535 24.6741116,4.82660199 24.4452507,4.05881864 C23.8349548,2.44647359 23.9875287,2.29291692 25.6658424,1.44835523 C29.7090527,-0.471103157 33.9048369,-0.0104331441 38.1006211,0.219901862 Z M40.9232395,22.4088408 C40.4655176,22.0249491 39.4737868,21.7946141 39.6263608,21.3339441 C40.3892306,19.5680424 39.0923519,17.5718057 40.0840827,15.9594606 C40.6180916,15.0381206 40.4655176,14.4238939 39.8552217,13.9632239 C38.405769,12.9651056 38.482056,11.7366522 38.8634909,10.3546422 C39.0160649,9.66363713 39.1686389,8.97263211 38.8634909,8.28162709 C37.9480471,7.74417874 36.7274553,8.28162709 35.8120115,7.51384374 C35.5068636,7.28350873 35.0491416,7.12995206 35.0491416,6.66928205 C35.0491416,6.05505536 35.5068636,5.90149869 36.0408725,5.74794202 C37.5666122,5.44082868 39.1686389,5.44082868 40.6943786,5.51760701 C41.9912573,5.59438535 42.9829881,5.21049367 43.745858,4.13559697 C44.5087278,3.06070028 44.3561539,2.52325193 43.1355621,2.21613859 C42.6778402,2.13936025 42.1438313,2.06258191 41.6861094,2.06258191 C38.176908,2.52325193 34.6677067,2.29291692 31.1585054,2.29291692 C30.4719225,2.29291692 29.7853396,2.52325193 29.1750438,2.6768086 C27.4967301,3.06070028 27.3441561,3.44459195 27.954452,5.13371534 C28.6410349,6.82283872 29.7090527,8.43518376 29.9379136,10.2778638 C30.0142006,11.1224255 30.0904876,11.6598739 31.1585054,11.8902089 C31.9976622,12.0437655 32.1502362,13.2722189 31.3110794,13.2722189 C29.4801917,13.4257756 29.6327657,14.7310073 29.7090527,15.805904 C29.7853396,17.878919 29.5564787,19.9519341 29.9379136,22.0249491 C30.2430616,23.9444075 29.7853396,25.7870876 28.7936088,27.5529893 C27.5730171,29.8563394 25.8184164,31.6990194 24.1401027,33.6184778 C23.5298068,34.3094828 22.461789,34.7701528 22.614363,36.0753845 C24.2163897,36.6896112 25.4369815,36.0753845 26.5049993,34.9237095 C27.4967301,33.7720345 28.3358869,33.4649211 29.2513307,35.0004878 C29.7853396,35.8450495 30.5482095,36.2289412 31.4636533,36.0753845 C32.913106,35.9218279 34.2862718,36.3057196 35.6594375,36.5360546 C37.1088902,36.7663896 38.63463,37.4573946 40.2366567,36.9967246 C41.6098224,36.5360546 42.9829881,36.1521629 44.4324409,37.0735029 C45.3478847,37.6109513 46.2633285,36.6896112 45.8056066,35.6914929 C45.1953107,34.2327045 43.9747189,33.1578078 43.2881361,31.8525761 C42.6778402,30.7009011 43.822145,28.7814427 42.7541272,27.3994326 C42.2964053,27.706546 42.4489792,28.2439943 42.2964053,28.7046643 C42.0675443,29.088556 41.7623964,29.2421127 41.3809614,29.1653344 C40.9232395,29.088556 40.6180916,28.7814427 40.6943786,28.3207727 C40.8469525,27.245876 41.1521005,26.2477576 41.6098224,25.2496392 C42.1438313,24.1747425 39.7026478,23.6372942 40.8469525,22.1785058 C42.7541272,21.4875008 42.7541272,21.4875008 42.3726922,18.1860324 C40.9232395,19.4144857 42.0675443,21.3339441 40.9232395,22.4088408 Z M51.4508435,62.1800186 C51.8322784,62.256797 52.5188613,62.3335753 53.2054442,62.4103536 C57.1723674,62.947802 60.9867167,62.026462 64.877353,61.5657919 C66.0216577,61.4122353 67.2422495,60.8747869 65.9453708,59.2624419 C65.4876488,58.7249935 66.1742317,58.1875452 66.5556666,57.8036535 C68.0051194,56.2680868 68.0814063,55.5770818 66.6319536,54.0415151 C65.1825009,52.5059483 63.5804742,50.9703816 61.9021605,49.5883716 C57.5538024,46.2101248 53.1291572,42.9854347 48.780799,39.607188 C47.6364942,38.7626263 46.7973374,38.5322913 45.4241717,38.6090696 C43.1355621,38.7626263 40.8469525,38.3787346 38.558343,38.4555129 C36.0408725,38.5322913 33.5234019,37.6877296 31.0059314,37.4573946 C28.7173218,37.2270596 26.6575732,36.3824979 24.5215376,37.9180646 C23.9875287,38.3019563 23.1483719,38.1483996 22.538076,37.7645079 C21.0886233,36.9199462 20.0968925,37.6109513 19.2577356,38.685848 C18.1134309,40.067858 16.8928391,41.2963114 15.5959603,42.5247647 C12.31562,45.8262332 9.11156658,49.1277016 6.06008716,52.5059483 C4.53434745,54.1950717 3.69519061,56.3448651 2.77974679,58.4178802 C2.09316392,59.9534469 2.7034598,60.7212302 4.22919951,61.3354569 C7.20439194,62.487132 10.3321583,62.717467 13.4599248,62.7942453 C17.503135,62.947802 21.6226322,62.1032403 25.6658424,62.8710236 C26.8864342,63.1013586 28.2595999,63.1013586 29.4801917,62.947802 C36.6511683,61.8729053 43.898432,62.1800186 51.4508435,62.1800186 Z" id="Shape"></path>
                <path d="M21.3982634,41 C22.4960764,41.0701557 23.2279517,41.9120235 22.9352016,42.7538914 C22.4960764,44.2271602 19.8613252,45.4198063 18.324387,44.8585611 C17.5925117,44.5779384 17.0070114,44.0868488 17.0070114,43.3151366 C16.9338239,42.6135801 17.4461366,42.1926461 17.9584494,41.7717122 C18.9830748,41.0701557 20.3004504,41.3507783 21.3982634,41 Z" id="Path"></path>
                <path d="M46.1331106,40.0040552 C47.2311312,40.0845532 48.123273,41.533516 47.9860204,42.901981 C47.8487678,44.189948 46.9566261,45.0754253 45.7899791,44.9949274 C44.4860796,44.9144294 43.9370692,44.10945 44.0056955,42.5799892 C44.0743218,41.0505284 44.9664636,39.9235573 46.1331106,40.0040552 Z M46.476242,42.1774995 C46.2017369,42.0970016 45.995858,42.3384954 45.9272317,42.6604872 C45.9272317,42.821483 45.995858,43.1434748 46.0644843,43.1434748 C46.3389894,43.1434748 46.5448683,42.9824789 46.6134946,42.6604872 C46.6821209,42.5799892 46.5448683,42.3384954 46.476242,42.1774995 Z" id="Shape"></path>
                <path d="M56,50.6267196 C56,51.7707862 54.9473027,52.8433486 53.7542458,52.9863569 C52.4910091,53.1293652 51.1575925,52.128307 51.0172329,50.9127363 C50.9470531,50.4837113 51.0874127,50.1976947 51.5084916,50.0546864 C51.9295705,49.911678 52.2102898,50.1261905 52.3506494,50.4837113 C52.4910091,50.9127363 52.5611889,51.3417612 52.912088,51.699282 C53.4735265,52.128307 53.9647853,51.9137945 54.3156844,51.4847696 C54.6665834,51.1272488 54.8069431,50.6982238 54.1051449,50.4122072 C53.6138862,50.2691988 53.2629871,50.0546864 53.5437063,49.4826531 C53.8244256,49.0536281 54.2455045,48.9106198 54.7367633,49.0536281 C55.5087413,49.2681406 56,49.7686697 56,50.6267196 Z" id="Path"></path>
                <path d="M31.4264172,43.9944502 C30.499246,43.9140783 30,43.4318468 30,42.4673838 C30,41.6636646 31.6403798,40.8599454 32.7815135,41.0206892 C33.4947221,41.1010611 34.0652889,41.4225488 33.9939681,42.3066399 C33.9226472,43.2711029 32.5675509,44.0748221 31.4264172,43.9944502 Z" id="Path"></path>
                <path d="M29.9744048,56.7135542 C29.7763142,58.1131108 28.7858617,59.2016548 28.0595298,58.9683953 C27.3331979,58.7351359 26.8049565,58.0353576 27.0690772,57.1800731 C27.3992281,56.1692822 28.3236505,55.9360228 29.1820427,56.0137759 C29.7102841,56.0137759 30.1064651,56.2470353 29.9744048,56.7135542 Z" id="Path"></path>
                <path d="M17.3355482,51.003611 C17.7342193,51.0749059 18,51.3600856 18,51.7165603 C18,52.2156249 16.2059801,54.0692932 15.807309,53.9979982 C15.2093023,53.8554084 14.9435216,53.3563438 15.0099668,52.7859843 C15.076412,51.9304451 16.538206,50.932316 17.3355482,51.003611 Z" id="Path"></path>
                <path d="M30.7830229,48.0270658 C31.0683066,48.0270658 31.9241576,48.095098 31.9954785,48.7754202 C32.0667994,49.5237745 31.2822693,50 30.4977393,50 C29.7132092,50 29,49.6598389 29,48.7754202 C29,47.9590336 29.7845301,47.9590336 30.7830229,48.0270658 Z" id="Path"></path>
                <path d="M46.4353141,58.9818475 C45.0552044,58.8290511 44.8826907,57.9122729 45.0552044,56.8426983 C45.1414612,56.4607074 45.2277181,56.0787165 45.8315161,56.0023183 C46.4353141,55.9259201 48.1604513,57.7594765 47.9879376,58.2942638 C47.729167,58.9054493 47.2116259,59.0582456 46.4353141,58.9818475 Z" id="Path"></path>
                <path d="M60,57.854556 C59.8272456,58.4954731 59.6544912,59.0651771 58.7043422,58.9939641 C58.2724562,58.9227511 57.9269475,58.5666861 58.0133246,58.2106211 C58.0997018,57.569704 58.5315878,57 59.3953597,57 C59.8272456,57 60,57.427278 60,57.854556 Z" id="Path"></path>
                <path d="M44,50.8858207 C43.7433999,51.8602235 43.1660496,52.1259697 42.4603993,51.9488056 C42.0754991,51.8602235 41.883049,51.4173131 42.0754991,50.9744028 C42.3320992,50.1771641 42.8452995,50 43.4867998,50 C43.8716999,50.0885821 44,50.4429104 44,50.8858207 Z" id="Path"></path>
            </g>
        </g>
    </g>
</svg>