<?xml version="1.0" encoding="UTF-8"?>
<svg width="75px" height="143px" viewBox="0 0 75 143" version="1.1" xmlns="http://www.w3.org/2000/svg" xmlns:xlink="http://www.w3.org/1999/xlink">
    <!-- Generator: Sketch 61.2 (89653) - https://sketch.com -->
    <title>carbon-dark</title>
    <desc>Created with Sketch.</desc>
    <g id="Welcome" stroke="none" stroke-width="1" fill="none" fill-rule="evenodd">
        <g id="Home-Page" transform="translate(-295.000000, -2204.000000)" fill="#494562" fill-rule="nonzero">
            <g id="carbon-dark" transform="translate(295.000000, 2204.000000)">
                <path d="M74.9863706,38.7544816 C75.1070087,41.0983378 74.4238786,43.4123219 73.0528685,45.3038834 C72.4257868,46.3101257 71.7638671,47.2810613 71.0496907,48.2166901 C70.0393923,49.5230398 68.976837,50.7764293 67.9142818,52.0474722 C67.0319392,53.3218457 65.8992448,54.3976628 64.5872647,55.2074262 C64.1692102,55.4369201 64.0646965,55.5958004 64.3782374,56.0547881 C65.5596261,57.9542868 66.3368239,60.0827668 66.6601183,62.3040825 C66.6601183,62.5512298 66.5381857,62.8513371 66.5556047,63.1161377 C66.6143735,64.079473 66.5142949,65.0459986 66.2594827,65.9759843 C66.0454353,67.2572051 65.5317699,68.467853 64.761454,69.5066591 C64.4897158,69.9376744 64.2453555,70.3858012 64.0298587,70.8483155 C63.4979932,71.6109208 62.9160447,72.3363512 62.2879649,73.0196805 C61.5771462,73.8404265 60.8024145,74.6019713 59.9712461,75.2969658 C58.8162327,76.3287094 57.5195077,77.1850058 56.1216608,77.8390516 C55.6596846,77.9881019 55.1781198,78.065475 54.6933079,78.0685455 C53.5695195,79.2891536 52.162335,80.2055137 50.5998575,80.734205 C51.3206876,82.0451399 51.5260131,83.5837364 51.1746824,85.0416282 C50.7809037,86.9084174 49.7121453,88.5583205 48.1786251,89.6668122 C48.6140985,90.3729472 47.8476653,90.4435607 47.4818676,90.8672417 L48.1437872,90.8672417 C48.1437872,90.9555085 48.1437872,91.0614288 48.1437872,91.0790821 C47.2015705,91.6374113 46.2305258,92.1442004 45.2348246,92.5972723 C43.5591713,93.3706771 41.8075462,93.9624103 40.0091432,94.3626097 C37.8779092,94.7511241 35.6953701,94.7511241 33.5641361,94.3626097 C31.6377969,93.8526932 29.8034428,93.0363831 28.1294275,91.9440975 C27.1821248,91.292418 26.4722192,90.3434751 26.1088306,89.2431312 C25.6054354,88.1157483 25.4476591,86.8611502 25.6559383,85.641843 C26.0543225,83.8880574 27.2039305,82.4058166 28.7913471,81.5992203 C29.3888822,81.3771448 30.0188306,81.2578127 30.6551735,81.2461528 C30.9448634,81.1619453 31.2297974,81.0617602 31.5087014,80.9460455 C31.4038027,80.6675727 31.2504031,80.4104589 31.055809,80.1869504 C30.3692632,79.6794167 29.9213811,78.9058518 29.8190644,78.0508921 C28.0771706,77.9449719 26.3352768,77.9449719 24.593383,77.6978247 C23.8341402,77.5122017 23.133249,77.1357905 22.5553673,76.6033155 C20.9475334,75.4752965 19.6085319,73.9976496 18.6361062,72.2782388 C17.5986857,70.445913 17.1998728,68.3130841 17.5038753,66.2231316 C14.937855,65.9511941 12.4288444,65.2782808 10.0659888,64.2283003 C7.84691592,62.8647958 5.85406384,61.1549249 4.16096877,59.161782 C4.11682731,59.3064695 4.08191732,59.4538854 4.05645515,59.6031163 L3.93452258,59.6031163 C3.84742789,59.4971961 3.70807639,59.303009 3.72549532,59.2677022 C4.16096877,58.7734077 3.72549532,58.6498341 3.41195444,58.4733004 C2.69654303,58.0398638 2.18214911,57.3341786 1.98360153,56.5137759 C1.82542448,56.1835533 1.62641009,55.8750818 1.39135763,55.5958004 C1.39135763,55.4722268 1.19974932,55.3839599 1.1474925,55.2603863 C0.0677829157,52.826726 -0.260123167,50.1189394 0.206869851,47.4929018 C0.54505845,45.5699071 1.06419017,43.6841564 1.75715533,41.8614755 C2.20926014,40.5248742 3.04662345,39.3564663 4.16096877,38.5073344 C4.97106123,37.8883359 5.64696639,37.1071934 6.14672771,36.2123958 C6.38960825,35.7211125 6.49217343,35.1708124 6.44284965,34.6235921 C6.44284965,33.8468437 7.00025567,33.2819357 7.03509354,32.4875339 C7.20541278,31.3485383 7.49144195,30.2304346 7.8886215,29.1510462 C7.96121295,28.9245175 8.06690093,28.7102967 8.20216239,28.5155247 C8.59386436,28.0741903 8.86944825,27.5398909 9.00343354,26.9620278 C9.27562287,26.2443287 9.6707103,25.5809715 10.1705024,25.0025033 C10.1705024,24.8789297 10.3969486,24.7730094 10.4143675,24.6494358 C10.6059758,23.3430861 11.6511121,22.7075647 12.4523833,21.8778561 C12.8348636,21.497342 13.1009706,21.0131287 13.2188165,20.4832395 C13.4510762,19.5920313 13.9427268,18.7923426 14.6297505,18.1883009 C14.8306967,17.8987754 15.0055882,17.5915503 15.1523186,17.2703255 L15.1523186,17.2703255 L16.0406845,16.3170433 C16.2845496,16.0345893 16.4935769,15.7168286 16.7548609,15.452028 C17.4690374,14.7282396 18.148376,13.9691445 18.9148093,13.2983163 C20.6082731,11.9059955 22.4015629,10.6432391 24.2798422,9.5204943 C25.1416362,9.06739465 26.0319269,8.67228169 26.9449397,8.33771824 C27.0668722,8.33771824 27.2758995,8.1611845 27.2758995,8.090571 C27.2758995,7.49035629 27.6416972,7.43739617 28.0249138,7.19024893 C28.4081305,6.9431017 28.7913471,7.19024893 29.1745637,7.19024893 C30.0447051,7.47108857 30.9284122,7.70677298 31.8222423,7.89638389 C32.4105137,7.90125498 32.9966467,7.82403217 33.5641361,7.66689003 C35.018565,7.43738799 36.4992796,7.43738799 37.9537085,7.66689003 C38.2260148,7.67682721 38.4860175,7.55166379 38.650466,7.33147592 C39.2552645,6.33938907 40.0930898,5.51454783 41.0891173,4.93061706 C42.4650491,3.95095368 43.915352,3.08322739 45.4264329,2.33557108 C47.5142513,1.30455118 49.7471668,0.607795351 52.0456293,0.270126326 C54.5396976,-0.200140394 57.1088321,-0.0548169527 59.5357726,0.693807302 C60.9044393,1.02994772 62.2488314,1.46051687 63.5595473,1.9825036 C64.9737664,2.73479481 66.335615,3.58413467 67.6355788,4.52458946 C69.0166004,5.49781686 70.2340736,6.68995093 71.241299,8.05526426 C71.7656596,8.79727791 72.1821589,9.61176201 72.4780436,10.4737765 C72.9843134,11.7429427 73.3579578,13.0623819 73.5928556,14.4104789 C73.70596,15.4446429 73.6351639,16.4909819 73.3838284,17.4998193 C73.1001553,18.9914545 72.6922537,20.4560411 72.1645027,21.8778561 C71.6127308,23.1079516 70.9601368,24.2889821 70.2135816,25.4085309 C69.6910135,26.2911996 69.0987696,27.1738683 68.4716878,28.056537 C70.3749529,28.9628982 71.9213399,30.4927833 72.8612602,32.399267 C73.9933434,34.3470162 74.7167895,36.5105062 74.9863706,38.7544816 Z M41.3678203,95.651306 C39.6278837,94.4950796 37.3769263,94.4950796 35.6369897,95.651306 C34.888765,96.1959895 34.1733142,96.7854853 33.4944604,97.4166434 C33.0029188,97.9040013 32.4853802,98.3636789 31.9441749,98.7936066 C30.8300201,99.6034977 29.9661128,100.717814 29.4532667,102.006521 C28.3558736,104.636873 29.1745637,107.302533 30.1326053,109.738698 C30.1326053,109.844619 30.2371189,110.003499 30.3242136,110.038806 C31.055809,110.285953 31.2822552,110.974435 31.6654719,111.539343 C31.797965,111.688005 31.9437439,111.823926 32.1009453,111.94537 C33.1286627,112.898652 34.4525019,112.633852 35.5847329,112.863346 C36.5728622,112.854754 37.5202564,112.463116 38.2324115,111.768836 C38.9839531,111.032985 39.856355,110.435591 40.8104143,110.003499 C41.1936309,109.879925 41.454915,109.315017 41.751037,108.926643 C41.733458,108.812339 41.6705249,108.710291 41.5768476,108.644189 C40.897509,108.291122 40.8626711,108.238162 41.2807256,107.620294 C42.02974,106.490478 42.8484301,105.413622 43.5451876,104.266153 C44.3176924,103.007211 44.6433587,101.518875 44.4683913,100.046996 C44.2350635,98.1445704 43.0684695,96.490686 41.3678203,95.651306 L41.3678203,95.651306 Z M35.7589223,121.919527 C35.4849393,122.057105 35.1992733,122.169364 34.9053943,122.254941 L34.9053943,122.060754 L33.2854331,122.696275 C33.2112858,122.74715 33.1560924,122.821731 33.1286627,122.908115 C32.6167788,123.941453 32.5536415,125.14441 32.9544733,126.22695 C33.320271,127.180232 33.4073657,128.751382 35.0273269,128.839649 C35.1318405,128.839649 35.2189352,129.086796 35.3408678,129.122103 C35.8634359,129.280983 36.4556798,129.616398 36.8737343,129.475171 C37.617283,129.030766 38.3915375,128.641378 39.1904531,128.310048 C39.4549241,128.23245 39.6757259,128.047037 39.8001159,127.7981 C40.6441398,126.16895 40.4952979,124.19425 39.4168993,122.713928 C39.0671637,122.080607 38.465391,121.63047 37.7651663,121.478402 C37.0649416,121.326334 36.3340106,121.487049 35.7589223,121.919527 Z M37.5008161,136.32468 C36.8388964,136.183453 36.4208419,136.218759 36.0898821,136.836628 C36.0027874,136.977855 35.7240844,137.013161 35.5847329,137.136735 C35.4453814,137.260309 34.5570156,137.136735 34.5221777,137.966443 C34.33769,139.137312 34.5462369,140.337055 35.1144216,141.373545 C35.5332832,142.196871 36.4600148,142.61511 37.3440456,142.379787 C37.7446812,142.662241 38.0233842,143.032962 38.2672494,142.997655 C38.6354299,142.894162 38.9598214,142.670855 39.1904531,142.362134 C40.1030329,141.23255 40.3972678,139.715069 39.9743053,138.319511 C39.6210129,137.210715 38.646279,136.424607 37.5008161,136.32468 Z" id="Shape"></path>
            </g>
        </g>
    </g>
</svg>