<?xml version="1.0" encoding="UTF-8"?>
<svg width="72px" height="80px" viewBox="0 0 72 80" version="1.1" xmlns="http://www.w3.org/2000/svg" xmlns:xlink="http://www.w3.org/1999/xlink">
    <!-- Generator: Sketch 53 (72520) - https://sketchapp.com -->
    <title>competition</title>
    <desc>Created with Sketch.</desc>
    <g id="2.0" stroke="none" stroke-width="1" fill="none" fill-rule="evenodd">
        <g id="home---Desktop" transform="translate(-530.000000, -1320.000000)" fill="#000000">
            <g id="competition" transform="translate(530.000000, 1320.000000)">
                <path d="M21,44.9385791 C21,47.1442322 22.4359134,49.0253628 24.4321982,49.7190221 C25.895356,54.9303285 32.8241486,59 35.7931889,59 C38.7374614,59 45.5789475,54.9999999 47.1151703,49.8522537 C49.3448917,49.3028266 51,47.3086325 51,44.9404126 C51,42.6877005 49.5015481,40.7735676 47.4383901,40.1177999 L47.4383901,38.6999237 L47.7752322,38.6999237 C48.7510836,38.6999237 49.5448917,37.9170359 49.5448917,36.9532467 L49.5448917,28.8084033 C49.5448917,27.3440796 48.7907121,26.0484341 47.6452013,25.2826585 L47.6452013,24.7417877 C47.6452013,23.7645531 46.7560372,23 45.6229104,23 L28.9981424,23 C24.8544891,23 21.6074303,25.3669978 21.6074303,28.388541 L21.6074303,36.7845684 C21.6074303,38.0264324 22.6817338,39.0305577 24.1479876,39.2560733 L24.1479876,40.2681436 C22.3009288,41.0351413 21,42.8398777 21,44.9385791 L21,44.9385791 Z M24.1479876,46.8184874 C23.6724458,46.3295646 23.3801858,45.6689076 23.3801858,44.9385791 C23.3801858,44.2088617 23.6724458,43.5475936 24.1479876,43.0592819 L24.1479876,46.8184874 Z M47.4383901,42.7115356 C48.1510836,43.2035141 48.6191951,44.0194042 48.6191951,44.9404126 C48.6191951,45.8614209 48.1510836,46.6773109 47.4383901,47.167456 L47.4383901,42.7115356 Z M45.0582045,47.7113827 C45.0582045,52.3964859 37.9653252,56.6507258 35.7931889,56.6507258 C33.9987616,56.6507258 28.6873066,53.6713522 27.0303406,49.9262032 C26.36161,48.4184874 26.5287925,48.3280366 26.5287925,39.3031323 C26.723839,39.274408 33.4495356,39.7456073 40.3356038,35.3116884 C40.7417958,37.2447671 42.479257,38.6999237 44.5566564,38.6999237 L45.0582045,38.6999237 L45.0582045,47.7113827 Z M47.0643964,28.2051949 C47.2421053,28.722842 47.1294119,28.4013752 47.1640868,36.3506494 C45.5696595,36.3506494 45.4934985,36.3506494 44.5566564,36.3506494 C43.4916409,36.3506494 42.6272446,35.4950345 42.6272446,34.4456837 L42.6272446,33.6340718 C44.3727555,32.1801376 46.1498452,30.2690604 47.0643964,28.2051949 Z M23.9882352,36.7167304 L23.9882352,28.388541 C23.9882352,27.3941941 24.8260062,26.4915204 26.0873065,25.9341483 C26.9126935,25.5674562 27.9219815,25.3498855 28.9981424,25.3498855 L45.2643964,25.3498855 C45.2148608,25.4653935 45.7634675,27.3294119 42.3003097,30.7475937 C41.8984521,31.1405653 41.2080496,31.771887 40.2464397,32.484492 C32.7436534,38.0478228 25.7808049,36.755233 24.7733747,36.9532467 C24.3721363,36.9532467 24.0773993,36.8102369 23.9882352,36.7167304 Z" id="Shape" fill-rule="nonzero"></path>
                <path d="M39.8941097,44.1285616 C38.6937448,44.6535986 38.7057484,46.3635269 39.9076137,46.8773291 L39.9076137,46.8795761 C40.8926633,47.2975087 42,46.576987 42,45.4992004 C42,44.4011914 40.8596533,43.6971474 39.8941097,44.1285616 Z" id="Path"></path>
                <path d="M39.8803649,39.1989193 C39.282949,39.3360085 38.8990603,39.9851093 39.0233781,40.6482379 C39.148847,41.3100913 39.7341765,41.7353861 40.3315924,41.5976594 C41.1218159,41.4172121 42.6234135,41.332408 43.3054346,41.811901 C43.4884579,41.937513 43.692201,42 43.8924907,42 C45.0021419,42 45.4188367,40.3868122 44.4824245,39.736436 C43.2542111,38.8801075 41.2772132,38.8730936 39.8803649,39.1989193 L39.8803649,39.1989193 Z" id="Path"></path>
                <path d="M31.5011247,44 C30.672582,44 30,44.6704999 30,45.4992499 C30,46.3272499 30.672582,47 31.5011247,47 C32.352162,47 33,46.307 33,45.4992499 C33,44.66675 32.3259185,44 31.5011247,44 Z" id="Path"></path>
                <path d="M32.9768185,41.646531 C33.100538,40.9823751 32.7167194,40.3322687 32.1194127,40.1949672 C31.832268,40.1279131 29.3221984,39.5908407 27.6419133,40.6528516 L27.6407624,40.6528516 C26.9732519,41.0500678 26.8472305,41.8534411 27.1700525,42.4256369 C27.4905726,42.9876149 28.1626866,43.1785598 28.6949686,42.8119968 C29.3883739,42.328568 30.8718585,42.4166964 31.669994,42.5974233 C32.2655744,42.7353634 32.8513724,42.3094097 32.9768185,41.646531 L32.9768185,41.646531 Z" id="Path"></path>
                <path d="M38.8318476,50 C38.1884463,50 37.6663271,50.4472179 37.6663271,50.9994799 C37.6663271,51.5517421 37.1423886,52.00104 36.4989872,52.00104 C35.8549796,52.00104 35.3310411,51.5517421 35.3310411,50.9994799 C35.3310411,50.4472179 34.8089219,50 34.1655205,50 C33.5215128,50 33,50.4472179 33,50.9994799 C33,52.6541862 34.5693898,54 36.4989872,54 C39.9500681,54 41.0883002,50 38.8318476,50 Z" id="Path"></path>
                <path d="M61.6212369,53.4020382 L56.3572479,50.4058154 C59.7006424,44.062417 59.8436654,36.4708466 56.4940794,29.8649965 L61.7729279,26.8608391 C65.3769832,30.8342371 72,28.2817408 72,23.0143948 C72,18.588115 67.1087377,15.8018536 63.2136831,18.0186556 C60.8503986,19.3638737 59.6981658,22.195301 60.5816888,24.8289741 L55.3201764,27.8233657 C51.4040709,21.7680539 44.7179011,17.8581329 37.3420014,17.4339375 L37.3420014,11.4305057 C40.0030957,10.8872916 42.0091324,8.55879497 42.0091324,5.77680605 C42.0091324,1.90655789 38.2069499,-0.867496331 34.4561567,0.24944953 C33.8271032,0.436827932 33.4710936,1.09112632 33.6611718,1.71185525 C33.8512498,2.33197387 34.5149756,2.68231656 35.144029,2.49554847 C37.3748162,1.83087412 39.6285117,3.48432028 39.6285117,5.77680605 C39.6285117,7.66706916 38.0688802,9.20454834 36.1520007,9.20454834 C33.8859221,9.20454834 32.2080335,7.08357188 32.7887935,4.90400138 C32.9559632,4.27716883 32.5758069,3.63568782 31.9399428,3.4708926 C31.3034595,3.30670753 30.653355,3.68146433 30.4861853,4.30829687 C29.6317623,7.51936382 31.6997137,10.7640002 34.9619999,11.4305057 L34.9619999,17.4144062 C27.80404,17.7342312 20.9859918,21.385973 16.8500891,27.5749522 L11.5700024,24.5695741 C12.8231561,20.834214 9.98312825,16.985328 6.01377599,16.985328 C2.79359183,16.985328 0.151691006,19.5646798 0.151691006,22.7556051 C0.151691006,28.0479756 6.80009292,30.5473711 10.3793824,26.6014392 L15.6452287,29.5988826 C14.4923768,31.7882186 13.6924387,34.178361 13.3129016,36.6924048 C13.2163145,37.3332755 13.6645771,37.9302006 14.3146815,38.0260262 C14.9654052,38.1206308 15.5703119,37.6787352 15.667518,37.0378647 C16.765885,29.7630675 21.7803575,23.6345134 28.75505,21.0447857 C39.5046823,17.0524669 51.2963392,22.565175 55.2304002,32.8599986 C59.2796224,43.4569468 53.6874855,55.0805088 43.2443309,58.9586917 C30.38836,63.7334829 16.4872688,54.9016755 15.4978717,41.4604822 C15.4501973,40.8141185 14.8787246,40.3301085 14.2242861,40.3752747 C13.5692284,40.4216615 13.0763873,40.9837966 13.1234425,41.6301604 C13.3339525,44.4805087 14.0992183,47.3638162 15.5059206,50.1384809 L10.2276914,53.1426381 C6.63106579,49.1777852 0,51.7333331 0,56.9884722 C0,61.364703 4.84977939,64.224817 8.78631689,61.9848217 C10.5929881,60.9563769 11.7155018,59.0386478 11.7155018,56.9799273 C11.7155018,56.3653018 11.6133426,55.7555593 11.4183112,55.1745033 L16.6798236,52.1795012 C20.5959291,58.2354233 27.282718,62.1453445 34.6579986,62.5695397 L34.6579986,68.5723613 C31.9975234,69.1161858 29.9914867,71.4446824 29.9914867,74.2260609 C29.9914867,77.409662 32.618528,80 35.8479994,80 C39.07809,80 41.7051312,77.409662 41.7051312,74.2260609 C41.7051312,71.4446824 39.6990946,69.1161858 37.0386194,68.5723613 L37.0386194,62.5884607 C44.1458091,62.2716875 50.9861466,58.6730464 55.1511493,52.4291355 L60.4299976,55.4332929 C59.5483321,58.0614728 60.6931353,60.8953417 63.0619921,62.2436113 C63.5300673,62.5103355 64.4476434,62.8966889 64.9250059,62.8966889 C66.3329464,62.8966889 66.56265,60.8983934 65.1961923,60.5816201 C62.9400202,60.0585477 61.8125533,57.5231415 62.9796456,55.5297286 C64.7528829,52.5023779 69.4683074,53.7420048 69.4683074,57.2478723 C69.4683074,58.1499739 69.1005341,59.0209476 68.4590976,59.6593768 C67.9959757,60.119583 67.9996905,60.8623825 68.4665275,61.3183162 C68.9333643,61.7742499 69.6868663,61.7711982 70.1493693,61.3103817 C71.2124449,60.2532503 71.848309,58.7957274 71.848309,57.2478723 C71.848309,51.923153 65.1918582,49.4652615 61.6212369,53.4020382 L61.6212369,53.4020382 Z M66.137915,19.5909248 C69.685009,19.5909248 70.9536414,24.2381524 67.8808142,25.9868137 C65.5775869,27.2984623 62.6651188,25.6541713 62.6651188,23.0229396 C62.6651188,21.13878 64.219178,19.5909248 66.137915,19.5909248 L66.137915,19.5909248 Z M9.02035443,24.4731383 C8.4012073,25.5308801 7.24587885,26.1876198 6.00510801,26.1876198 C3.36506466,26.1876198 1.65250364,23.3445957 2.99852957,21.0460063 C4.77176693,18.0186556 9.48719144,19.2576722 9.48719144,22.7635397 C9.48719144,23.3610753 9.32559408,23.9525073 9.02035443,24.4731383 Z M5.86208498,60.4125524 C2.31499114,60.4125524 1.04635856,55.765325 4.11918578,54.0160533 C6.44346417,52.6934183 9.33550043,54.3682269 9.33550043,56.9799273 C9.33550043,58.8646973 7.78082196,60.4125524 5.86208498,60.4125524 Z M39.3251297,74.2260609 C39.3251297,76.116324 37.765498,77.6538032 35.8479994,77.6538032 C33.9311199,77.6538032 32.3714883,76.1157137 32.3714883,74.2260609 C32.3714883,72.3364081 33.9311199,70.7989289 35.8479994,70.7989289 C37.765498,70.7989289 39.3251297,72.3364081 39.3251297,74.2260609 Z" id="Shape" fill-rule="nonzero"></path>
            </g>
        </g>
    </g>
</svg>