<?xml version="1.0" encoding="UTF-8"?>
<svg width="54px" height="73px" viewBox="0 0 54 73" version="1.1" xmlns="http://www.w3.org/2000/svg" xmlns:xlink="http://www.w3.org/1999/xlink">
    <!-- Generator: Sketch 53 (72520) - https://sketchapp.com -->
    <title>customer</title>
    <desc>Created with Sketch.</desc>
    <g id="2.0" stroke="none" stroke-width="1" fill="none" fill-rule="evenodd">
        <g id="home---Desktop" transform="translate(-141.000000, -1317.000000)" fill="#000000">
            <g id="customer" transform="translate(141.000000, 1317.000000)">
                <path d="M36.6976437,46.2080485 C44.7815644,42.7340344 50,34.7586969 50,26.0117822 C50,6.36531243 26.1649463,-3.28734294 12.4530005,10.4247177 C3.05653107,19.8216411 4.08652864,35.2509949 14.4691893,43.3369488 C19.4253341,47.1970253 25.9656273,48.8852954 32.4445915,47.5458504 C33.0195502,47.4264724 33.3891666,46.8640807 33.2703418,46.2896418 C33.1515171,45.7146551 32.5886049,45.3455686 32.0141937,45.4638515 C30.6912409,45.7376547 29.3398139,45.876199 27.9976958,45.876199 C10.2008047,45.876199 1.54575835,24.338845 13.956107,11.9284444 C24.7538332,1.13074419 43.6754532,6.05755778 47.3305484,21.3883425 C49.5734353,30.7973131 44.7142121,40.4494211 35.8587516,44.2552845 C35.3193854,44.486922 35.069689,45.1117407 35.3018628,45.6511329 C35.5334891,46.1910726 36.1588252,46.4402335 36.6976437,46.2080485 L36.6976437,46.2080485 Z" id="Path"></path>
                <path d="M46.3690107,8.18595443 C34.2488041,-4.24956492 12.5469869,-2.44076211 3.15270572,13.0938247 C2.84389618,13.6040706 3.0181691,14.2619177 3.54269118,14.5626477 C4.06721326,14.8633778 4.74273419,14.6936643 5.05154373,14.1828655 C9.60705201,6.64968819 17.6843514,2.15255784 26.6596962,2.15255784 C45.3273461,2.15255784 56.7300248,21.0515619 49.6631683,36.4899593 C49.4156666,37.0311628 49.665439,37.6657917 50.2211825,37.906818 C50.7746555,38.1472915 51.4274699,37.906818 51.6761069,37.363956 C56.287814,27.2894992 53.7878192,15.7981838 46.3690107,8.18595443 L46.3690107,8.18595443 Z" id="Path"></path>
                <path d="M49.47591,40.3408411 C48.9596437,40.032007 48.286694,40.1916725 47.9722,40.6971882 L30.5639957,68.6497142 C28.6353243,71.7463425 25.4802387,71.4292211 23.7443217,68.6419795 L5.73418269,39.7215154 C1.77708082,33.2453911 1.09342262,25.5339303 3.87878032,18.458922 C4.09633363,17.9064459 3.81565607,17.2854629 3.25204664,17.072207 C2.68843722,16.8589513 2.05494037,17.1340843 1.83738706,17.6865604 C-1.22301203,25.4598986 -0.401269568,33.8547721 3.86187211,40.8314399 L21.8770837,69.7596386 C24.4031811,73.8164703 29.5878242,74.3330353 32.4312339,69.7679257 L49.839438,41.8148471 C50.1544957,41.3093316 49.9916126,40.6491227 49.47591,40.3408411 Z" id="Path"></path>
                <path d="M12,30.1102333 C12,32.1324076 13.3403098,33.856665 15.2036953,34.4929981 C15.7588195,36.4352841 17.1735274,38.3581529 19.3224871,40.0435755 C21.538405,41.7855858 24.2047173,43 25.8071373,43 C28.6960716,43 34.9787026,39.2075215 36.3739525,34.6150498 C38.4553817,34.1107544 40,32.2827531 40,30.1118976 C40,28.0458954 38.6018887,26.2927895 36.6761231,25.6908529 L36.6761231,24.3915573 L36.990312,24.3915573 C37.9014022,24.3915573 38.6419491,23.6736715 38.6419491,22.7904612 L38.6419491,15.3236724 C38.6419491,13.9816587 37.9386012,12.793874 36.8689859,12.0920768 L36.8689859,11.5966579 C36.8689859,10.7006876 36.0397335,10 34.9821363,10 L19.464988,10 C15.5974328,10 12.5671423,12.1691913 12.5671423,14.9392096 L12.5671423,22.6340132 C12.5671423,23.7740868 13.5697993,24.6944673 14.9381514,24.9014005 L14.9381514,25.8289933 C13.2144055,26.5307904 12,28.186255 12,30.1102333 Z M14.9381514,31.833381 C14.4940522,31.3856733 14.2216409,30.779853 14.2216409,30.1102333 C14.2216409,29.4411681 14.4940522,28.8353479 14.9381514,28.3876401 L14.9381514,31.833381 Z M36.6761231,28.0686415 C37.3416997,28.5196779 37.7783592,29.2675219 37.7783592,30.1118976 C37.7783592,30.9562733 37.3416997,31.7030076 36.6761231,32.1523797 L36.6761231,28.0686415 Z M34.4544823,32.6522368 C34.4544823,36.9473464 27.8341986,40.8463427 25.8071373,40.8463427 C24.1320362,40.8463427 19.1748354,38.1157137 17.6285002,34.6821781 C17.3320525,34.0258729 17.1603646,33.3457123 17.1603646,32.6522368 L17.1603646,27.6464536 C17.1603646,27.1072072 17.1603646,25.8916834 17.1603646,24.9441186 C17.334914,24.9191535 23.6501655,25.3319101 30.0478274,21.2858968 C30.4272576,23.056201 32.0491354,24.3915573 33.9863469,24.3915573 L34.4544823,24.3915573 L34.4544823,32.6522368 Z M36.3270245,14.7711111 C36.4929894,15.2460031 36.3876875,14.95086 36.4203083,22.2378999 C34.9317745,22.2378999 34.8608103,22.2378999 33.9863469,22.2378999 C32.9928465,22.2378999 32.1853412,21.4534406 32.1853412,20.4903419 L32.1853412,19.7480457 C33.8146589,18.4149085 35.4731636,16.6629122 36.3270245,14.7711111 Z M14.788783,22.573542 L14.788783,14.9392096 C14.788783,14.0271506 15.5711074,13.200528 16.7483138,12.6890204 C18.4548911,11.9445053 18.4817888,12.1536574 34.647345,12.1536574 C34.6261702,12.4787588 34.799575,13.1788915 33.8770389,14.6895585 C31.3950048,18.7577628 24.7283653,22.7904612 17.3394924,22.7904612 C15.7525242,22.7904612 15.0709234,22.8625827 14.788783,22.573542 Z" id="Shape" fill-rule="nonzero"></path>
                <path d="M31.5965177,29.0856917 C30.7962257,29.4382308 30.8036542,30.5759483 31.6039462,30.918104 C32.2472501,31.1979598 33,30.7282372 33,30.0004145 C33,29.2681418 32.2398217,28.7979247 31.5965177,29.0856917 Z" id="Path"></path>
                <path d="M30.7336614,24.1969224 C30.2358993,24.3358449 29.9162486,24.9843605 30.0193159,25.6480312 C30.1238078,26.3098075 30.6120706,26.7366787 31.1098327,26.597756 C31.7667074,26.4177883 33.0172871,26.3325405 33.5881935,26.8099286 C33.7406568,26.9374848 33.910219,27 34.0774062,27 C35.0016857,27 35.3488842,25.3878673 34.5689936,24.7343 C33.5406971,23.8742432 31.9025471,23.8780321 30.7336614,24.1969224 Z" id="Path"></path>
                <path d="M22.000495,29 C21.4485149,29 21,29.4482732 21,29.9999558 C21,30.7218437 21.7405941,31.19733 22.3940594,30.9197568 C22.75,30.7658795 23,30.4126046 23,29.9999558 C23,29.4522314 22.5559406,29 22.000495,29 Z" id="Path"></path>
                <path d="M23.980686,25.6483492 C24.0837434,24.9846619 23.7641229,24.33613 23.2664078,24.197204 C22.0966823,23.8776742 20.4596364,23.8745167 19.4314368,24.7345951 C18.9997355,25.0958027 18.8710324,25.8529495 19.1412613,26.4263348 C19.4095906,26.9908797 19.9733194,27.1777983 20.4121447,26.8102758 C20.9920207,26.3303496 22.2244356,26.4168627 22.8916968,26.5980979 C23.3879871,26.7351296 23.8762038,26.3101422 23.980686,25.6483492 Z" id="Path"></path>
                <path d="M29.9978932,33 C29.4455699,33 28.9978378,33.4474769 28.9978378,33.9994852 C28.9978378,34.5514934 28.5485599,35.000515 27.9962366,35.000515 C27.443398,35.000515 26.9941202,34.5514934 26.9941202,33.9994852 C26.9941202,33.4474769 26.546388,33 25.9940647,33 C24.085149,33 25.0187402,37 27.9962366,37 C30.9572458,37 31.9336007,33 29.9978932,33 Z" id="Path"></path>
            </g>
        </g>
    </g>
</svg>