<?xml version="1.0" encoding="UTF-8"?>
<svg width="83px" height="125px" viewBox="0 0 83 125" version="1.1" xmlns="http://www.w3.org/2000/svg" xmlns:xlink="http://www.w3.org/1999/xlink">
    <!-- Generator: Sketch 61.2 (89653) - https://sketch.com -->
    <title>extraction-dark</title>
    <desc>Created with Sketch.</desc>
    <g id="Welcome" stroke="none" stroke-width="1" fill="none" fill-rule="evenodd">
        <g id="Home-Page" transform="translate(-541.000000, -2504.000000)" fill="#494562">
            <g id="extraction-dark" transform="translate(541.000000, 2504.000000)">
                <path d="M40.1506764,32.7414572 C40.2759907,36.9874523 39.7747334,41.4907803 40.0253621,45.8654419 C40.1506764,48.3101057 40.0253621,49.8541039 42.1557056,50.36877 C43.4088489,50.7547695 46.5417071,51.2694356 47.4189073,51.7841016 C44.4113635,53.1994333 36.6418752,52.6847673 37.8950185,55.9014302 C38.1456471,56.4160962 38.5215901,56.5447627 39.1481618,56.8020958 C41.153191,57.4454284 43.0329059,58.2174275 44.9126208,58.9894266 C46.6670214,59.7614257 48.9226793,60.9194243 50.5517655,61.4340904 L49.7998796,61.8200899 C47.0429644,62.849422 38.0203328,65.6800854 37.6443898,67.7387497 C37.2684469,69.9260804 40.777248,70.1834135 44.0354205,71.0840791 C46.5417071,71.8560782 49.9251939,73.1427434 51.3036515,73.5287429 C50.8023942,74.043409 50.1758225,74.043409 49.5492509,74.300742 C46.5417071,75.0727411 37.8950185,76.8740723 36.3912466,78.289404 C36.0153036,78.6754036 35.6393606,79.3187361 35.8899893,80.0907352 C36.1406179,81.2487339 39.0228474,82.020733 40.777248,82.6640656 C42.4063343,83.3073982 46.5417071,84.8513963 47.4189073,85.752062 C47.7948503,86.6527276 47.5442217,107.754036 47.5442217,110.842033 C47.5442217,114.444695 47.669536,117.790025 47.9201647,121.392687 C48.045479,122.679352 48.045479,124.995349 49.5492509,124.995349 C51.4289658,125.124016 50.6770798,122.550686 50.5517655,121.26402 C49.6745652,114.573362 50.1758225,101.578043 50.1758225,93.6007195 C50.1758225,91.6707217 50.0505082,89.6120575 50.0505082,87.6820597 C49.9251939,83.5647312 49.1733079,83.4360647 44.1607348,81.2487339 C43.5341632,80.9914009 42.7822772,80.7340678 42.1557056,80.4767348 C41.4038196,80.2194018 40.401305,79.8334022 39.9000477,79.4474027 L51.5542801,76.3594063 C52.8074234,75.9734067 54.561824,75.5874072 54.937767,74.558075 C55.9402816,70.8267461 44.5366778,68.8967483 41.905077,67.7387497 C42.7822772,67.0954171 46.91765,65.6800854 48.2961076,65.1654193 C49.4239366,64.7794198 50.4264512,64.3934202 51.5542801,64.0074207 C52.6821091,63.4927546 54.0605667,63.3640881 54.3111953,62.2060895 C54.937767,59.7614257 48.9226793,57.9600944 46.4163927,56.8020958 C45.5391924,56.4160962 43.7847919,55.9014302 43.2835346,55.3867641 C46.6670214,53.9714324 53.6846237,54.614765 52.5567948,51.5267686 C51.8049088,49.4681043 44.9126208,48.8247718 42.6569629,47.7954396 C42.2810199,40.9761143 42.5316486,38.7887835 42.6569629,31.7121251 C42.9075916,31.8407916 42.7822772,31.7121251 42.9075916,31.9694581 L43.5341632,32.8701237 C44.5366778,34.1567889 46.7923357,37.8881179 47.669536,38.660117 C48.5467363,39.5607826 50.0505082,38.7887835 49.6745652,37.3734518 C49.6745652,36.9874523 46.91765,33.3847898 46.5417071,32.7414572 C45.9151354,31.8407916 45.5391924,31.0687925 44.9126208,30.2967934 C44.6619922,29.7821273 44.4113635,29.5247943 44.1607348,29.0101282 C43.9101062,28.6241287 43.6594775,28.1094626 43.4088489,27.7234631 C42.7822772,26.951464 41.2785053,26.6941309 40.5266194,27.46613 C40.1506764,27.7234631 39.2734761,29.1387948 38.8975331,29.7821273 C38.2709615,30.682793 34.7621603,36.6014527 35.012789,37.7594514 C35.2634176,39.0461165 36.7671895,39.174783 37.3937612,38.0167844 C38.0203328,36.7301192 39.2734761,33.5134563 40.1506764,32.7414572 Z" id="Path" transform="translate(45.000000, 76.000000) rotate(-180.000000) translate(-45.000000, -76.000000) "></path>
                <g id="noun_hand-drawn-cloud_1912325" fill-rule="nonzero">
                    <path d="M61,30.6 C59.6,32.9 58.8,35.8 55.6,36.6 C52.5,37.4 50.2,35.8 47.9,33.8 C47.5,34.3 47.2,34.7 46.8,35.1 C45.1,37 42.8,37.5 40.5,36.4 C39.4,35.9 38.3,35.3 36.9,34.5 C36.9,35.3 36.9,35.9 36.9,36.5 C37.1,39.5 36.1,42 34.4,44.3 C32.5,47 30,48.9 27.1,50.3 C23.3,52.1 19.5,52 15.9,49.9 C8.3,45.3 6.1,39.2 8.4,30.8 C8.6,30.1 8.9,29.3 9.1,28.6 C8.9,28.5 8.8,28.3 8.7,28.3 C4.1,27.4 0.7,23.6 0.8,19.1 C0.8,16.1 2.2,13.7 4.9,12.2 C10.9,8.9 18.5,8.9 23.9,13.7 C24,13.8 24.2,13.8 24.5,13.9 C24.3,9.4 26.9,6.4 29.8,3.5 C30.3,3 30.8,2.6 31.4,2.2 C35.3,-0.6 39.6,0 42.4,4 C43.7,5.9 44.6,8.1 45.8,10.3 C47.8,9.6 50,8.7 52.4,9.8 C54.6,10.8 55.7,12.8 56.7,15 C57.1,14.8 57.5,14.7 57.8,14.5 C65.6,9.9 75.4,12.3 80.8,18.3 C84.7,22.7 82.8,29.8 77.2,31.7 C72.6,33.3 68,33.2 63.5,31.5 C62.8,31.2 62,31 61.3,30.7 C61.3,30.5 61.2,30.6 61,30.6 Z" id="Path"></path>
                </g>
            </g>
        </g>
    </g>
</svg>