<?xml version="1.0" encoding="UTF-8"?>
<svg width="42px" height="42px" viewBox="0 0 42 42" version="1.1" xmlns="http://www.w3.org/2000/svg" xmlns:xlink="http://www.w3.org/1999/xlink">
    <!-- Generator: Sketch 61.2 (89653) - https://sketch.com -->
    <title>instagram-icon</title>
    <desc>Created with Sketch.</desc>
    <g id="Welcome" stroke="none" stroke-width="1" fill="none" fill-rule="evenodd">
        <g id="Thankyou" transform="translate(-217.000000, -559.000000)" fill="#803D85" fill-rule="nonzero">
            <path d="M246.765625,600.859375 C248.546875,600.765625 250.09375,600.5 251.40625,600.0625 C252.96875,599.5 254.328125,598.640625 255.484375,597.484375 C256.640625,596.328125 257.5,594.96875 258.0625,593.40625 C258.5,592.09375 258.765625,590.546875 258.859375,588.765625 C258.953125,586.984375 259,584.0625 259,580 C259,575.9375 258.96875,573.03125 258.90625,571.28125 C258.78125,569.46875 258.5,567.90625 258.0625,566.59375 C257.5,565.03125 256.640625,563.671875 255.484375,562.515625 C254.328125,561.359375 252.96875,560.5 251.40625,559.9375 C250.09375,559.5 248.546875,559.234375 246.765625,559.140625 C244.984375,559.046875 242.0625,559 238,559 C233.9375,559 231.015625,559.046875 229.234375,559.140625 C227.453125,559.234375 225.90625,559.5 224.59375,559.9375 C223.03125,560.5 221.671875,561.359375 220.515625,562.515625 C219.359375,563.671875 218.5,565.03125 217.9375,566.59375 C217.5,567.90625 217.234375,569.453125 217.140625,571.234375 C217.054375,572.873125 217.0078,575.4773 217.0009,579.0469 L217.0009,580.9531 C217.0078,584.5227 217.054375,587.126875 217.140625,588.765625 C217.234375,590.546875 217.5,592.09375 217.9375,593.40625 C218.5,594.96875 219.359375,596.328125 220.515625,597.484375 C221.671875,598.640625 223.03125,599.46875 224.59375,599.96875 C225.90625,600.46875 227.453125,600.765625 229.234375,600.859375 C230.873125,600.945625 233.4773,600.9922 237.0469,600.9991 L238.9531,600.9991 C242.5227,600.9922 245.126875,600.945625 246.765625,600.859375 Z M239.973145,597.249634 L236.5,597.25 C234,597.25 232.0625,597.21875 230.6875,597.15625 C228.375,597.03125 226.6875,596.78125 225.625,596.40625 C223.75,595.65625 222.40625,594.3125 221.59375,592.375 C221.21875,591.3125 220.96875,589.625 220.84375,587.3125 C220.785156,586.023438 220.754028,584.23999 220.750366,581.962158 L220.75,578.5 C220.75,576 220.78125,574.0625 220.84375,572.6875 C220.96875,570.3125 221.21875,568.625 221.59375,567.625 C222.34375,565.6875 223.6875,564.34375 225.625,563.59375 C226.6875,563.21875 228.375,562.96875 230.6875,562.84375 C232.0625,562.78125 234,562.75 236.5,562.75 L239.5,562.75 C242,562.75 243.9375,562.78125 245.3125,562.84375 C247.6875,562.96875 249.375,563.21875 250.375,563.59375 C252.3125,564.34375 253.65625,565.6875 254.40625,567.625 C254.78125,568.625 255.03125,570.3125 255.15625,572.6875 C255.21875,574 255.25,575.9375 255.25,578.5 L255.25,581.5 C255.25,584 255.21875,585.9375 255.15625,587.3125 C255.03125,589.625 254.78125,591.3125 254.40625,592.375 C253.65625,594.25 252.3125,595.59375 250.375,596.40625 C249.375,596.78125 247.6875,597.03125 245.3125,597.15625 C244.082031,597.214844 242.302246,597.245972 239.973145,597.249634 Z M249.25,571.28125 C249.9375,571.28125 250.515625,571.03125 250.984375,570.53125 C251.453125,570.03125 251.71875,569.4375 251.78125,568.75 C251.78125,568.0625 251.53125,567.46875 251.03125,566.96875 C250.53125,566.46875 249.9375,566.21875 249.25,566.21875 C248.5625,566.21875 247.96875,566.46875 247.46875,566.96875 C246.96875,567.46875 246.71875,568.0625 246.71875,568.75 C246.71875,569.4375 246.96875,570.03125 247.46875,570.53125 C247.96875,571.03125 248.5625,571.28125 249.25,571.28125 Z M238,590.78125 C239.9375,590.78125 241.734375,590.296875 243.390625,589.328125 C245.046875,588.359375 246.359375,587.046875 247.328125,585.390625 C248.296875,583.734375 248.78125,581.9375 248.78125,580 C248.78125,578.0625 248.296875,576.265625 247.328125,574.609375 C246.359375,572.953125 245.046875,571.640625 243.390625,570.671875 C241.734375,569.703125 239.9375,569.21875 238,569.21875 C236.0625,569.21875 234.265625,569.703125 232.609375,570.671875 C230.953125,571.640625 229.640625,572.953125 228.671875,574.609375 C227.703125,576.265625 227.21875,578.0625 227.21875,580 C227.21875,581.9375 227.703125,583.734375 228.671875,585.390625 C229.640625,587.046875 230.953125,588.359375 232.609375,589.328125 C234.265625,590.296875 236.0625,590.78125 238,590.78125 Z M238,587.03125 C236.0625,587.03125 234.40625,586.34375 233.03125,584.96875 C231.65625,583.59375 230.96875,581.9375 230.96875,580 C230.96875,578.0625 231.65625,576.40625 233.03125,575.03125 C234.40625,573.65625 236.0625,572.96875 238,572.96875 C239.9375,572.96875 241.59375,573.65625 242.96875,575.03125 C244.34375,576.40625 245.03125,578.0625 245.03125,580 C245.03125,581.9375 244.34375,583.59375 242.96875,584.96875 C241.59375,586.34375 239.9375,587.03125 238,587.03125 Z" id="instagram-icon"></path>
        </g>
    </g>
</svg>