<?xml version="1.0" encoding="UTF-8"?>
<svg width="159px" height="41px" viewBox="0 0 159 41" version="1.1" xmlns="http://www.w3.org/2000/svg" xmlns:xlink="http://www.w3.org/1999/xlink">
    <!-- Generator: Sketch 48.2 (47327) - http://www.bohemiancoding.com/sketch -->
    <title>jtbd_pro_logo_rev</title>
    <desc>Created with Sketch.</desc>
    <defs></defs>
    <g id="jtbd_pro_desktop" stroke="none" stroke-width="1" fill="none" fill-rule="evenodd" transform="translate(-124.000000, -84.000000)">
        <g id="jtbd_pro_logo_rev" transform="translate(124.000000, 84.000000)">
            <path d="M32.0279182,11 L39,11 L39,31.3049781 C39,33.1884769 38.5717486,34.8688848 37.7152459,36.3456158 C36.8584559,37.8226399 35.6633157,38.9676266 34.1292509,39.780576 C32.5957606,40.5935253 30.8853401,41 29,41 C25.839097,41 23.3821806,40.1873437 21.6292509,38.5611519 C19.8763212,36.9349601 19,34.631799 19,31.6504962 L26.012006,31.6504962 C26.012006,33.0056072 26.2409237,33.9876524 26.6990464,34.5975109 C27.1571691,35.2076626 27.9243451,35.5124453 29,35.5124453 C29.9690947,35.5124453 30.716165,35.1434823 31.2409237,34.4043842 C31.7653952,33.6661652 32.0279182,32.6328345 32.0279182,31.3049781 L32.0279182,11 Z" id="Fill-1" fill="#FFFFFF"></path>
            <polygon id="Fill-3" fill="#FFFFFF" points="65 16.5836684 56.0227475 16.5836684 56.0227475 41 48.8125703 41 48.8125703 16.5836684 40 16.5836684 40 11 65 11"></polygon>
            <path d="M73.1569798,28.2459448 L73.1569798,35.4368303 L77.8467654,35.4368303 C79.1379852,35.4368303 80.1305076,35.1379652 80.8237445,34.5402349 C81.5169813,33.9428017 81.8635998,33.1017607 81.8635998,32.0162207 C81.8635998,29.5162702 80.6332366,28.2596106 78.1730983,28.2459448 L73.1569798,28.2459448 Z M73.1569798,23.5068824 L76.8883464,23.5068824 C78.4515102,23.4932166 79.5663339,23.2038581 80.2322294,22.6388069 C80.8981248,22.0743499 81.2315136,21.240736 81.2315136,20.1382623 C81.2315136,18.8709077 80.8710774,17.9582698 80.1507931,17.4003486 C79.4302149,16.8421303 78.2680582,16.5631697 76.6643232,16.5631697 L73.1569798,16.5631697 L73.1569798,23.5068824 Z M66,41 L66,11 L76.6643232,11 C80.4835939,11 83.3894265,11.7076509 85.380645,13.1223584 C87.3721575,14.537066 88.3679138,16.5910954 88.3679138,19.2829613 C88.3679138,20.8355152 88.0142395,22.1608009 87.3077729,23.2597097 C86.6007184,24.3586184 85.5605691,25.1690598 84.187913,25.690737 C85.7375532,26.1027906 86.9270512,26.8725317 87.7561131,27.998475 C88.585469,29.1250124 89,30.4987225 89,32.1193084 C89,35.0592383 88.0789181,37.2671565 86.2370483,38.7436573 C84.3951785,40.2204551 81.6663301,40.9726684 78.050797,41 L66,41 Z" id="Fill-5" fill="#FFFFFF"></path>
            <path d="M99.0568544,16.5836684 L99.0568544,35.4368303 L101.509824,35.4368303 C103.533191,35.4368303 105.088401,34.6985799 106.174004,33.2217821 C107.259607,31.7452813 107.802553,29.5507318 107.802553,26.6387277 L107.802553,25.3407736 C107.802553,22.4424353 107.259607,20.2582837 106.174004,18.7883187 C105.088401,17.3189479 103.506812,16.5836684 101.429238,16.5836684 L99.0568544,16.5836684 Z M92,41 L92,11 L101.429238,11 C104.015843,11 106.341555,11.6012953 108.405505,12.8026975 C110.469455,14.004991 112.081482,15.7013329 113.241004,17.8920204 C114.399947,20.083302 114.986376,22.538393 115,25.2581846 L115,26.6387277 C115,29.386148 114.433573,31.848369 113.301299,34.0253907 C112.168156,36.2027094 110.573523,37.9058842 108.51624,39.1352122 C106.458377,40.3648373 104.163392,40.9863342 101.630415,41 L92,41 Z" id="Fill-7" fill="#FFFFFF"></path>
            <path d="M119,37 C119.573525,37 120.050017,37.140668 120.430143,37.4214535 C120.809937,37.7027895 121,38.0620297 121,38.5 C121,38.9379703 120.809937,39.2974858 120.430143,39.5785465 C120.050017,39.8598825 119.573525,40 119,40 C118.419473,40 117.94098,39.8582309 117.564522,39.574142 C117.188063,39.2900532 117,38.9321894 117,38.5 C117,38.0680859 117.188063,37.7099468 117.564522,37.425858 C117.94098,37.1420444 118.419473,37 119,37" id="Fill-9" fill="#FFFFFF"></path>
            <path d="M126.062727,33.1696699 L128.069817,33.1696699 C128.662986,33.1696699 129.11517,33.0176571 129.426639,32.7141853 C129.737836,32.4107135 129.893435,31.9820873 129.893435,31.4285836 C129.893435,30.8213632 129.733236,30.3365282 129.413649,29.9732481 C129.093522,29.6102449 128.657304,29.425836 128.104725,29.4194675 L126.062727,29.4194675 L126.062727,33.1696699 Z M126.062727,35.5891374 L126.062727,40 L123,40 L123,27 L128.069817,27 C129.041295,27 129.900741,27.1830245 130.648157,27.5490735 C131.395573,27.9151225 131.974671,28.4359531 132.38464,29.1115655 C132.79488,29.7871778 133,30.5536102 133,31.4105857 C133,32.6787433 132.556205,33.691885 131.669156,34.4508413 C130.781837,35.2097977 129.564648,35.5891374 128.017589,35.5891374 L126.062727,35.5891374 Z" id="Fill-11" fill="#FFFFFF"></path>
            <path d="M139.288726,32.9910756 L141.36866,32.9910756 C141.993396,32.9910756 142.463546,32.8346326 142.77911,32.5214696 C143.094384,32.2080298 143.252166,31.77082 143.252166,31.2098403 C143.252166,30.6491374 143.092931,30.2088818 142.774171,29.8899042 C142.455701,29.5703727 141.987294,29.410607 141.36866,29.410607 L139.288726,29.410607 L139.288726,32.9910756 Z M141.069078,35.4019595 L139.288726,35.4019595 L139.288726,40 L136,40 L136,27 L141.36866,27 C142.986871,27 144.251453,27.3422364 145.163567,28.0256017 C146.075391,28.7095208 146.531593,29.6758679 146.531593,30.9243663 C146.531593,31.8284132 146.339523,32.5776784 145.955384,33.171885 C145.571244,33.7669223 144.970044,34.2484345 144.151495,34.6169755 L147,39.8659851 L147,40 L143.477071,40 L141.069078,35.4019595 Z" id="Fill-13" fill="#FFFFFF"></path>
            <path d="M155.637067,33.7099235 C155.637067,32.3560397 155.409522,31.3280748 154.954433,30.626319 C154.499051,29.9242729 153.847671,29.573395 153,29.573395 C151.342048,29.573395 150.466336,30.8088683 150.371988,33.2795249 L150.362348,34.2807894 C150.362348,35.6158088 150.585512,36.6423226 151.031255,37.3597504 C151.477289,38.0771782 152.139477,38.4358921 153.018694,38.4358921 C153.853805,38.4358921 154.49759,38.0835631 154.949467,37.3786148 C155.401636,36.6733763 155.630933,35.6596322 155.637067,34.3368022 L155.637067,33.7099235 Z M159,34.2807894 C159,35.6097141 158.751716,36.7859823 158.255732,37.8090135 C157.759749,38.8320446 157.054915,39.619706 156.14123,40.1719978 C155.227545,40.7239993 154.186505,41 153.018694,41 C151.850884,41 150.814517,40.7332863 149.910472,40.199859 C149.006426,39.6664317 148.3013,38.9037293 147.795969,37.9120421 C147.290346,36.9200647 147.02512,35.7815253 147,34.4961338 L147,33.7284977 C147,32.3934783 147.246239,31.215759 147.739302,30.1959203 C148.232072,29.1757914 148.938659,28.3881299 149.85877,27.8326458 C150.778297,27.2774519 151.825471,27 153,27 C154.161385,27 155.197459,27.2745496 156.10793,27.8233587 C157.018402,28.372458 157.72645,29.1540248 158.232072,30.1677688 C158.737403,31.1815129 158.993282,32.3435602 159,33.6539107 L159,34.2807894 Z" id="Fill-15" fill="#FFFFFF"></path>
            <g id="Group" fill="#D0021B">
                <path d="M7.33402929,15.9565543 C6.33581137,17.0649921 6.33581137,18.8611435 7.33402929,19.9686716 C8.3318376,21.0771095 9.9493848,21.0771095 10.9471931,19.9686716 L11.8536585,18.9621173 L8.24049472,14.95 L7.33402929,15.9565543 Z" id="Fill-18"></path>
                <path d="M5.32639794,10.2192142 C7.50690137,10.2192142 13.0571581,10.3719104 15.7269287,9.27731541 L17.4050217,10.8936905 C16.2687687,13.4393078 16.4273354,18.809805 16.4273354,20.909582 C16.4273354,23.7209887 18.7943878,26 21.7134557,26 C24.6329476,26 27,23.7209887 27,20.909582 C27,18.5040043 23.3258326,11.8229327 20.3919256,9.96485663 L21.1983261,9.18871895 C22.2311292,8.19374392 22.2311292,6.58145159 21.1983261,5.58688483 C20.165523,4.59231808 18.4912457,4.59231808 17.4580186,5.58688483 L16.6520421,6.3634308 C14.7093887,3.57611256 7.78418102,0 5.28654429,0 C2.36705243,0 0,2.27941962 0,5.09041801 C0,7.90182469 2.36705243,10.180836 5.28654429,10.180836 L5.32639794,10.2192142 Z" id="Fill-22"></path>
                <polygon id="Fill-20" points="10.5365854 14.3 12.2925501 12.35 15.804878 16.25 14.0485149 18.2"></polygon>
            </g>
        </g>
    </g>
</svg>