<?xml version="1.0" encoding="UTF-8"?>
<svg width="72px" height="71px" viewBox="0 0 72 71" version="1.1" xmlns="http://www.w3.org/2000/svg" xmlns:xlink="http://www.w3.org/1999/xlink">
    <!-- Generator: Sketch 61.2 (89653) - https://sketch.com -->
    <title>money-dark</title>
    <desc>Created with Sketch.</desc>
    <g id="Welcome" stroke="none" stroke-width="1" fill="none" fill-rule="evenodd">
        <g id="How-it-works" transform="translate(-922.000000, -198.000000)" fill="#494562" fill-rule="nonzero">
            <g id="money-dark" transform="translate(922.000000, 198.000000)">
                <path d="M11.1230104,28.0118837 C7.23267253,28.4915393 -1.09743321,30.7716082 0.120411688,36.0978312 C1.00696544,39.9748578 8.60916388,40.049875 11.6199471,39.9896339 C16.0877114,39.898704 20.6592958,38.0528256 20.990587,33.2051216 C21.28105,28.9621018 14.7753785,28.0130203 11.7074359,28.0130203 C10.0148182,28.0130203 10.0148182,30.5704257 11.7074359,30.5704257 C13.6228587,30.5704257 17.5306943,30.7954774 18.3274262,32.9209654 C19.6187617,36.3660746 13.6636868,37.3185661 11.6211136,37.4322285 C9.34990287,37.5583939 7.04019704,37.2878772 4.86230775,36.6661435 C2.25164025,35.9205178 3.03087434,33.8825498 4.9427975,32.5481525 C6.69490769,31.3262811 9.02677736,30.8284395 11.1241769,30.5704257 C12.7782996,30.3646966 12.7992969,27.805018 11.1230104,28.0118837 L11.1230104,28.0118837 Z" id="Path"></path>
                <path d="M0.316823392,44.5319816 C3.29623344,48.1510583 8.09283932,48.4158969 12.4473617,47.6501679 C15.125457,47.1792159 20.5619205,45.6523639 21.8579232,42.9740398 C22.5838708,41.4748232 20.3280816,40.1598421 19.5986439,41.6659676 C18.6481643,43.628076 14.3157461,44.4651962 12.3984998,44.9983277 C8.88277271,45.977079 4.58409245,45.6339403 2.16775716,42.698838 C1.09977652,41.4045834 -0.740686853,43.2492417 0.316823392,44.5319816 L0.316823392,44.5319816 Z" id="Path"></path>
                <path d="M0.246404633,53.4120019 C4.39268862,58.7129338 16.2571124,57.7366455 20.6551519,53.1179262 C21.7756415,51.9405419 19.9034311,50.2128468 18.774668,51.3977992 C15.6224047,54.7083138 5.66683176,56.1786926 2.54293536,52.1848843 C1.5536424,50.9199261 -0.754707834,52.1329886 0.246404633,53.4120019 L0.246404633,53.4120019 Z" id="Path"></path>
                <path d="M0.609608299,61.6330168 C4.3541331,63.9491911 7.89212816,64.5469496 12.2386402,63.5078554 C14.3602638,63.0005987 18.8558057,62.079939 19.8708524,59.9246566 C20.5620229,58.4587517 18.2866755,57.1783196 17.5919846,58.6553975 C16.9254569,60.0699063 12.9837901,60.7000666 11.5369085,61.0821851 C7.90386281,62.0441852 5.03826282,61.3760365 1.94266382,59.4609748 C0.509863828,58.5771861 -0.81145705,60.7548146 0.609608299,61.6330168 L0.609608299,61.6330168 Z" id="Path"></path>
                <path d="M35.330351,14.000341 C31.1243768,14.0863479 25.2947387,16.8282475 26.0700121,21.6549542 C26.9195632,26.9541254 33.8900602,28.2969796 38.1842392,27.948365 C42.2904027,27.6146583 48.4484875,24.4324034 46.6925164,19.4875806 C45.0003778,14.7193586 37.7408942,13.492327 33.5337594,14.4773925 C31.8950079,14.8604099 32.5902006,17.3488759 34.2277916,16.9658586 C37.450747,16.2112914 40.4833658,16.9704456 43.077282,18.9807133 C47.6476811,22.5230504 39.9611008,25.2236668 37.3149581,25.4392574 C34.4622305,25.6720493 32.0934686,25.0780284 29.9695909,23.1308324 C26.1373263,19.6171643 32.072578,16.6482064 35.3315116,16.5816944 C37.0120444,16.5461449 37.0155261,13.9659382 35.330351,14.000341 L35.330351,14.000341 Z" id="Path"></path>
                <path d="M27.3176643,32.7510178 C31.3188855,37.6276563 40.5241836,36.6292166 44.6238511,32.3107336 C45.0074524,31.9062731 45.1387142,31.2267794 44.8230069,30.7356487 C44.7935862,30.6894247 44.7641655,30.6432006 44.7347447,30.5981322 C43.8385436,29.2021655 41.6331194,30.5033728 42.5372415,31.9108955 C42.5666622,31.9571196 42.596083,32.0033436 42.6255037,32.0484121 C42.6922662,31.5226134 42.757897,30.9979703 42.8246595,30.4733272 C39.6234563,33.8442169 32.229797,34.7039844 29.1191191,30.9136114 C28.0611039,29.6262713 26.2698332,31.4752337 27.3176643,32.7510178 L27.3176643,32.7510178 Z" id="Path"></path>
                <path d="M26.5935732,40.4546227 C31.5753311,44.1108956 38.6659312,43.7709287 43.4439362,39.803345 C44.7626702,38.7091985 43.4926105,36.1653078 42.1580292,37.2737824 C38.072784,40.6656367 32.1616866,41.0681263 27.8794802,37.9250601 C26.4894328,36.9051593 25.2137134,39.4425372 26.5935732,40.4546227 L26.5935732,40.4546227 Z" id="Path"></path>
                <path d="M26.3126475,46.4979032 C29.6969365,51.0842054 40.2176608,51.1957264 43.6766531,46.6563138 C44.7360827,45.2661028 42.9432019,43.2397151 41.8758492,44.6400643 C39.281605,48.0452574 30.6375198,47.9033216 28.1134514,44.4816538 C27.0664724,43.0635626 25.2747234,45.0924849 26.3126475,46.4979032 L26.3126475,46.4979032 Z" id="Path"></path>
                <path d="M27.3906145,54.1828674 C31.3957246,58.0445294 40.1468732,57.7189159 44.4490375,54.526761 C45.7613115,53.553348 44.4865961,51.320896 43.1561119,52.3080191 C39.800879,54.7975343 32.4018393,55.4533314 29.2002551,52.3662868 C28.0109001,51.2180707 26.196707,53.0335089 27.3906145,54.1828674 L27.3906145,54.1828674 Z" id="Path"></path>
                <path d="M26.4343403,60.8939154 C30.9393738,65.026609 40.418618,65.1980226 44.6307076,60.4247177 C45.7943134,59.1072104 43.9397802,57.1128073 42.7738401,58.4340681 C39.6109798,62.0174876 31.7201685,62.0487674 28.2912077,58.9032658 C27.0120583,57.7308971 25.145854,59.7127883 26.4343403,60.8939154 L26.4343403,60.8939154 Z" id="Path"></path>
                <path d="M0.447474426,67.0801568 C6.51479814,71.7722673 13.733822,70.0307852 20.3154635,67.275754 C21.8560947,66.6311723 20.5244413,64.4773803 18.996581,65.1175166 C13.6722897,67.345769 7.31123597,69.192829 2.29344548,65.3131138 C0.996621789,64.3095668 -0.863281119,66.0666076 0.447474426,67.0801568 L0.447474426,67.0801568 Z" id="Path"></path>
                <path d="M26.2285388,67.0980079 C29.5416051,72.4677073 39.7738434,71.9831558 43.6293195,67.5493184 C44.7888353,66.2171215 42.9616499,64.1804713 41.800985,65.5152251 C39.1946601,68.5133072 30.7804139,69.4044216 28.4613823,65.6469106 C27.523657,64.1267743 25.28162,65.5638081 26.2285388,67.0980079 L26.2285388,67.0980079 Z" id="Path"></path>
                <path d="M60.8937969,0.42280658 C58.2604578,0.975452645 55.7012144,0.777311723 53.4089509,2.42331372 C51.9046897,3.50353983 50.5109841,6.23692965 51.1660845,8.14433443 C52.6774024,12.5380497 58.3133833,13.0286275 62.2322248,12.998787 C66.7473606,12.964172 71.5412375,11.2632635 71.9822835,6.11159955 C72.417449,1.03871451 64.7244292,-0.73977931 61.1878277,0.272410459 C59.5471362,0.742696743 60.2457532,3.33285216 61.8911491,2.86256588 C64.7467755,2.04493617 70.6520886,3.59664219 68.9361253,7.67882262 C67.7811726,10.4265359 63.1778276,10.3573059 60.7785369,10.3023994 C58.5533124,10.2522674 55.9764271,9.87747068 54.2416459,8.34128173 C51.8999852,6.26915739 55.9705465,3.89146633 57.5912439,3.55247825 C58.9085015,3.27675202 60.2751563,3.28868822 61.5971184,3.01176838 C63.268389,2.66203772 62.5591869,0.0730759173 60.8937969,0.42280658 L60.8937969,0.42280658 Z" id="Path"></path>
                <path d="M52.1497769,18.8788661 C55.1302487,24.5775081 66.4834932,23.8559661 70.6243189,19.8170907 C71.7950537,18.6753825 69.9610947,16.9243232 68.7892064,18.0671313 C65.7741316,21.008295 56.5824213,21.8200297 54.3908979,17.6304664 C53.6434731,16.2016813 51.4046589,17.4544806 52.1497769,18.8788661 L52.1497769,18.8788661 Z" id="Path"></path>
                <path d="M52.2592876,26.2906529 C55.9239152,31.2929197 67.3044649,31.2783959 70.7705338,25.9880721 C71.7238479,24.5332633 69.4584206,23.1728597 68.515557,24.6131446 C66.2721918,28.0359393 56.910903,28.1860194 54.5142644,24.9157255 C53.5075369,23.5395877 51.2351427,24.8939397 52.2592876,26.2906529 L52.2592876,26.2906529 Z" id="Path"></path>
                <path d="M52.9043948,33.7711123 C58.1558236,35.7980424 66.4302365,38.0519362 70.660781,32.5706974 C71.7645027,31.1406949 69.9164105,29.0442326 68.8045217,30.4834186 C65.2821792,35.0463071 57.9224786,32.5916882 53.6009296,30.9229147 C51.9966829,30.3049962 51.3129821,33.1571296 52.9043948,33.7711123 L52.9043948,33.7711123 Z" id="Path"></path>
                <path d="M52.2376009,38.9862153 C56.0614981,44.654737 65.3862957,43.6044717 70.390219,40.2329505 C71.8128453,39.2736436 70.4879657,36.9111531 69.0523849,37.8777367 C65.4110267,40.3299727 57.4523273,41.9478178 54.5246377,37.6085002 C53.5577699,36.1749972 51.2589565,37.5369463 52.2376009,38.9862153 L52.2376009,38.9862153 Z" id="Path"></path>
                <path d="M52.2954887,46.4141619 C56.2679924,51.8364757 65.4893018,50.2634329 70.3750908,47.2365726 C71.8122227,46.3460333 70.5129452,43.9797779 69.0700693,44.8739669 C65.1090534,47.3278163 57.3581908,48.8959928 54.1220592,44.4797938 C53.1019368,43.0855888 51.2868541,45.0382057 52.2954887,46.4141619 L52.2954887,46.4141619 Z" id="Path"></path>
                <path d="M52.0723871,52.8182735 C53.75612,58.662259 66.8084812,57.7402197 69.6646503,53.9701621 C70.7524424,52.5342642 68.9394556,50.423349 67.8448004,51.8684937 C66.537391,53.5936848 55.5267847,55.4047391 54.5533767,52.0296525 C54.0329293,50.2199192 51.5473645,50.9940095 52.0723871,52.8182735 L52.0723871,52.8182735 Z" id="Path"></path>
                <path d="M51.6444316,59.4146858 C56.7539942,62.0189295 63.7866428,63.5772735 68.5713976,59.5010659 C69.8303078,58.4283182 68.0360247,56.5816515 66.7894348,57.6438934 C63.0115842,60.8621364 56.8581567,59.1555454 52.9156621,57.1466241 C51.4629873,56.4065566 50.1850366,58.6711164 51.6444316,59.4146858 L51.6444316,59.4146858 Z" id="Path"></path>
                <path d="M51.1571416,67.0437027 C52.3998882,69.3995274 55.6368367,69.6570193 58.0410288,69.9054763 C62.200165,70.3346294 65.7030845,69.2707815 69.3500232,67.3576621 C70.8331891,66.5795397 69.513787,64.3863414 68.0306212,65.1644638 C65.2477978,66.6235844 62.5741504,67.6648453 59.3627537,67.4660797 C57.7506674,67.3655675 54.2883985,67.4231644 53.4126686,65.7618901 C52.6437917,64.3027695 50.3894261,65.5879701 51.1571416,67.0437027 L51.1571416,67.0437027 Z" id="Path"></path>
                <path d="M0.551554599,35.2633419 C0.262937332,45.059791 1.02354148,55.0863346 0.00904093946,64.7514671 C-0.166733486,66.4248819 2.27674804,66.4074505 2.45035241,64.7514671 C3.467023,55.0619307 2.7042488,45.0807087 2.99286607,35.2633419 C3.04277732,33.575982 0.600380828,33.5817925 0.551554599,35.2633419 L0.551554599,35.2633419 Z" id="Path"></path>
                <path d="M19.0112637,35.2295434 C19.6257042,40.268663 19.6621155,45.2217711 19.2957269,50.2815334 C18.9225112,55.4330411 19.5028161,60.6740007 19.0112637,65.7635802 C18.8508265,67.4195858 21.413271,67.4046772 21.5714326,65.7635802 C21.9924381,61.3987898 21.4895072,56.8688576 21.6897692,52.4559009 C21.9526132,46.6243299 22.2825906,41.0565271 21.5714326,35.2295434 C21.3734462,33.5999146 18.8098638,33.5804187 19.0112637,35.2295434 L19.0112637,35.2295434 Z" id="Path"></path>
                <path d="M27.2113874,64.758746 C26.6038239,57.7612825 26.4445473,50.8647825 27.0816539,43.867319 C27.4592938,39.7094558 27.189551,35.4919323 27.1908355,31.3260379 C27.19212,28.5460979 26.3058224,22.4825474 27.8163818,19.9481324 C28.6924035,18.4795715 26.1966408,17.1750763 25.3219036,18.6447846 C24.0900784,20.7110957 24.619288,22.7533133 24.6424088,25.0330247 C24.6937884,29.8884544 24.3431228,34.805839 24.3418383,39.6784784 C24.3392693,48.112378 23.5878431,56.3019 24.3212865,64.758746 C24.4638648,66.4074351 27.3552502,66.4200556 27.2113874,64.758746 L27.2113874,64.758746 Z" id="Path"></path>
                <path d="M44.6769863,21.937056 C43.7552685,28.4784841 44.53134,35.717787 44.4888155,42.3544842 C44.4633008,46.4579419 44.5961898,50.5786169 44.427155,54.6774834 C44.2825719,58.1955527 45.0480122,63.1082238 43.2035135,66.1063305 C42.3466455,67.4974887 44.4197133,68.7899344 45.2680764,67.4102544 C46.3322511,65.681637 46.7351704,64.4155911 46.7075295,62.3690275 C46.6426797,57.7341289 46.9562977,53.1187433 46.8425447,48.4804013 C46.7436753,44.464178 46.8606176,40.4123722 46.978623,36.3984444 C47.1125751,31.8657019 46.3524502,27.1068388 46.9839386,22.6234525 C47.2135707,20.9946955 44.9087446,20.2945251 44.6769863,21.937056 L44.6769863,21.937056 Z" id="Path"></path>
                <path d="M51.0883993,8.26629736 C50.8218288,16.5574303 51.218942,24.8299263 51.4767365,33.1152352 C51.711494,40.6655477 51.2781799,48.185575 51.3626487,55.732393 C51.3812977,57.4213706 53.8495425,57.4237003 53.8308936,55.732393 C53.7464247,48.185575 54.1402469,40.6655477 53.9449813,33.1152352 C53.7310668,24.8252671 53.2900737,16.5620896 53.5566441,8.26629736 C53.611494,6.5749901 51.1421522,6.58081416 51.0883993,8.26629736 L51.0883993,8.26629736 Z" id="Path"></path>
                <path d="M50.3264509,56.2612582 C50.2349414,59.7915629 49.2552519,63.0320231 51.2065565,66.3397273 C52.0906994,67.8388025 54.7041018,66.5194308 53.819959,65.0226744 C52.1943204,62.2656746 53.2776308,59.1956428 53.3543373,56.2612582 C53.3974006,54.577842 50.3695141,54.5813201 50.3264509,56.2612582 L50.3264509,56.2612582 Z" id="Path"></path>
                <path d="M69.0009288,6.25411707 C68.9667491,26.1229271 69.8918803,45.8764954 69.1433443,65.7476102 C69.0806815,67.4209187 71.6441609,67.4140042 71.7068238,65.7476102 C72.4553597,45.8764954 71.5302285,26.1229271 71.5644082,6.25411707 C71.5666869,4.58196098 69.0032075,4.58196098 69.0009288,6.25411707 L69.0009288,6.25411707 Z" id="Path"></path>
            </g>
        </g>
    </g>
</svg>