<?xml version="1.0" encoding="UTF-8"?>
<svg width="48px" height="40px" viewBox="0 0 48 40" version="1.1" xmlns="http://www.w3.org/2000/svg" xmlns:xlink="http://www.w3.org/1999/xlink">
    <!-- Generator: Sketch 61.2 (89653) - https://sketch.com -->
    <title>Path</title>
    <desc>Created with Sketch.</desc>
    <g id="Welcome" stroke="none" stroke-width="1" fill="none" fill-rule="evenodd">
        <g id="Thankyou" transform="translate(-217.000000, -320.000000)" fill="#803D85">
            <path d="M232.09375,359.5 C237.84375,359.5 242.9375,358.03125 247.375,355.09375 C251.4375,352.46875 254.59375,348.9375 256.84375,344.5 C259.03125,340.3125 260.125,335.96875 260.125,331.46875 C260.125,330.90625 260.09375,330.5 260.03125,330.25 C261.96875,328.8125 263.625,327.09375 265,325.09375 C263.125,325.90625 261.25,326.4375 259.375,326.6875 C261.5,325.375 262.9375,323.5625 263.6875,321.25 C261.75,322.375 259.65625,323.15625 257.40625,323.59375 C256.46875,322.65625 255.390625,321.90625 254.171875,321.34375 C252.953125,320.78125 251.625,320.5 250.1875,320.5 C248.4375,320.5 246.8125,320.9375 245.3125,321.8125 C243.8125,322.6875 242.625,323.890625 241.75,325.421875 C240.875,326.953125 240.4375,328.59375 240.4375,330.34375 C240.4375,331.09375 240.5,331.84375 240.625,332.59375 C236.625,332.40625 232.859375,331.40625 229.328125,329.59375 C225.796875,327.78125 222.8125,325.34375 220.375,322.28125 C219.4375,323.84375 218.96875,325.484375 218.96875,327.203125 C218.96875,328.921875 219.375,330.5 220.1875,331.9375 C221,333.375 222.0625,334.5625 223.375,335.5 C221.8125,335.4375 220.34375,335 218.96875,334.1875 L218.96875,334.1875 L218.96875,334.375 C218.96875,336.6875 219.71875,338.75 221.21875,340.5625 C222.71875,342.375 224.59375,343.53125 226.84375,344.03125 C225.96875,344.21875 225.09375,344.3125 224.21875,344.3125 C223.65625,344.3125 223.0625,344.28125 222.4375,344.21875 C223.0625,346.15625 224.203125,347.765625 225.859375,349.046875 C227.515625,350.328125 229.4375,350.96875 231.625,350.96875 C228,353.78125 223.90625,355.1875 219.34375,355.1875 C218.46875,355.1875 217.6875,355.15625 217,355.09375 C221.5625,358.03125 226.59375,359.5 232.09375,359.5 Z" id="Path"></path>
        </g>
    </g>
</svg>