<?xml version="1.0" encoding="UTF-8"?>
<svg width="69px" height="141px" viewBox="0 0 69 141" version="1.1" xmlns="http://www.w3.org/2000/svg" xmlns:xlink="http://www.w3.org/1999/xlink">
    <!-- Generator: Sketch 61.2 (89653) - https://sketch.com -->
    <title>plastic-dark</title>
    <desc>Created with Sketch.</desc>
    <g id="Welcome" stroke="none" stroke-width="1" fill="none" fill-rule="evenodd">
        <g id="Home-Page" transform="translate(-1073.000000, -2195.000000)" fill="#494562" fill-rule="nonzero">
            <g id="plastic-dark" transform="translate(1073.000000, 2195.000000)">
                <path d="M45.4971261,0.145811789 C47.535228,0.291623578 47.9719642,0.729058945 48.2631216,1.89555326 C48.2631216,2.18717684 48.2631216,2.33298862 48.1175429,2.47880041 C47.2440706,3.35367115 47.535228,4.52016546 47.6808067,5.54084798 C47.8263854,6.41571872 47.2440706,6.99896587 46.6617558,6.99896587 C43.8957603,6.85315408 41.4209222,7.72802482 38.8005054,8.16546019 C36.3256674,8.45708376 33.996408,8.89451913 31.52157,9.47776629 C29.483468,9.91520165 27.7365235,11.2275078 26.1351577,12.2481903 C25.4072642,12.6856256 24.3882132,12.8314374 23.8058983,13.85212 C23.3691622,14.7269907 23.8058983,15.6018614 23.2235835,16.3309204 C22.49569,17.3516029 22.6412687,18.5180972 22.6412687,19.6845915 C22.3501112,22.4550155 21.7677964,25.0796277 21.3310603,27.8500517 C20.8943242,30.3288521 20.3120093,32.8076525 20.1664306,35.2864529 C20.1664306,35.8697001 20.1664306,36.1613237 20.8943242,36.1613237 C24.8249493,36.3071355 28.7555745,34.9948294 32.6861996,34.9948294 C35.3066164,34.9948294 37.9270332,34.7032058 40.54745,34.7032058 C43.4590242,34.7032058 46.3705983,34.9948294 49.2821725,35.1406412 C52.048168,35.2864529 54.8141635,36.0155119 57.4345803,36.598759 C58.59921,36.8903826 59.9094183,37.1820062 61.2196267,37.1820062 C63.6944648,37.0361944 65.1502519,38.6401241 66.606039,40.3898656 C66.7516177,40.5356774 66.8971964,40.9731127 67.0427751,40.9731127 C69.0808771,42.139607 68.9352984,44.0351603 68.9352984,45.9307135 C68.9352984,47.2430196 69.0808771,48.5553257 68.9352984,49.8676319 C68.9352984,50.3050672 68.7897196,50.7425026 68.3529835,50.8883144 C66.0237242,51.4715615 65.4414093,53.221303 65.2958306,55.262668 C65.0046732,58.6163392 64.1312009,61.9700103 63.8400435,65.3236815 C63.2577287,70.1354705 62.6754138,74.9472596 62.093099,79.9048604 C61.6563629,83.8417787 61.3652054,87.778697 61.074048,91.7156153 C60.7828906,94.6318511 60.3461545,97.4022751 60.2005758,100.318511 C59.9094183,104.255429 59.4726822,108.192347 58.8903674,111.983454 C58.4536313,114.753878 57.8713164,117.670114 57.4345803,120.440538 C57.1434229,122.773526 56.7066867,125.106515 56.9978442,127.439504 C57.1434229,128.460186 56.561108,129.335057 57.1434229,130.355739 C57.2890016,130.501551 56.9978442,131.23061 56.561108,131.23061 C54.8141635,131.668046 54.5230061,133.563599 53.3583764,134.438469 C52.048168,135.459152 50.8835383,136.771458 49.2821725,137.646329 C48.2631216,138.229576 46.9529132,138.375388 45.9338622,138.958635 C43.7501816,139.979317 41.7120796,139.979317 39.6739777,140.270941 C36.9079822,140.708376 34.1419867,140.708376 31.3759912,141 C30.6480977,141 29.9202042,140.854188 29.1923106,140.708376 C27.5909448,140.270941 25.989579,140.708376 24.3882132,140.416753 C20.8943242,139.833506 17.5460138,139.39607 14.1977035,138.375388 C12.7419164,137.937952 11.2861293,137.208893 9.97592092,136.479835 C9.39360608,136.188211 8.66571254,136.188211 8.0833977,136.042399 C7.20992544,136.042399 6.77318931,135.459152 6.6276106,134.584281 C6.19087447,131.376422 5.46298092,128.168563 5.31740221,124.814891 C5.1718235,122.190279 4.88066608,119.565667 4.88066608,117.086867 C4.88066608,115.191313 4.44392995,113.29576 4.29835125,111.254395 C4.15277254,108.775595 4.00719383,106.442606 3.86161512,103.963806 C3.71603641,100.610134 3.42487899,97.4022751 3.27930028,94.0486039 C3.13372157,90.9865564 2.98814286,87.778697 2.84256415,84.7166494 C2.69698544,82.3836608 2.84256415,79.9048604 2.55140673,77.5718718 C2.40582802,75.5305067 2.40582802,73.6349535 2.40582802,71.5935884 C2.26024931,69.2605998 2.55140673,66.7817994 2.1146706,64.4488108 C1.96909189,64.0113754 2.1146706,63.57394 2.1146706,63.1365047 C2.26024931,60.9493278 2.26024931,58.762151 2.1146706,56.5749741 C2.1146706,55.4084798 2.40582802,54.0961737 2.40582802,52.7838676 C2.40582802,52.3464323 2.40582802,52.0548087 2.1146706,51.9089969 C0.367726083,51.4715615 0.367726083,49.8676319 0.0765686638,48.409514 C-0.214588756,46.3681489 0.367726083,44.3267839 1.09561963,42.5770424 C1.67793447,41.1189245 3.13372157,40.098242 4.73508737,39.5149948 C6.19087447,38.9317477 7.79224028,38.4943123 9.24802737,38.0568769 C9.83034221,37.9110651 10.4126571,38.0568769 10.8493932,38.2026887 C11.8684441,38.6401241 12.0140229,37.9110651 12.0140229,37.4736298 C12.0140229,35.4322647 12.7419164,33.3908997 12.7419164,31.3495346 C12.8874951,28.2874871 14.0521248,25.3712513 14.4888609,22.3092037 C14.7800183,19.8304033 15.7990693,17.6432265 15.944648,15.1644261 C15.944648,14.2895553 16.5269629,13.7063082 16.963699,13.123061 C17.2548564,12.6856256 17.4004351,12.6856256 17.1092777,12.1023785 C16.8181203,11.6649431 16.5269629,11.081696 17.4004351,10.6442606 C17.5460138,10.6442606 17.6915925,10.352637 17.5460138,10.2068252 C17.4004351,9.18614271 18.1283287,8.74870734 18.8562222,8.60289555 C19.7296945,8.45708376 20.3120093,8.0196484 20.7487454,7.29058945 C21.7677964,5.54084798 23.6603196,4.81178904 25.4072642,4.22854188 C28.9011532,3.20785936 32.3950422,2.47880041 36.03451,1.89555326 C38.3637693,1.60392968 40.6930287,0.874870734 42.8767093,0 C43.8957603,0 44.7692325,0.145811789 45.4971261,0.145811789 Z M5.02624479,53.0754912 C4.88066608,56.1375388 4.88066608,59.1995863 4.73508737,62.1158221 C4.58950866,65.4694933 5.02624479,68.8231644 5.02624479,72.1768356 C5.02624479,76.2595657 5.31740221,80.3422958 5.60855963,84.4250259 C5.75413834,87.3412616 5.89971705,90.2574974 6.04529576,93.319545 C6.04529576,95.36091 6.48203189,97.2564633 6.48203189,99.2978283 C6.48203189,102.797311 6.77318931,106.296794 6.91876802,109.796277 C6.91876802,112.129266 7.35550415,114.462254 7.50108286,116.941055 C7.64666157,120.440538 8.0833977,123.940021 8.52013383,127.439504 C8.81129125,129.189245 8.66571254,131.23061 9.97592092,132.83454 C10.1214996,132.980352 10.1214996,133.126163 9.97592092,133.126163 C9.10244867,133.417787 9.53918479,133.563599 9.97592092,133.855222 C13.0330738,135.896587 16.5269629,136.771458 20.1664306,137.500517 C22.2045325,137.792141 24.3882132,137.937952 26.4263151,138.229576 C29.6290467,138.667011 32.8317783,138.5212 35.8889312,138.083764 C38.509348,137.792141 41.1297648,137.500517 43.7501816,136.479835 C47.0984919,135.167528 50.0100661,133.563599 51.9025893,130.355739 C52.048168,130.064116 52.3393254,129.480869 52.7760616,129.480869 C53.9406913,129.480869 53.6495338,128.460186 53.6495338,128.022751 C53.2127977,125.689762 53.9406913,123.502585 54.08627,121.169597 C54.2318487,119.857291 54.2318487,118.690796 54.5230061,117.37849 C55.5420571,113.441572 55.6876358,109.358842 56.4155293,105.421923 C56.8522654,103.088935 56.8522654,100.901758 57.1434229,98.5687694 C57.8713164,93.4653568 58.1624738,88.3619442 58.59921,83.2585315 C58.8903674,80.0506722 59.1815248,76.8428128 59.4726822,73.6349535 C60.0549971,69.5522234 60.3461545,65.3236815 61.2196267,61.2409514 C61.8019416,58.4705274 62.3842564,55.8459152 62.3842564,53.0754912 C61.5107842,53.0754912 60.7828906,53.6587384 60.0549971,53.8045502 C56.4155293,54.5336091 52.7760616,55.1168563 49.1365938,55.7001034 C46.3705983,56.1375388 43.4590242,56.2833506 40.6930287,56.1375388 C38.2181906,56.1375388 35.7433525,55.8459152 33.2685145,55.8459152 C30.2113616,55.8459152 27.2997874,55.7001034 24.2426345,55.5542916 C21.6222177,55.4084798 19.0018009,55.1168563 16.3813842,54.9710445 C12.5963377,54.8252327 8.81129125,54.0961737 5.02624479,53.0754912 Z M23.8058983,46.9513961 C26.4263151,46.9513961 29.1923106,47.0972079 31.8127274,47.0972079 C35.015459,47.0972079 38.2181906,46.8055843 41.4209222,46.5139607 C45.7882835,46.2223371 50.1556448,45.9307135 54.3774274,45.2016546 C57.1434229,44.7642192 59.6182609,44.0351603 62.093099,42.7228542 C63.11215,42.139607 63.2577287,41.4105481 62.2386777,40.6814891 C61.3652054,39.9524302 60.4917332,39.8066184 59.4726822,39.5149948 C55.8332145,38.4943123 52.048168,37.7652534 48.2631216,37.4736298 C45.9338622,37.327818 43.6046029,37.1820062 41.2753435,37.1820062 C37.9270332,37.327818 34.5787229,37.0361944 31.2304125,37.7652534 C28.7555745,38.2026887 26.4263151,38.4943123 23.9514771,38.7859359 C22.6412687,38.9317477 21.1854816,39.5149948 19.7296945,39.0775595 C19.2929583,38.9317477 19.2929583,39.369183 19.1473796,39.6608066 C18.8562222,40.8273009 18.4194861,41.9937952 18.2739074,43.1602896 C18.1283287,43.8893485 17.98275,44.1809721 17.4004351,44.4725957 C14.9255971,45.63909 12.0140229,44.4725957 11.431708,41.7021717 C11.2861293,41.2647363 11.1405506,40.9731127 10.7038145,40.9731127 C8.37455512,41.2647363 6.04529576,41.8479835 4.15277254,43.5977249 C3.27930028,44.3267839 3.42487899,45.0558428 4.58950866,45.2016546 C7.50108286,45.7849018 10.5582358,46.3681489 13.46981,46.5139607 C16.963699,46.6597725 20.3120093,47.0972079 23.8058983,46.9513961 Z M23.5147409,52.9296794 C26.1351577,53.3671148 28.7555745,53.3671148 31.3759912,53.5129266 C33.996408,53.5129266 36.6168248,53.8045502 39.0916629,53.6587384 C41.2753435,53.5129266 43.4590242,53.8045502 45.6427048,53.5129266 C48.4087003,53.221303 51.1746958,52.4922441 53.9406913,52.2006205 C57.1434229,51.9089969 60.0549971,50.8883144 62.9665713,49.7218201 C63.2577287,49.5760083 63.5488861,49.5760083 63.6944648,49.1385729 C63.9856222,47.9720786 64.4223584,46.8055843 64.4223584,45.63909 C64.4223584,45.2016546 64.2767796,44.7642192 63.5488861,45.0558428 C62.9665713,45.3474664 62.3842564,45.63909 61.8019416,45.7849018 C58.1624738,46.9513961 54.5230061,47.5346432 50.7379596,47.9720786 C46.3705983,48.5553257 42.0032371,48.7011375 37.7814545,49.1385729 C33.8508293,49.5760083 29.7746254,49.5760083 25.8440003,49.4301965 C21.0399029,49.2843847 16.0902267,49.1385729 11.2861293,48.5553257 C10.1214996,48.409514 8.95686996,47.5346432 7.64666157,47.8262668 C6.6276106,48.1178904 5.89971705,47.680455 5.02624479,47.3888314 C4.44392995,47.2430196 3.86161512,47.0972079 3.27930028,46.8055843 C2.98814286,46.6597725 2.84256415,46.8055843 2.69698544,46.9513961 C2.26024931,47.680455 2.98814286,49.5760083 3.86161512,50.0134436 C4.73508737,50.3050672 5.46298092,50.3050672 6.33645318,50.5966908 C7.93781899,50.8883144 9.24802737,51.6173733 10.8493932,51.9089969 C12.3051803,52.2006205 13.7609674,52.2006205 15.2167545,52.2006205 C17.98275,52.4922441 20.7487454,52.7838676 23.5147409,52.9296794 Z M19.7296945,13.85212 C19.7296945,14.4353671 19.8752732,14.8728025 19.5841158,15.0186143 C18.5650648,15.893485 18.5650648,17.0599793 18.2739074,18.2264736 C17.4004351,22.1633919 16.5269629,25.9544984 15.7990693,29.8914168 C15.2167545,33.3908997 15.0711758,37.0361944 14.3432822,40.5356774 C14.3432822,40.8273009 14.1977035,41.2647363 14.3432822,41.5563599 C14.3432822,41.8479835 14.3432822,42.2854188 14.7800183,42.2854188 C15.2167545,42.2854188 15.7990693,42.2854188 15.944648,41.7021717 C16.0902267,40.8273009 16.5269629,40.098242 16.6725416,39.2233713 C16.963699,36.8903826 17.6915925,34.7032058 17.8371712,32.516029 C17.98275,30.7662875 18.4194861,29.1623578 18.7106435,27.4126163 C19.0018009,25.5170631 19.5841158,23.7673216 19.7296945,21.8717684 C19.7296945,20.4136505 19.8752732,18.8097208 20.1664306,17.3516029 C20.1664306,16.3309204 20.8943242,15.0186143 19.7296945,13.85212 Z M20.457588,13.123061 C20.7487454,12.2481903 21.3310603,11.6649431 22.2045325,11.5191313 C22.3501112,11.5191313 22.3501112,11.2275078 22.3501112,11.081696 C22.3501112,10.7900724 22.6412687,10.4984488 22.7868474,10.4984488 C23.9514771,10.7900724 24.5337919,9.91520165 25.1161067,9.3319545 C27.4453661,7.58221303 30.3569403,6.99896587 32.9773571,6.56153051 C36.7624035,5.97828335 40.4018713,5.24922441 44.1869177,4.66597725 C45.2059687,4.52016546 44.6236538,3.64529473 44.7692325,3.20785936 C44.9148113,2.6246122 44.1869177,2.91623578 44.041339,2.91623578 C43.3134454,2.91623578 42.5855519,3.20785936 41.8576583,3.35367115 C39.6739777,3.9369183 37.4902971,4.52016546 35.1610377,4.81178904 C31.3759912,5.24922441 27.7365235,5.97828335 24.3882132,7.58221303 C23.0780048,8.16546019 22.3501112,9.3319545 21.476639,10.352637 C21.1854816,10.6442606 21.3310603,11.5191313 20.6031667,11.9565667 C20.1664306,11.8107549 21.0399029,12.6856256 20.457588,13.123061 Z" id="Shape"></path>
            </g>
        </g>
    </g>
</svg>