<?xml version="1.0" encoding="UTF-8"?>
<svg width="72px" height="123px" viewBox="0 0 72 123" version="1.1" xmlns="http://www.w3.org/2000/svg" xmlns:xlink="http://www.w3.org/1999/xlink">
    <!-- Generator: Sketch 61.2 (89653) - https://sketch.com -->
    <title>renewable</title>
    <desc>Created with Sketch.</desc>
    <g id="Welcome" stroke="none" stroke-width="1" fill="none" fill-rule="evenodd">
        <g id="Home-Page" transform="translate(-547.000000, -2219.000000)" fill="#494562" fill-rule="nonzero">
            <g id="renewable" transform="translate(547.000000, 2219.000000)">
                <path d="M11.6026793,41.3897761 C11.0427966,40.4973984 10.217268,39.8062438 9.24411379,39.4151218 C6.77846194,37.7721091 4.62813966,35.6931169 2.89704216,33.2785941 C-1.52447098,27.9107794 -0.804461237,19.9502767 4.50720866,15.4764255 C10.9313189,9.70376647 17.9816402,4.95527832 26.5173097,3.00635065 C29.9736323,2.21719679 33.42734,1.44358807 36.8215552,0.422442023 C38.3741951,0.132187201 39.9569916,0.0406559167 41.5323889,0.150019991 C47.4224124,-0.108322536 53.2947352,-0.257272151 59.0254209,1.67363126 C63.4875309,3.17705099 67.6380671,5.0965723 70.7219773,8.83133616 C73.1235569,11.7397282 72.0474307,14.786904 68.2748151,15.8004256 C68.2128977,15.721379 68.1723384,15.6275281 68.1570834,15.5280036 C70.1214045,11.9432496 70.1200584,11.7465731 67.1814678,8.86687015 C63.7957454,5.62906224 59.4551224,3.59136377 54.8170941,3.06243479 C46.698181,1.73407075 38.390654,2.18213067 30.4588252,4.37617881 C25.1091548,5.98682418 19.6714601,7.21616914 14.8457881,10.2168186 C11.1446455,12.4648192 7.67160798,15.0737825 4.47671196,18.006121 C3.16068778,19.2473555 2.33431524,20.9261699 2.14994285,22.7330611 C1.43061704,27.9863221 3.50535135,32.0178002 7.32033114,35.3514307 C7.55780614,35.5589748 7.85336565,35.6991306 8.09011342,35.9073918 C9.68144965,37.3071409 11.2730334,39.0513311 13.2842987,39.3982201 C15.4212178,39.7667819 16.79295,37.4647128 18.5395238,36.4232817 C20.1337838,35.3924461 21.871369,34.6063703 23.6952131,34.0908708 C28.8934367,32.835269 34.0568004,31.3354198 39.5009472,31.4254943 C46.5985214,31.4139985 53.5040977,33.747759 59.1596466,38.0692116 C60.1117903,38.8942309 60.9806141,39.8121369 61.7534281,40.8095228 C63.6357903,42.971171 63.5408189,44.8493893 61.454805,46.8719576 C59.6558095,48.5398982 57.4037933,49.6288924 54.9870308,49.9995409 C50.9977897,51.009682 46.8577955,51.2691905 42.7750788,50.7650263 C37.9171307,49.8771911 32.9768988,49.4574099 28.0928792,48.7003598 C23.5556493,47.9969771 19.5875362,45.7408886 15.5803391,43.6576833 C13.4594652,42.555163 13.4029434,42.4086613 11.9535382,44.2360188 C9.48495293,47.1430299 8.95890926,51.2472018 10.6135096,54.6908691 C12.3026961,58.371922 14.8816571,61.5669001 18.1140555,63.9830144 C18.4872982,64.423678 19.0326855,64.6784078 19.6076042,64.6805947 C20.182523,64.6827816 20.7298031,64.4322081 21.1063364,63.9943965 C24.2483086,61.2716975 28.1574147,59.6086981 32.2850525,59.2387828 C36.1316922,58.6013101 40.0377154,58.4059658 43.9280889,58.6565025 C47.2059791,58.969005 50.2783163,60.4050705 52.6322097,62.7249647 C53.9249735,63.7645459 54.5767372,65.4148732 54.3463391,67.0653024 C54.1159409,68.7157317 53.0376462,70.1208086 51.510439,70.760635 C50.2098692,71.4616283 48.8419978,72.0276725 47.4278898,72.4500508 C42.8166104,74.0891018 37.7911544,74.1107379 33.1661454,72.5114517 C29.4299371,71.0899987 25.5152358,70.1925902 21.8692179,68.5024728 C19.7816103,67.5348226 19.7284151,67.749383 18.6384099,69.8680911 C16.6678687,73.6982152 19.0929359,76.3247053 20.9103437,79.1258874 C21.4150966,79.8075211 22.0121085,80.4145493 22.6839793,80.9292801 C23.946672,82.3665076 26.0607188,82.6612642 27.6632333,81.6235259 C33.3771157,78.5197826 38.8513259,79.8707602 43.9758686,83.3457003 C44.9988306,84.0393692 46.1271154,84.7827764 45.7662146,86.3954799 C45.498143,87.8901139 44.4735363,89.1344402 43.0652383,89.6756613 C41.4550572,90.2416613 39.6982178,90.2162591 38.1048145,89.6039385 C35.9611019,89.0711604 33.8754671,88.3242487 31.8788787,87.3742939 C30.6293409,86.8129248 29.3264209,86.3809817 27.9902024,86.0851227 C27.2174357,85.668443 26.2609518,85.8508886 25.6927695,86.5233492 C25.1164558,87.3169021 25.083646,88.3858709 25.6101917,89.2137974 C26.8859193,92.14651 29.0270203,94.6121285 31.7423476,96.2753782 C34.3727065,97.8186197 36.9956076,99.3774531 39.6647876,100.850359 C42.8307186,102.597294 44.8120597,104.873075 43.3940641,109.497716 C43.0626463,111.268583 42.5928771,113.01029 41.989143,114.706572 C41.5457459,115.813289 41.739291,117.075813 42.4934292,117.996108 C43.2793348,119.156731 43.5251329,120.60454 43.1668011,121.962428 C43.0981365,122.509357 42.6670918,122.937971 42.1234769,122.999935 C41.854872,123.003131 41.5981659,122.888389 41.4202788,122.685554 C41.2423917,122.482719 41.1609514,122.211891 41.1971883,121.943671 C41.1839201,120.772281 40.7735428,119.640684 40.0341674,118.736693 C39.4240432,117.740312 39.3236365,116.509967 39.7640295,115.426529 C40.6492625,113.043152 41.2468686,110.561151 41.5439779,108.033978 C41.6580918,106.669149 41.1199355,105.331219 40.095006,104.431636 C37.2542183,101.677807 33.6963948,100.081194 30.462647,97.978811 C27.5784644,96.0220587 25.2175354,93.3788926 23.5888847,90.2833252 C22.9545628,89.038127 22.8969676,87.5745298 23.4314499,86.2826256 C23.9046214,85.3056052 23.5050865,84.1269466 22.5376385,83.6458136 C19.8879626,81.5394402 17.7608683,78.8408056 16.3245295,75.7632715 C15.8348366,74.8086111 15.6873824,73.7128107 15.907107,72.6612121 C16.0611835,71.2876916 16.4833729,69.9584536 17.1493636,68.7500413 C17.5984053,68.2371063 17.7771781,67.5388219 17.6304318,66.8709952 C17.4836854,66.2031686 17.0290894,65.6462119 16.4071382,65.3722545 C13.1072365,62.8512999 10.4970882,59.5267558 8.82167814,55.7106587 C6.8101154,51.5944412 7.3823853,46.6718993 10.2835852,43.1356502 C10.8712769,42.684012 11.3270202,42.0808174 11.6026793,41.3897761 Z M15.8415801,40.8627692 C16.195677,41.6699238 16.8474467,42.3066364 17.6590344,42.6382367 C20.2936354,44.1818546 23.1107284,45.3848417 26.0437677,46.2187809 C30.4483193,47.2796084 34.9421173,47.777131 39.4195144,48.4025073 C44.0891917,49.1846559 48.86164,49.0969287 53.4999032,48.1436814 C55.2525711,47.8787138 56.9628886,47.3818887 58.5865842,46.6660663 C61.6605764,45.0415442 61.8581009,43.9176006 59.543122,41.4045728 C57.6408464,39.3394698 55.0868916,38.2738556 52.7850645,36.8073107 C47.7873825,33.6230976 42.1643558,33.6373018 36.6452129,33.706374 C32.1310373,33.7628479 27.777066,35.2827171 23.4280769,36.5433395 C20.6324778,37.4446231 18.0503171,38.914796 15.8415801,40.8627692 L15.8415801,40.8627692 Z M21.9740918,65.9613172 C22.3820172,66.6855952 23.0752558,67.2018994 23.8820614,67.382318 C28.0244744,68.5819448 31.9947847,70.3473712 36.2290437,71.2349412 C41.0175481,72.1254884 45.9640503,71.3776198 50.2823708,69.1101991 C50.7570498,68.8792709 51.199037,68.5855637 51.5966374,68.2368488 C52.2055259,67.759638 52.4022479,66.91942 52.069251,66.218272 C51.6914793,65.1016257 50.9858081,64.1270684 50.0458087,63.4238257 C48.1013221,61.9644462 45.7928493,61.0779057 43.3777095,60.8630243 C39.5971144,60.7592082 35.814487,60.9715024 32.0687132,61.4977246 C28.3099464,61.8329688 24.7639418,63.4009245 21.9740918,65.9613172 L21.9740918,65.9613172 Z M29.0187347,83.8470429 C32.3656072,85.7181713 35.9723894,87.0719626 39.718385,87.863085 C40.6468742,88.0486027 41.6087669,87.9601332 42.4885862,87.6082974 C43.8836822,87.0417182 44.0488997,86.321964 42.8047709,85.3774055 C39.5506686,82.998371 35.4994662,82.0025184 31.5237802,82.6043512 C30.5471955,82.6236928 29.6295285,83.0789249 29.0187347,83.8470429 L29.0187347,83.8470429 Z" id="Shape"></path>
                <path d="M12,26 C14.2947448,19.7201384 29.5517727,12.6567836 37,14.2200382 C27.2903068,15.5042777 19.0008965,18.687531 12,26 Z" id="Path"></path>
                <path d="M39,96.993209 C36.5396496,97.1132361 34.6395861,95.619283 32.6806516,94.3273401 C32.3762208,94.2041815 32.1404849,93.9218622 32.0453006,93.5664381 C31.9501162,93.2110141 32.0067629,92.8246041 32.1979737,92.5249928 C32.3651854,92.2046666 32.6637669,92.0063038 32.9879861,92.0001475 C33.3122053,91.9939911 33.61629,92.1809104 33.7925595,92.4947144 C35.3205194,94.2809608 37.5466214,94.9478688 39,96.993209 Z" id="Path"></path>
                <path d="M23,75 C25.2827571,75.5375182 26.7387156,77.0541353 29,77.6174639 C27.8134188,78.1298455 26.4138791,78.1273759 25.2297599,77.6108111 C24.0456408,77.0942462 23.2179381,76.1250947 23,75 Z" id="Path"></path>
                <path d="M23,54.202005 C22.5789171,54.657812 21.7770403,54.8845507 21,54.767525 C21.3240162,54.039585 22.2759482,54.312105 23,54.202005 Z" id="Path"></path>
                <path d="M40,40.717592 C37.3604117,40.0872098 34.5806469,40.1853382 32,41 C32.0793419,39.9415805 33.040828,39.129151 34.1809087,39.1571917 C36.2805948,38.689426 38.4900743,39.2819021 40,40.717592 L40,40.717592 Z" id="Path"></path>
                <path d="M33,64.8543567 C36.5408974,63.3001047 39.7180786,63.9794074 43,65.9804704 C39.6242302,66.0937373 36.2502344,65.713787 33,64.8543567 L33,64.8543567 Z" id="Path"></path>
            </g>
        </g>
    </g>
</svg>