<?xml version="1.0" encoding="UTF-8"?>
<svg width="116px" height="140px" viewBox="0 0 116 140" version="1.1" xmlns="http://www.w3.org/2000/svg" xmlns:xlink="http://www.w3.org/1999/xlink">
    <!-- Generator: Sketch 61.2 (89653) - https://sketch.com -->
    <title>water-dark</title>
    <desc>Created with Sketch.</desc>
    <g id="Welcome" stroke="none" stroke-width="1" fill="none" fill-rule="evenodd">
        <g id="Home-Page" transform="translate(-1039.000000, -2504.000000)" fill="#494562" fill-rule="nonzero">
            <g id="water-dark" transform="translate(1039.000000, 2504.000000)">
                <path d="M47.2501874,33.8722255 C48.7765193,32.4775135 49.9158235,31.3355345 51.1599872,30.3236115 C53.0015343,29.1142033 53.8805974,26.8679506 53.3517453,24.7230551 C53.0746317,23.4011209 52.9685526,22.0488015 53.0361358,20.6995999 C53.1416285,19.3193016 52.2770542,18.051046 50.9574983,17.6504186 C47.832883,16.182079 44.2441606,16.0701098 41.0348021,17.3408276 C38.4219566,18.2672641 35.7896146,19.1525914 33.1243172,19.9081288 C31.9996857,20.2114396 30.8307643,20.3141446 29.6707691,20.2115682 C24.6944674,19.7981394 22.7279786,15.5842212 22.7144901,11.5119968 C22.631976,9.78924061 23.1075726,8.0860157 24.0700221,6.65751388 C25.2283676,4.89276014 27.3158291,3.98226273 29.3907803,4.33673501 C30.5548169,4.42741697 31.7005051,4.68113349 32.7945566,5.09051272 C37.9151967,7.2720082 42.7255284,6.37387496 47.4723789,3.91276277 C49.3765646,2.92552009 51.430861,2.23241546 53.3468122,1.26552038 C58.085446,-1.12561739 62.5268181,0.171112743 66.6046937,2.6689275 C71.1642492,5.51523998 76.8100802,5.98125326 81.7712521,3.92079238 C83.7215234,3.28400391 85.7540005,2.9368664 87.8042485,2.89038501 C90.2064062,3.03798108 92.171335,4.86685325 92.5000166,7.2610063 C92.6411773,9.21758663 92.4480929,11.1839998 91.9291129,13.0752123 C90.8985649,16.0971179 87.7972818,17.8839629 84.6793125,17.2522801 C81.7652931,16.7583197 78.818111,16.4874217 75.8632154,16.4419254 C73.2004254,16.6581526 70.5690921,17.1656033 68.0159613,17.9552628 C66.4757347,18.4698063 64.9744682,19.0952343 63.5238455,19.8266793 C63.437303,21.3205434 63.505132,22.8193922 63.7262461,24.299216 C64.2073691,26.2442003 64.8175897,28.2028778 67.0983627,29.074778 C68.0328123,29.6167411 68.8251964,30.3745287 69.409853,31.2853457 C70.3371382,32.5530965 71.9141488,33.1632529 73.4487652,32.8480289 C76.0242182,32.3051276 78.6420499,33.5650386 79.8339784,35.9211068 C79.068578,37.0312009 78.413123,38.2138058 77.8769728,39.452035 C77.4304397,40.7835601 77.5395844,42.2925647 77.195761,43.6712324 C76.2536796,47.4446892 76.1534304,51.3805606 76.9021807,55.197448 C77.6668378,59.3028237 80.6755948,62.6220164 84.6740849,63.771237 C88.2540048,64.8957253 91.9232332,65.7103173 95.6415629,66.2060866 C99.8297384,66.7439547 103.823384,68.3022207 107.274482,70.7450931 C108.774149,72.0262595 109.935039,73.659975 110.65377,75.5007512 C111.655559,77.7086423 112.3686,80.0374445 112.775126,82.4291357 C113.779692,88.5410288 114.574746,94.6891956 115.361892,100.83473 C115.680241,103.320242 115.738863,105.838404 115.958271,108.337905 C116.064216,108.829267 115.966451,109.342767 115.687477,109.760226 C115.408503,110.177684 114.97235,110.463141 114.479399,110.550897 C113.549105,110.886024 112.566497,111.050872 111.578245,111.037613 C106.521881,110.378712 101.588534,111.516979 96.6075639,111.918401 C93.8544737,112.140316 93.6104591,112.085765 93.3033167,109.418235 C93.0268473,107.017544 93.1219145,104.573852 92.8493326,102.172496 C92.680708,99.4081863 92.2165755,96.6700993 91.4649388,94.0054514 C90.5659237,91.3802572 88.0079155,90.5714109 85.3541334,90.4011477 C81.4018604,90.3224034 77.4603211,90.8419493 73.6621657,91.9423003 C67.1126628,93.4859478 60.3482952,93.89191 53.6623334,93.1425864 C51.6184479,92.9309774 49.580585,92.6611795 47.5396298,92.4210898 C43.006271,91.8068953 38.4075058,91.8672762 33.8916872,92.6002846 C32.6240615,92.6064131 31.4227856,93.1701039 30.6048307,94.1426202 C30.1201596,94.5122159 29.5176456,94.6911016 28.9107617,94.6455873 C23.0174946,94.9564352 17.1242128,95.2943146 11.2263956,95.4771916 C8.72254902,95.5182932 6.2186621,95.3976345 3.7302392,95.1159627 C2.96455031,95.0010807 2.28720896,94.5556188 1.87631133,93.8967042 C1.08538847,92.3917578 0.530898325,90.773069 0.23248546,89.097985 C0.0116990768,86.767463 -0.0519321286,84.4246171 0.0420271353,82.0854744 C0.0713601323,76.2502405 0.148477053,70.4151841 0.203373344,64.580039 C0.20505204,64.4011103 0.161538483,64.222019 0.15812219,64.0426171 C0.0959073743,60.7751872 0.728186604,60.2003678 4.0881695,60.3736328 C5.07090204,60.4478888 6.05808747,60.4397769 7.03947837,60.3493814 C13.7578391,59.5615333 20.4489873,60.6162069 27.1546989,60.6277264 C27.8706748,60.5540751 28.5879371,60.7546721 29.1629342,61.1893702 C30.6220888,63.1309681 32.5896526,62.3004581 34.3632093,62.3196227 C35.9943522,62.1677771 37.4887031,61.3402034 38.4869545,60.0358865 C41.0800421,57.2487934 42.5200892,53.5753799 42.5148668,49.7610921 C42.6036463,48.0564489 42.5039406,46.3403602 42.4557443,44.6304675 C42.3968427,42.5420889 42.340253,40.46208 40.1916699,39.2152872 C39.766802,38.8787273 39.4336889,38.4396375 39.2233718,37.9389343 C38.3818151,36.3980774 38.6837742,35.412905 40.304599,34.7824254 C41.3002191,34.3964353 42.3413113,34.1411869 43.4020427,34.0230136 C44.8207172,33.8671534 46.2603312,33.9039447 47.2501874,33.8722255 Z M57.6433748,32.9287834 L57.5934851,32.9768576 C60.2792656,33.4762904 64.0921576,32.7758807 65.4622235,31.5314983 C59.544689,29.2167528 53.2811517,30.2609569 51.8095541,34.1988073 C53.9053908,33.7424949 55.7744123,33.3355874 57.6434484,32.9287539 L57.6433748,32.9287834 Z M94.5303695,92.9021861 C95.638235,98.1950886 95.2711455,103.626299 95.7507518,109.062728 C98.8795606,108.962469 101.740426,108.956258 104.587656,108.755533 C107.429923,108.555163 110.258584,108.160055 113.2441,107.833843 C113.108406,106.643021 112.919346,105.711527 112.913677,104.778939 C113.039343,102.997941 113.070276,101.211477 113.006344,99.4271678 C112.445188,94.5218307 111.574181,89.6511556 111.058865,84.7421216 C110.766109,81.6907883 109.854143,78.7319965 108.379181,76.0481251 C107.906829,74.9774837 107.173719,74.0434607 106.247415,73.3321356 C103.337543,71.6367938 100.575102,69.541746 96.9823695,69.3392757 C95.5709252,69.2597189 94.1904337,68.7232878 92.7767952,68.5535865 C91.6076395,68.5036847 90.4364758,68.53164 89.2710014,68.637269 C88.7270614,68.2134151 88.1456508,67.8404187 87.5340374,67.5229426 C86.7025085,67.195659 85.8486371,66.9287971 84.9790185,66.7244179 C77.0794746,64.3514983 74.123321,58.193069 74.0316407,50.7091183 C73.9871553,47.0785224 74.4773638,43.441346 74.7458226,39.5094401 C65.2152197,42.0300128 55.5892256,41.4738255 45.8161837,41.1595617 C45.7322489,42.6010171 45.7327202,43.7579758 45.5867473,44.8959178 C44.9964501,49.4984957 45.1548955,54.2544348 42.8993617,58.525551 C41.214607,62.3031645 37.5867733,64.8345973 33.4736331,65.1026438 C32.6836154,65.1577273 31.8972643,65.26609 30.8287746,65.3796432 C30.955413,73.7320042 31.0799899,81.9527862 31.2082481,90.414205 C36.173486,89.5143439 41.2419701,89.3379636 46.2573273,89.8905059 C50.2629306,90.1418933 54.243383,90.8065468 58.2493692,91.0401153 C63.3515827,91.4346566 68.483521,90.9624078 73.4293571,89.6432295 C76.9068497,88.8025729 80.447594,88.2520427 84.0154178,87.9972631 C85.5356895,87.9148566 87.0601278,88.0354618 88.5487942,88.355919 C90.1884675,88.6235726 91.796923,89.0839516 93.3116807,89.435406 C93.161456,89.9466688 93.1279446,90.4853645 93.213639,91.0114275 C93.5904852,91.7098829 94.049983,92.3600582 94.582144,92.9478203 L94.5303695,92.9021861 Z M3.40323224,92.6109612 C12.0823831,92.3391966 20.3676736,92.9974323 28.9279905,92.0526446 C28.7503874,86.5504251 28.5769222,81.4026914 28.4256776,76.2542923 C28.402117,75.4535939 28.5096124,74.6497013 28.5055629,73.8475537 C28.4935617,71.5093256 28.5899689,69.1596372 28.3916619,66.836167 C28.1761263,64.3112172 27.3313006,63.5462157 24.9106804,63.2170166 C23.6708857,63.029556 22.4196961,62.9281543 21.1660112,62.9135328 C18.1330205,62.9247565 15.1001771,63.0197514 12.0676577,63.0968977 C9.84175146,63.1535338 7.6045067,63.1152194 5.39410634,63.3373128 C2.78785777,63.599155 2.58944773,64.0090643 2.97783016,66.9612544 L5.60497407,67.7061892 L5.62321884,68.1717291 L2.68435293,69.0158732 C2.57254623,69.3578989 2.4966417,69.7107226 2.45787628,70.0685949 C2.43524334,76.0053596 2.37021597,81.9431595 2.46357501,87.8783421 C2.63798559,89.4805012 2.95241678,91.0641458 3.40323224,92.6109612 Z M89.8365893,9.61881306 C89.7412424,6.52793107 88.4706612,5.34901291 85.4468298,5.7023305 C84.2037709,5.86756013 82.9771724,6.13988028 81.7806027,6.51627853 C76.8699215,8.09135667 71.5455992,7.7234277 66.8960505,5.48770481 C66.0067541,5.06566973 65.1372045,4.60193392 64.2561838,4.16218343 C60.5959043,2.10022643 56.1342518,2.08499084 52.4600928,4.12190229 C50.8915579,4.97070445 49.2590264,5.70199039 47.6449901,6.46403431 C42.786493,8.89609544 37.1764009,9.33474511 32.0015938,7.68718188 C30.8903537,7.34824914 29.7322318,7.19022027 28.5712235,7.21909854 C27.7978788,7.2438255 27.0591845,7.54703645 26.490009,8.07337207 C25.0120943,9.63357098 24.8905361,13.011079 26.1161606,15.2023046 C27.1345516,17.2068274 29.3734432,18.2666739 31.5612749,17.7799127 C33.3239146,17.4720968 35.0633798,17.0428772 36.7673517,16.4952935 C38.9037422,15.8420116 40.968906,14.9423109 43.1201102,14.3521272 C46.5173778,13.419968 49.7050735,14.5227305 52.7338233,15.8897308 C57.3321983,18.0337492 62.6377437,18.0339331 67.2362661,15.8902336 C70.4496724,14.5269598 73.8456,13.3041523 77.5111202,14.3199792 C78.125713,14.4593841 78.7619771,14.4729933 79.3819234,14.3599942 C80.7683259,14.1775919 82.175572,14.2344297 83.5429091,14.528054 C87.9994337,15.3640502 90.1246034,13.3959679 89.8365893,9.61881306 Z M69.3393036,36.9384124 C68.6824477,35.1446894 67.2869951,35.5582217 66.1053996,35.6255195 C60.7916948,35.9281604 55.4827168,36.3132415 50.1690709,36.6172724 C47.6523969,36.7612287 45.1291702,36.7896502 42.3694093,36.8780942 C44.054481,39.1634718 46.2104858,38.5427076 48.176739,38.6039574 C48.6426676,38.5392363 49.1128799,38.5107694 49.5831767,38.518811 C50.733062,38.9101481 51.9183907,39.1873055 53.1221468,39.3463044 C57.3914968,39.3087294 61.6609646,39.1156195 65.9265301,38.9029458 C67.3440676,38.955105 68.6677566,38.1931349 69.3393036,36.9384124 L69.3393036,36.9384124 Z M55.7946008,19.620305 L56.0436073,27.4571001 L61.6843927,27.2763526 C61.3711393,24.7124377 61.083832,22.3606199 60.7798114,19.8722544 C59.0970221,19.7872263 57.6055747,19.7118248 55.7946008,19.620305 Z M75.5057858,35.7076197 C74.0766407,35.7735735 72.6519595,35.9150441 71.2376433,36.1314441 C70.2148023,36.3350235 70.4587432,37.09306 70.9745004,37.8127821 C72.769314,38.0918219 74.5555791,37.2619577 75.5057858,35.7076197 L75.5057858,35.7076197 Z" id="Shape"></path>
                <path d="M103,113 C102.520417,117.624781 101.981812,121.752961 101.697468,125.900683 C101.473789,129.163383 100.449395,132.397589 101.281903,135.734908 C101.165749,136.286292 100.818941,136.751825 100.339448,137 C99.8846269,136.941647 99.4836934,136.656355 99.2609852,136.232598 C99.0359997,135.562629 98.9549618,134.848001 99.0237679,134.140712 C99.511866,128.27742 100.010622,122.414555 100.592722,116.561159 C100.76149,115.522659 101.088055,114.519943 101.559735,113.591953 C101.993501,113.286258 102.484987,113.084256 103,113 Z" id="Path"></path>
                <path d="M99,113.160579 C98.9491486,113.96113 98.8439962,114.757169 98.685291,115.543031 C97.9663643,118.253156 97.4923668,121.024214 97.2691887,123.821771 C96.7735215,127.504534 96.0678036,131.154987 95.1555937,134.754722 C94.996179,135.530697 94.5825954,136.212745 93.7095008,135.937983 C92.846251,135.6663 92.9465971,134.888008 93.1097937,134.110105 C93.7243195,131.181386 94.3333711,128.249919 94.8582491,125.303628 C95.3347126,122.629364 95.6841359,119.932 96.1204845,117.250026 C96.2657596,116.261337 96.4788305,115.284151 96.7581433,114.325596 C96.8433862,113.830527 97.1525719,113.40481 97.5931741,113.175844 C98.0337763,112.946878 98.5546798,112.941226 99,113.160579 L99,113.160579 Z" id="Path"></path>
                <path d="M106.966573,140 C106.501395,139.892524 106.091456,139.559387 105.829914,139.076295 C105.568371,138.593202 105.477437,138.001182 105.577776,137.43477 C105.477795,133.36435 105.375265,129.294035 105.270185,125.223823 C105.196243,122.430322 105.109362,119.637282 105.028416,116.844049 C105.01793,116.482273 104.995244,116.120125 105.000888,115.758706 C105.01424,114.899106 105.146224,113.977361 105.997834,114.000424 C106.93584,114.02582 106.824903,115.054695 106.831688,115.857765 C106.890644,122.908525 106.9464,129.959369 106.998956,137.010297 C107.005352,137.888814 106.980847,138.767658 106.966573,140 Z" id="Path"></path>
                <path d="M114.039045,134 C113.459268,133.180227 112.959661,132.304788 112.547348,131.386168 C110.713072,126.238671 109.545891,120.870114 109.07526,115.415981 C108.971697,114.990168 108.975067,114.544709 109.085059,114.120568 C109.310096,113.614731 109.715169,113.214351 110.218763,113 C110.761479,113.308048 111.232887,113.730937 111.601156,114.240114 C111.623021,114.325302 111.619747,114.41515 111.591742,114.498457 C110.935235,120.39756 112.707573,125.838626 114.625089,131.257497 C114.93139,132.123044 115.513897,133.086045 114.039045,134 Z" id="Path"></path>
                <path d="M44,87.4105803 C42.1265321,88.0063796 39.9504337,88.0705129 38,87.5874103 C39.8745438,86.9942952 42.0488771,86.930214 44,87.4105803 L44,87.4105803 Z" id="Path"></path>
                <path d="M48,60.218801 C46.8987792,60.525981 45.7741056,61.270551 44,60.297001 L48,60.218801 Z" id="Path"></path>
                <path d="M95.0555857,93 C94.8188551,91.0770282 95.5731223,90.8518726 96.5836183,91.0657154 L97,91.9566385 C96.3332233,92.2845206 95.6665566,92.6125863 95,92.9408354 L95.0555857,93 Z" id="Path"></path>
                <polygon id="Path" points="35.923 82.753065 35.00961 82.553745 35.07667 82.246935 35.99039 82.444875"></polygon>
                <path d="M107.4086,93.830265 L107.15553,93.382805 C107.274519,93.2798635 107.416364,93.2068155 107.56927,93.169735 C107.688564,93.2501345 107.783703,93.3615116 107.84447,93.491905 L107.4086,93.830265 Z" id="Path"></path>
                <path d="M96.023675,104.503345 C96.1480044,104.354643 96.2994444,104.230908 96.469945,104.138715 C96.6555759,104.24632 96.8258952,104.378397 96.976325,104.531395 C96.8996731,104.665605 96.791182,104.778897 96.660415,104.861285 C96.4321099,104.773106 96.2176692,104.65256 96.023675,104.503345 Z" id="Path"></path>
                <path d="M10,89.9914612 L16,89 C13.4601875,91.362901 11.7664844,91.5508005 10,89.9914612 Z" id="Path"></path>
                <path d="M9,74.4963231 C8.57098017,75.0284431 8.04105158,75.1603231 7,74.4678731 L8.78904012,74.0578731 L9,74.4963231 Z" id="Path"></path>
                <polygon id="Path" points="10.9502 88.734575 10.05335 88.671465 10.04235 88.350065 10.95765 88.265425"></polygon>
                <path d="M57.3692618,33.7830496 C56.9444253,34.0359627 56.4555273,34.0691465 56.0108319,33.8752526 C55.5661364,33.6813586 55.2023387,33.2763867 55,32.7500157 C55.843415,31.8486344 57.0688147,31.7496562 58,32.5076991 C57.7297214,33.0388198 57.5259889,33.4391353 57.3221727,33.839227 L57.3692618,33.7830496 Z" id="Path"></path>
            </g>
        </g>
    </g>
</svg>