<?xml version="1.0" encoding="UTF-8"?>
<svg width="90px" height="93px" viewBox="0 0 90 93" version="1.1" xmlns="http://www.w3.org/2000/svg" xmlns:xlink="http://www.w3.org/1999/xlink">
    <!-- Generator: Sketch 61.2 (89653) - https://sketch.com -->
    <title>brain-dark</title>
    <desc>Created with Sketch.</desc>
    <g id="Welcome" stroke="none" stroke-width="1" fill="none" fill-rule="evenodd">
        <g id="How-it-works" transform="translate(-904.000000, -328.000000)" fill="#494562" fill-rule="nonzero">
            <g id="brain-dark" transform="translate(904.000000, 328.000000)">
                <path d="M67.2958815,6.74793523 C67.6636272,6.60713916 68.4005223,7.12949259 68.5436905,7.16469161 C69.8097465,7.46881112 70.5340091,7.38433348 71.6639149,7.37166183 C72.6422308,7.36180611 73.8072269,7.59271167 74.7841392,7.58144798 C75.6417447,7.56877633 76.5161936,7.27451254 77.2783536,7.58144798 C77.5632864,9.03164752 77.8397975,10.4902948 78.3170248,11.7518276 C79.0216369,12.5064946 80.1922474,12.7909026 80.8140465,13.6286393 C82.8155939,13.9524702 83.0177137,14.0256842 85.177869,14.0468036 C85.2129592,13.8032264 85.5063137,13.8201219 85.8024753,13.8384254 C87.0530915,13.1471167 87.9878956,12.1376089 89.1276267,11.3364792 C89.3465898,10.3227475 89.8294315,9.64411044 89.9613708,8.62474688 C90.1452437,7.17173141 89.604854,5.66380548 89.7536366,4.03479493 C89.0658678,2.777486 88.2152804,1.68350052 87.2594222,0.69792802 C86.5000693,0.624714062 85.9624868,0.330450272 85.3870068,0.07279346 C82.4927637,-0.327067385 81.3375929,1.0175351 79.5648338,1.74263487 C79.4693884,2.47899833 79.0412874,2.88449102 78.7338969,3.41247629 C78.2271938,3.80811325 78.3577295,4.84437234 77.6952257,5.08090974 C75.2038185,5.5483527 73.16297,5.21607397 70.4161059,5.28787997 C69.2426882,4.95982512 67.6229226,4.58108369 66.0494761,4.45295926 C64.3819878,4.32061095 62.6527406,4.26851641 61.4765157,4.66274541 C60.7452351,6.06789021 61.5045879,7.8208013 61.6814427,9.66804577 C61.9200564,12.1235293 62.0183091,14.8465253 61.6814427,17.1767003 C60.6610185,16.9486107 60.1655443,17.0640634 58.9780905,16.758536 C54.6437437,16.3192522 49.7367242,16.3502273 46.2964769,16.758536 C46.1154112,16.0587795 45.4023775,15.7870431 44.8409336,15.2998887 C44.3286161,14.857789 43.7910336,14.1509927 43.1762525,13.8398334 C42.8421934,13.6722861 42.3074181,13.9383906 42.1375814,13.423077 C40.7690619,13.3723904 39.5142349,13.4315248 38.3955579,13.6300472 C38.1050107,14.105938 37.6333979,14.3973858 36.9400147,14.4649679 C36.9975627,15.360431 35.9588915,15.1506448 35.8985363,15.9250232 C35.4072729,16.5586055 34.9146059,17.6004965 34.8598651,18.6367556 C34.813546,19.4899798 35.4662245,20.2671741 35.0675993,20.9303236 C35.7750186,20.986642 35.6543082,21.8708413 36.1062705,22.1834086 C36.2704929,22.8535979 36.8628161,23.0943592 37.1449417,23.6434639 C38.1625587,23.8757774 39.0201642,24.2657825 39.848294,24.6853548 C40.7395861,24.1897526 41.441391,24.4361458 42.5516462,24.4769766 C43.8233166,23.9447675 45.0107704,23.3280807 46.0887427,22.600165 C46.163134,21.9820702 46.4466631,21.5723537 46.918276,21.3484879 C46.8775713,20.2629502 47.3070759,19.6518952 47.5428823,18.8451337 C51.9586384,18.0355563 56.9512781,18.7578402 61.6800391,19.2632981 C61.7291655,20.9936818 61.7123221,22.7733442 61.6800391,24.4769766 C61.6744247,24.8486783 61.8835625,25.1908127 61.8877734,25.5202755 C61.8933878,25.9919424 61.6870572,26.327037 61.6800391,26.7719526 C61.6505633,29.2006848 61.3010645,32.2179447 61.2659743,34.9057417 C61.2603598,35.288707 61.4877446,35.7814932 61.4737085,36.1574188 C61.4484435,36.7558021 61.3501908,37.3415137 61.2743959,37.9117378 C59.2812702,38.2228971 57.5800952,38.8255043 55.8775167,39.4281115 C55.0957061,40.2447287 54.243715,40.9853161 53.1741644,41.5133013 C52.7053587,42.5706798 51.8140666,43.209894 50.8876842,43.8068694 C50.2434273,43.0620581 49.7718145,42.1454757 49.2230031,41.3049232 C48.5843607,40.7656742 47.7702671,40.3981965 47.3505878,39.6364897 C46.7175598,39.087385 45.785563,38.8452158 45.2732454,38.1764344 C43.7264675,37.8469716 42.2049546,37.4358471 40.4897436,37.5512999 C38.7001412,37.6695686 37.1421345,38.5748873 35.4999111,38.802977 C35.1897134,39.3253304 34.5651071,39.5351165 34.0443679,39.8462758 C33.3046656,39.5224449 33.918043,40.5544801 33.4225688,40.4700024 C32.9046368,40.4390273 32.7783119,40.7980573 32.3810904,40.8867588 C31.8435079,41.6020029 31.2217088,42.2257295 30.5114823,42.7649784 C30.2349712,43.8096853 29.3352574,44.2292576 28.639067,44.8515762 C27.6579438,46.7875222 26.6192726,48.6643338 25.5188426,50.4834191 C25.409361,52.5263701 24.8858146,54.1567886 24.4801714,55.9068838 C24.5728097,57.47676 24.3552502,58.9354073 24.2878769,60.5714577 C24.1812026,60.5418905 24.0773354,60.5080994 23.9846972,60.4630447 C20.8672801,60.2940894 18.166735,59.7914474 14.833162,60.0462883 C14.7321021,59.6759946 14.6113917,60.1349898 14.4190972,60.2546665 C12.7965243,59.9463231 10.956392,60.1392137 9.42645747,60.2546665 C8.47340649,60.3264725 7.4894761,60.1180943 6.72170159,60.6714229 C6.40869663,61.8217268 7.28033825,61.7794879 7.13857367,62.7566127 C6.77363515,63.5211354 6.58414784,64.4799566 6.51396736,65.468345 C6.33009449,68.0547689 6.34413059,71.2297203 6.30904035,73.3951639 C6.29219703,74.3201941 6.19394435,75.0833088 6.30904035,75.8971101 C6.41571468,77.9963795 6.27675732,78.984768 6.10130611,80.487062 C2.02803078,81.1558434 -0.456358375,83.964725 0.0699952594,88.6208511 C0.5682767,89.5106823 1.34728008,90.1189213 1.73467636,91.1227973 C2.55438442,91.2030511 2.86458216,91.7958025 3.39935745,92.1646883 C4.16993917,92.1562405 4.60225096,92.4871113 5.06403855,92.7912308 C5.71952427,92.5729969 6.17429381,92.9813055 6.93364666,92.998201 C9.9808833,93.0742309 12.3515801,90.7285683 13.1740954,88.2012788 C12.9214456,87.4353482 12.9818008,85.7838103 12.9663611,84.2378694 C12.2126227,83.7422672 12.1241953,82.5792917 11.5108179,81.9443014 C10.8721755,81.2642564 9.57804732,81.241729 9.01239261,80.4856541 C9.04046481,79.4648826 8.90291106,78.2864194 9.22153046,77.5655435 C8.53516532,75.6619807 9.183633,73.5232883 9.22153046,71.3085661 C9.22995212,70.8847699 9.02783232,70.2624513 9.01239261,69.8471029 C8.90291106,66.8382908 9.39978889,64.6601756 10.0552746,62.3398563 C12.9579395,62.2610105 12.8512651,62.0385527 16.0837782,62.1314781 C16.7308423,62.1540055 17.0789375,61.8752293 17.5393215,61.7133138 C18.6116793,62.3102891 20.5304138,62.1413339 22.1150891,62.3398563 C22.8042615,62.4257419 23.636602,62.6988863 24.3678827,62.7833639 C24.4619245,63.3845632 24.5784241,64.0181455 24.4829787,64.6629915 C25.0528442,65.3937231 24.9237121,67.1015795 25.5216498,67.583102 L25.3139156,67.7914802 C25.5090173,68.3785998 25.9694013,69.4810331 26.1476597,69.6668839 C26.4845261,70.023098 26.5912004,70.5778345 26.7694588,70.9199689 C27.1498371,71.636621 27.6663654,72.5109646 28.0172679,73.0051588 C28.1983335,73.2557758 28.2825501,73.6232535 28.4341399,73.8400795 C29.0503246,74.7256868 30.1367185,75.3508213 30.3065553,76.5532198 C31.6357736,76.9558966 31.8505259,78.4793101 33.2176418,78.8453798 C34.0233137,79.773226 35.0409308,80.4912859 36.1287283,81.1403558 C36.6831541,81.4163161 37.1589778,81.7725302 37.7906022,81.9752765 C40.143052,83.1635954 42.8351754,84.0083718 46.5238617,83.8520882 C47.968176,83.356486 49.4110868,82.853844 50.6827572,82.1836547 C51.2891166,82.5863315 51.8856507,82.8721475 52.5551725,83.2255456 C53.182586,83.5592323 53.98124,84.1364962 54.4247806,84.2688445 C54.3924976,84.2589888 54.7476109,84.1956306 55.0493869,84.2688445 C57.3274455,84.8052776 59.4468961,84.646178 61.7024969,84.4758148 C62.4534281,84.1181927 63.1959376,83.750715 64.1967113,83.642302 C64.5939328,83.2072422 64.9939616,82.7721823 65.6522546,82.5990031 C65.8768321,82.4159682 65.9750848,82.210406 66.2768609,81.9738686 C66.4691554,81.8232168 66.9155033,81.7359232 67.1077978,81.5571122 C67.2551768,81.4177241 67.3351826,80.919306 67.5218627,80.7221915 C67.7548619,80.4786143 68.3850826,80.5673158 68.146469,80.0970569 C68.5745699,79.6901563 68.6531721,78.9383052 69.394278,78.8439719 C70.2196005,77.1699066 71.7032159,76.1547669 72.0976303,74.0498656 C72.4948518,73.6119898 72.4780085,72.7615816 73.1363014,72.5869944 C73.1138437,71.4578099 73.5728241,70.6862475 73.7609078,69.8766701 C73.8240702,69.6049336 74.1033885,69.6330928 74.1777798,69.4585057 C74.2493639,69.2811027 74.1202318,69.019222 74.1777798,68.8333712 L74.5918447,68.4166148 C74.6634288,68.2026048 74.3883213,68.0533609 74.3841105,67.9984505 C74.3728816,67.7971121 74.55114,67.7422016 74.5918447,67.5816941 C74.9048497,66.3680319 75.3161073,65.5288873 75.6333231,64.2448272 C75.6305159,63.8717176 76.1919597,63.032573 75.6333231,62.7847719 C76.2059958,62.7340853 75.8522862,61.7569606 76.2551222,61.5345028 C76.1863453,58.9255516 76.3758326,56.3616551 76.2551222,53.8174701 C76.1316045,51.1916233 75.7175397,48.7445876 75.216451,46.1004374 C74.5034173,45.2852281 74.0893524,44.1715312 73.3440357,43.3872971 C72.9790972,43.1972224 72.6225803,43.0001079 72.7222366,42.3454061 C72.4120388,42.099013 71.793047,42.1651872 71.8884924,41.5104854 C71.0800132,41.2809878 70.5620813,40.7558185 70.0188843,40.2588083 C68.9226651,40.2447287 68.9142435,39.1408875 67.9387347,39.0071313 C67.2621949,38.5058972 65.9891209,38.5974147 65.2353825,38.1722106 C64.7595588,38.1975538 64.3314578,38.1736185 63.9258146,38.1285638 C63.8724775,37.6766084 63.7461526,37.26126 63.5510508,36.9881156 C64.2416268,37.1331355 63.88511,36.5572796 63.7587851,36.364389 C64.1096875,35.4576623 63.9833626,34.4509704 63.9665193,33.4442785 C63.9384471,31.9250888 63.9468688,30.3749241 64.1742536,29.2724908 C65.5666344,29.3344411 67.3043032,29.051441 68.121204,29.6892472 C70.3739976,29.3217695 74.2297134,29.9539438 76.8558671,30.1074115 C76.636904,32.9697957 78.3605367,33.8821542 79.5592194,35.3196821 C80.743866,35.4548464 81.6014715,35.9138416 82.6794437,36.1546028 C85.9063424,35.7772694 88.0524616,34.3158061 89.5416915,32.1940093 C90.1915628,30.5030485 89.5767818,28.6501722 89.9585636,27.3956792 C89.4602822,26.8522064 89.3086923,25.9609672 89.1248195,25.1021112 C88.2391417,24.8669817 87.6931376,24.0897874 86.630605,23.8490261 C85.1315499,23.5125235 83.3854594,24.0630362 82.2639753,23.6420559 C81.8302599,23.816643 81.3867192,24.4333298 81.0161663,24.0588123 C80.5192884,24.8177031 79.6097493,25.14435 78.9388239,25.7286537 C78.2370191,26.3368927 77.8089181,27.2816344 76.8586743,27.6054653 C73.4998364,27.5238036 69.5304281,27.6505201 66.6712752,27.3970872 C65.8515671,26.8578382 64.9462389,27.6350325 64.1770608,26.9803308 C64.1026695,23.9025287 63.9931879,21.237259 63.9693265,18.6367556 C63.9637121,18.1298897 64.1531994,17.7103174 64.1770608,17.1767003 C64.2177655,16.1531128 64.0423142,15.180212 64.1770608,13.8398334 C64.2402232,13.1921715 64.0044168,12.4529921 64.5911256,11.9630217 C63.6857974,11.3632305 64.3833914,10.4283446 63.9693265,9.45966758 C64.0352962,8.41214481 63.457009,7.16046773 63.7615923,6.53955705 C64.8943053,6.19319871 66.700751,6.97461691 67.2958815,6.74793523 Z M81.2281113,3.41106833 C82.3608243,3.64197389 81.8920187,2.26780422 82.8927924,2.36636147 C84.0255054,1.58635123 84.9546951,2.79719745 86.2179438,2.57614762 C86.4453286,3.11258066 86.7442974,3.57861565 87.2594222,3.8278247 C87.4573311,4.73877529 87.4755781,5.83416873 87.673487,6.74793523 C87.5611983,7.39700513 87.0460735,7.64480621 86.8425501,8.20658254 C87.576638,9.97075732 85.9709085,11.199907 84.5532627,11.9616138 C82.8759491,12.024972 81.8063985,11.558937 80.6063122,10.7099367 C80.4224394,9.98906081 80.2441809,9.265369 79.7725681,8.83312506 C79.7852006,7.17173141 80.3747166,4.86267583 81.2281113,3.41106833 Z M45.0500715,20.7233533 C44.6935546,20.9894579 44.2303634,21.1541893 44.2163273,21.7638363 C43.0569457,22.4072744 41.6252638,22.780384 39.6405597,22.598757 C38.0755349,21.6948462 36.471209,20.4319055 36.7322804,18.4269694 C36.7926357,17.9538946 37.0003699,18.0679394 37.1463453,17.8032428 C37.4593503,17.2316108 37.4046095,17.0204167 37.9800895,16.5501578 C38.3366063,16.2587099 38.9808632,15.6913017 39.4328255,15.2984807 C40.660984,15.3196001 41.6364927,15.5927445 42.5530498,15.9236152 C43.4499564,16.7627598 43.8275274,18.1228499 45.6732742,18.0088051 C45.9680322,19.4195817 45.0276137,19.588537 45.0500715,20.7233533 Z M9.43207191,83.4029487 C10.4496889,85.6556858 10.4019662,88.1520002 9.22433768,90.0780905 C8.58429166,90.4765434 7.72668614,90.6609862 6.93645388,90.9130112 C5.82900583,90.2174786 4.09414425,90.1498965 3.19443044,89.2431698 C3.00775035,88.803886 2.87160021,88.3167316 2.56982412,87.9914927 C2.74246812,86.2076064 2.78878723,85.2825763 3.19443044,84.0294912 C3.88781362,83.6127348 4.32152902,82.9355057 5.27458,82.7778141 C5.55389833,82.5103016 6.92241778,82.9200182 7.14418811,83.4015407 C7.74774028,83.5057298 8.34006357,82.5398688 8.59973136,82.9861923 C9.27206041,82.7285355 8.75833926,83.6634214 9.43207191,83.4029487 Z M28.0172679,67.583102 C28.1379783,66.9086889 27.9541054,66.5341713 27.603203,66.331425 C27.4993359,64.8868573 26.7427903,62.6777669 27.1863309,61.3275326 C27.6326788,60.9403434 28.710651,61.1839206 29.4728111,61.1177464 C30.5886808,60.7770199 30.9058966,59.6337558 31.7620985,59.0325566 C31.4308466,58.7185813 31.767713,58.1539891 32.1761634,57.9906657 C31.9403569,57.1374415 32.0091338,57.0036852 32.3838976,56.1124461 C32.120019,54.7917789 31.6498097,54.2652016 30.7192165,55.0705551 C30.4483198,55.3070925 30.2335676,55.9026599 30.0974174,56.3236402 C29.8447677,57.0923867 29.2664805,58.6326957 29.0587462,59.2437507 C28.2095624,59.0874671 28.3429053,59.915348 27.3940652,59.6605071 C26.7034892,55.3127244 27.5344261,51.9997928 29.0587462,49.231742 C31.2441665,48.8530006 32.3488074,49.340155 33.425376,50.4834191 C33.6667969,52.4531561 33.8197903,53.2571017 33.8394409,55.4901274 C34.2857887,56.6404313 35.2079603,57.3148445 35.7118562,58.4102379 C35.8016872,59.1944721 35.2711228,59.3592035 34.878112,59.661915 C35.1546231,60.630592 34.1903433,60.3588556 34.4640472,61.3317564 C34.2970176,61.4401694 34.1271809,61.5485824 33.8394409,61.5387267 C33.6204778,63.1719611 33.1488649,63.7182499 33.425376,65.4993202 C32.5396983,65.0839718 31.6680567,65.7654247 30.9283544,65.7076984 C30.2265495,65.9738029 29.8672254,66.5876738 29.0587462,66.7495893 C28.6306453,66.9452958 28.6278381,67.5690224 28.0172679,67.583102 Z M49.4349482,79.6788926 C48.8650826,79.3874447 49.0587808,80.0660818 48.8103419,80.3040271 C48.6461195,80.4631267 48.3822409,80.3659774 48.1885428,80.5124053 C48.0678323,80.6011069 47.8572909,81.0347588 47.5639364,81.1375399 C46.9688059,81.3431022 46.1168148,81.3515499 45.4865941,81.1375399 C45.4837869,80.2294052 45.4178172,79.2607283 45.6915211,78.6355937 C45.1974505,77.4895137 44.3131764,76.0900007 42.7832418,75.507105 C42.049154,75.2283287 41.8077331,75.3001347 41.3276986,75.3001347 C41.0750488,75.3001347 40.4448281,74.9199854 40.2862202,75.7182991 C40.2314794,76.3983441 40.9360915,76.3194983 41.1199643,76.7573741 C41.2954156,77.2065136 42.0323106,77.0952847 42.3677734,77.3825087 C42.753766,77.9696283 43.3432821,78.3511856 43.6155824,79.0523501 C43.6647087,79.9379574 43.0723854,80.1759027 43.1987103,81.1375399 C41.9509013,81.1389479 41.3291022,80.5109974 40.078486,80.5124053 C39.5900298,79.9604847 38.927526,79.5831513 38.0011436,79.4705144 C37.8032346,79.0579819 37.3189893,78.8819868 36.9624724,78.6355937 C36.5919195,78.3793448 36.2859326,78.0738174 35.9238013,77.800673 C35.2444542,77.2923992 34.1720964,76.9319612 34.0513859,75.9252693 C34.3882523,75.5845428 34.9202203,76.1111201 35.716067,75.9252693 C37.1337128,75.542304 38.460124,75.0621894 39.2503562,74.0484577 C39.3079042,73.1544026 38.6468041,72.9826314 38.2116851,72.5855865 C37.5618138,72.67288 36.5343715,73.138915 35.9252049,73.8386715 C34.4836977,73.8992138 34.3264934,74.0104427 32.8049805,74.0484577 C30.9732699,73.1009001 30.3262058,70.9706555 29.0629027,69.4570978 C29.0545354,68.7559333 30.0258333,69.0318936 30.3107661,68.623585 C30.5437653,68.2321719 31.1164381,68.1800774 31.3494373,67.7886643 C32.2645908,67.7351618 32.957974,67.4549776 34.0527895,67.5802861 C34.6535345,68.7179184 35.543423,69.5612869 36.963876,69.8752621 C37.5730426,69.8611825 37.737265,69.3979634 38.0025472,69.0403414 C38.0109689,68.1899331 37.1505561,67.9139728 36.7547382,67.3705 C36.579287,67.1297387 36.5877086,66.6285047 36.3378661,66.328609 C36.1217102,66.0653204 35.773615,66.1075592 35.716067,65.7034745 C35.4367487,62.8565779 36.1820654,61.0529802 38.0025472,59.6562832 C39.7163546,59.8083429 40.3058707,59.3366761 41.3305058,59.2395268 C41.3473491,58.908656 41.2294459,58.442621 41.5354328,58.4046061 C41.3248914,57.6443073 40.2553408,57.7428646 39.6658247,57.3598992 C38.6159246,57.5091431 38.5036359,56.7192771 37.3793445,56.9431429 C37.014406,56.615088 36.9456291,55.9857296 36.3378661,55.9012519 C36.3575167,55.6055802 36.3729564,55.3099084 36.1329391,55.2747094 C36.3547094,54.0019129 36.0585478,53.2331664 36.3378661,51.5210861 C36.8936956,50.8959516 37.2586341,50.0807423 37.7934094,49.4358963 C39.1113989,48.5390253 41.7965042,48.7262841 43.4078481,49.2289261 C43.5945282,49.0670106 43.8766538,49.0050603 44.2415923,49.0205479 C44.0689483,48.4306124 44.5349467,48.479891 44.4465193,47.977249 C44.4409049,47.3295871 43.5987391,47.2141343 42.9909761,46.9353581 C42.3790022,46.65095 40.2034072,46.3848454 39.2489526,46.7255719 C39.2082479,46.7424675 38.7604964,46.8621441 38.6271535,46.9353581 C38.2959016,47.1127611 38.0348302,47.6858011 37.7934094,47.7688708 C37.6586628,47.8153335 37.5660246,47.509806 37.3793445,47.5604926 C37.2263511,47.5999155 37.1758211,47.6322986 36.7547382,47.7688708 C36.0852164,48.1405725 36.0445117,49.1416325 35.0900571,49.230334 C33.6639897,47.9167067 32.8260347,47.1282487 30.3093625,47.1437363 C30.8679991,45.5499247 32.2940666,44.824825 33.0127148,43.388705 C35.831163,41.6231223 38.5696055,39.1563751 43.2001139,39.8434599 C43.6885701,39.6139623 43.7405036,40.3137188 44.0338581,40.4671865 C44.2528212,40.5826393 44.6458319,40.3573656 44.864795,40.4671865 L45.0725292,40.8839429 C45.3546548,41.0416345 45.7939846,41.1134405 46.1112004,41.3021072 C46.393326,41.4682466 46.4915786,42.0074956 46.943541,41.7188636 C46.9056435,42.6607893 47.6748216,42.7931376 47.9822121,43.388705 C47.9794049,43.9420336 48.0973081,44.6164468 47.5653401,44.6403821 C48.6671737,45.4457356 48.0664287,47.9885127 48.3990842,49.0219559 C47.8867667,49.483767 47.5962195,50.16522 47.3576058,50.8987675 C46.7161562,51.3676184 46.163134,51.9251709 45.6943283,52.5686089 C44.9756802,52.5418577 44.7160124,52.9755096 44.2415923,53.1937435 C42.7776274,53.1163056 41.883528,53.6104998 40.7044959,53.818878 C40.603436,54.6143758 40.7648511,55.1494009 41.121368,55.4887195 C42.0477503,55.7956549 42.196533,55.3408836 43.1987103,55.2789333 C44.2458031,55.0987143 45.1749927,55.9195554 45.6929247,55.0719631 C46.8326558,55.5999483 48.0383565,56.0589435 48.8117455,56.9487747 C48.9352631,58.6890142 48.8721007,59.0395964 47.9808085,60.0786714 C47.8278151,60.2574824 47.7281588,60.522179 47.5639364,60.703806 L47.1470644,60.703806 L47.1470644,61.1205623 C46.9196796,61.3162689 45.9848755,61.4655127 45.6915211,61.955483 C44.2303634,62.2736822 43.6057571,61.6964183 42.3663697,61.3317564 C41.7908898,61.5598461 41.7712392,61.9174681 41.7417634,62.1652692 C41.6294747,63.0888914 42.2077619,63.3958269 42.9895725,63.8322947 C43.6857629,64.2180759 43.8963043,64.3250809 44.4451157,64.8755936 C44.6205669,65.0487727 44.6500427,65.3669719 45.069722,65.2923499 C45.4529075,67.3550124 45.152535,68.4701173 44.8619878,70.0892721 C44.2093093,69.9921228 44.2752789,70.6144415 44.0310508,70.9241928 C43.2548547,71.0185262 43.1832706,71.1860735 42.3663697,71.5493274 C41.5873664,71.8098001 41.9775699,72.6151537 41.7417634,73.0093827 C43.1173009,73.9724278 44.6233741,73.3149101 46.5252653,73.426139 C48.7934985,74.2047413 49.7479531,76.3096426 49.4349482,79.6788926 Z M49.2272139,72.1702381 C48.0650251,72.0857604 47.2074196,71.6943473 46.5238617,71.1283471 C46.7919511,70.631337 47.0558297,70.1329189 47.3547986,69.6668839 C47.4123466,67.5732463 47.590605,67.0297735 47.1470644,65.2881261 C47.0095106,64.6615835 46.3498141,64.5588024 46.5252653,63.6196926 C47.8278151,63.3254288 48.3625904,62.2652344 49.6454896,61.9512592 C49.5388153,65.8696138 49.5149539,69.0614608 49.2272139,72.1702381 Z M51.5136941,66.1230468 C51.8926687,65.8766536 51.6779165,65.0361011 51.9305662,64.6629915 C51.5515916,59.6492434 51.3789476,55.7674957 51.5136941,51.5239021 L51.7214284,51.5239021 C52.6309674,52.5587532 53.3327723,53.6823058 54.8416527,54.0272562 C54.6437437,55.2212069 53.6935,55.6562668 53.1769716,56.5292024 C52.567805,58.8481137 51.934777,61.0797315 53.1769716,62.7847719 C53.2836459,63.13817 53.6513917,63.354996 54.0079085,63.6196926 L54.4247806,63.6196926 C54.6030391,63.7970957 54.6058463,64.1237425 54.8416527,64.2448272 C55.6304813,64.6503199 56.681785,64.682703 57.545005,65.0797479 C57.6544865,66.0948876 56.714068,66.0540567 56.5035266,66.7481813 C56.2901779,67.9238285 55.7385593,68.7615652 55.6725896,70.0850482 C55.6810113,71.170586 55.9027816,71.7154668 56.297196,72.7981885 C55.6150416,72.8094522 55.5027529,73.39094 54.6325149,73.2149449 C53.64297,73.7527859 52.8583522,74.4961892 51.7214284,74.8861943 C51.0420813,72.8418353 52.0835597,68.6756796 51.5136941,66.1230468 Z M73.7623114,51.3155239 C73.745468,54.249714 73.8942507,56.0237445 73.7623114,58.407422 C72.5776648,58.6214321 72.6843391,57.5415262 71.6821618,57.5725013 C71.4688131,56.8150184 71.1066818,56.2039635 70.4343528,55.9026599 C69.6749999,55.8322619 69.2805856,56.1349734 68.7696717,56.3208242 C68.6924732,57.6485312 69.7536021,57.8386059 69.8111501,59.0311486 C70.9761461,59.6013727 72.06254,60.2504426 73.5531735,60.4926119 C73.6514262,62.1188065 73.1966567,63.1916726 72.9313744,64.4517974 C71.4379337,64.071648 70.009059,63.6619314 68.7696717,64.035041 C68.8075691,62.8213789 68.2377036,61.6682591 68.5647447,60.4912039 C68.1422582,59.521119 67.2158758,59.0607158 66.6923293,58.19482 C67.1204303,56.9558145 67.679067,55.8477494 68.1478726,54.6495749 C68.4580703,53.2894848 69.4616513,52.6277433 70.0202879,51.5196782 C70.584539,51.3915538 70.9929894,51.1057377 71.2680969,50.6861654 C72.4850265,50.5115783 72.9678683,51.0677228 73.7623114,51.3155239 Z M69.3956816,46.5171937 C69.2805856,46.0539747 69.7929032,46.220114 69.8125537,45.8906512 C69.8672945,44.6530537 69.5851689,43.7547748 69.3956816,42.7621625 C70.552256,43.1310482 70.9059656,44.3081034 71.889896,44.8487603 C72.4709904,46.0722782 73.0380488,47.3098756 73.3454393,48.8107618 C72.4218641,49.0993937 70.4006661,48.550289 69.3956816,49.2289261 C69.0798694,49.6752496 68.5071967,49.8667323 68.1478726,50.270817 C67.8896084,50.6228072 67.5443204,51.3366433 67.1092014,50.8959516 C67.391327,48.9557817 69.4756874,48.8234334 69.3956816,46.5171937 Z M65.8613924,41.095137 C66.1196566,41.5316048 66.4649446,41.8793711 66.9000636,42.1370279 C67.679067,44.5671681 66.8397084,47.008572 65.4445203,48.3954133 C64.3665481,48.551697 63.3334913,47.512622 62.119369,47.3521144 C61.9004058,47.3225473 61.5298529,47.5604926 61.0778906,47.5590847 C60.7185665,47.5590847 60.623121,47.2817164 60.2469536,47.3521144 C60.0279905,47.3915373 59.7556902,47.7322638 59.6223473,47.7688708 C58.8770306,47.978657 58.0811839,47.8871395 58.3745383,49.230334 C58.9387894,50.0891901 60.5024106,49.8962995 61.0778906,49.230334 C62.5586988,49.6231551 63.7293093,50.3257275 64.8227212,51.1071457 C65.6943628,52.4813154 65.6943628,55.7815753 64.8227212,57.1557449 C62.8436316,56.7713717 59.8062202,56.7530682 59.4132095,58.6158002 C60.0434302,59.9561788 61.9242672,58.8002431 63.3657744,59.0325566 C63.7054479,59.088875 63.8696702,59.3071089 64.1967113,59.449313 C64.9013234,59.7576564 65.4501348,60.0772634 66.0691266,60.702398 C66.4031857,62.3483041 66.56039,63.6886827 65.8613924,65.0811558 C65.3518821,65.3571161 66.0887772,65.8569422 65.6536582,65.9146686 C65.2045031,65.8808775 65.5610199,66.653848 65.4459239,66.9579675 C64.7735949,67.117067 64.3581264,67.5338234 64.1981149,68.2096446 C63.1650582,68.2152764 62.9236373,69.017814 62.1207726,69.2529435 C62.2077964,69.6485804 62.5671205,69.7767048 62.5348374,70.2948344 C62.8632821,70.3131379 63.3264733,70.1962771 63.3685816,70.5018046 C64.262681,69.9752273 65.2157319,69.6105655 66.0719339,69.0431573 C66.4663482,68.7784607 66.7597026,68.2504754 67.3197429,68.2082366 C67.42361,67.0635645 68.5998349,66.9917585 68.984424,66.1230468 C70.3417145,65.8851014 71.2596753,66.0301214 72.3095753,66.5398031 C71.5039034,68.9291125 70.8835079,71.5056806 69.6062231,73.4233231 C67.1386772,74.0977363 65.0009797,73.5500396 62.536241,73.2163529 C62.3958801,75.9801798 65.395394,75.6732443 66.6951366,75.9294932 C67.3099176,75.8928862 67.9836503,75.3691248 68.3598177,75.722523 C67.7787232,77.4317873 66.1070241,78.049882 65.4487312,79.6817085 C64.4184816,79.9576688 63.751767,81.0643259 62.7453789,81.5599281 C61.6870572,82.0808736 60.5136395,82.4328638 59.2110897,82.1850627 C59.112837,80.9742164 59.7402505,80.4926939 60.0420266,79.6817085 C60.5543442,79.2227133 61.6351236,79.3353502 61.7067077,78.4300314 C61.9776044,77.5317525 61.1171916,77.7711058 60.8729636,77.3867325 C59.4146131,77.4669863 58.6384169,78.2638921 57.5478122,78.8467878 C57.9913529,79.3311263 57.3091985,79.4409472 57.1309401,79.8900867 C57.0214586,80.1716788 57.4649992,81.0840374 56.714068,80.9319776 C57.001808,81.2008981 56.918995,81.8401123 56.9218023,82.3920329 C55.696451,82.1625353 54.6872556,81.7162117 53.5966509,81.350142 C53.053454,80.8235647 53.6373556,79.9379574 52.3488419,79.8900867 C52.59307,76.868603 53.9601858,74.9748958 56.9218023,74.6764081 C57.7555464,74.9988312 59.5816426,75.540896 60.0420266,74.4694379 C60.0392194,73.8471193 60.0616772,73.1980494 59.4174203,73.2163529 C58.9682652,73.0431737 58.9570363,72.4278949 58.3787491,72.3814322 C58.2664604,71.5901582 57.8776605,71.0776605 57.961877,70.0864562 C58.0250395,68.3391769 59.0524818,67.5647985 59.4174203,66.1244547 C60.53329,65.9921064 60.5599586,64.7671806 61.4975699,64.4546133 C61.5144132,64.1251505 61.3993172,63.6605235 61.7053041,63.6211006 C61.6365272,63.1311302 61.0610473,63.1536576 60.8715599,62.7861799 C60.0111472,62.5468265 60.0630808,63.2254636 59.4160167,63.2029362 C58.5191101,62.7002943 57.8453774,63.0170854 56.5049302,62.7861799 C56.4558038,62.4201101 56.1484133,62.3116971 55.6739932,62.3694235 C55.4269579,61.5753336 54.9118332,61.0487563 54.6353221,60.2842337 C54.6409365,59.1198501 54.9946462,58.9030242 54.8430563,57.9906657 C55.5364395,57.8188944 55.6768005,56.9952374 56.0908653,56.5306104 C56.4965085,56.0730231 57.091639,55.685834 57.5464086,55.2775253 C58.2229485,54.8438734 59.8076238,55.323988 60.4574951,54.860769 C60.8224336,54.1455249 60.4224048,53.5133506 60.040623,52.9839573 C58.7296516,53.0487235 57.5786916,52.9515742 56.5035266,52.7769871 C55.8297939,52.1335491 54.9595559,51.6858175 54.2170464,51.1071457 C54.0794926,50.272225 53.7019216,49.6780656 53.3861094,49.0219559 C53.4927838,47.8068858 53.6935,46.687557 53.5938437,45.2669246 C53.8128068,44.2362974 54.7995444,43.9730087 55.0493869,42.9705407 C56.1708711,42.8452322 56.3786053,41.8061572 57.1267293,41.3021072 C58.3113759,40.9543409 58.7549165,41.0345947 59.6209437,40.2602163 C60.2862547,40.2010819 60.8027831,40.0433903 61.3277331,39.9349774 C61.3670342,40.0673257 61.4119497,40.199674 61.4737085,40.3277984 C62.1123509,40.1729227 61.87093,40.9008384 62.5123797,40.7459627 C62.9629384,40.6783806 63.2885758,40.4390273 63.5201714,40.1166043 C64.3244398,40.4559228 65.0529132,40.9923559 65.8613924,41.095137 Z M79.3585032,28.6487642 C80.2034762,27.4111668 81.1986355,26.3228131 82.6836546,25.7286537 C82.8703347,25.5991213 83.0570148,25.4752208 83.1005267,25.7286537 C84.5616843,25.7202059 86.1547813,25.5822258 86.8425501,26.3537883 C86.9576461,27.2548831 87.4348734,28.2728387 87.4643492,29.2738988 C87.4811925,29.7990681 86.7737732,30.5241679 87.4643492,30.7339541 C86.9815075,30.8747501 87.1625731,31.6815116 86.6334122,31.775845 C86.745701,32.5136164 85.8965172,32.2883427 86.0088059,33.0275221 C84.775033,33.389368 83.9314636,34.139811 82.0590483,33.8624428 C80.7593057,33.1514226 79.7501103,32.1475466 79.150769,30.7339541 C79.3683285,29.8821378 79.183052,29.7033268 79.3585032,28.6487642 Z" id="Shape"></path>
            </g>
        </g>
    </g>
</svg>