<?xml version="1.0" encoding="UTF-8"?>
<svg width="26px" height="22px" viewBox="0 0 26 22" version="1.1" xmlns="http://www.w3.org/2000/svg" xmlns:xlink="http://www.w3.org/1999/xlink">
    <!-- Generator: Sketch 48.2 (47327) - http://www.bohemiancoding.com/sketch -->
    <title></title>
    <desc>Created with Sketch.</desc>
    <defs></defs>
    <g id="smaller-copy" stroke="none" stroke-width="1" fill="none" fill-rule="evenodd" transform="translate(-1016.000000, -120.000000)">
        <path d="M1025.96429,140 C1025.96429,140.539735 1025.76708,141.006806 1025.37266,141.401228 C1024.97823,141.795649 1024.51116,141.992857 1023.97143,141.992857 C1023.43169,141.992857 1022.96462,141.795649 1022.5702,141.401228 C1022.17578,141.006806 1021.97857,140.539735 1021.97857,140 C1021.97857,139.460265 1022.17578,138.993194 1022.5702,138.598772 C1022.96462,138.204351 1023.43169,138.007143 1023.97143,138.007143 C1024.51116,138.007143 1024.97823,138.204351 1025.37266,138.598772 C1025.76708,138.993194 1025.96429,139.460265 1025.96429,140 Z M1039.91429,140 C1039.91429,140.539735 1039.71708,141.006806 1039.32266,141.401228 C1038.92823,141.795649 1038.46116,141.992857 1037.92143,141.992857 C1037.38169,141.992857 1036.91462,141.795649 1036.5202,141.401228 C1036.12578,141.006806 1035.92857,140.539735 1035.92857,140 C1035.92857,139.460265 1036.12578,138.993194 1036.5202,138.598772 C1036.91462,138.204351 1037.38169,138.007143 1037.92143,138.007143 C1038.46116,138.007143 1038.92823,138.204351 1039.32266,138.598772 C1039.71708,138.993194 1039.91429,139.460265 1039.91429,140 Z M1041.90714,123.060714 L1041.90714,131.032143 C1041.90714,131.281251 1041.82151,131.501813 1041.65025,131.693834 C1041.47899,131.885855 1041.26881,131.997433 1041.0197,132.028571 L1024.76546,133.928013 C1024.90039,134.550784 1024.96786,134.914062 1024.96786,135.017857 C1024.96786,135.183929 1024.8433,135.516069 1024.5942,136.014286 L1038.91786,136.014286 C1039.18772,136.014286 1039.42126,136.11289 1039.61847,136.3101 C1039.81568,136.507311 1039.91429,136.740847 1039.91429,137.010714 C1039.91429,137.280582 1039.81568,137.514117 1039.61847,137.711328 C1039.42126,137.908539 1039.18772,138.007143 1038.91786,138.007143 L1022.975,138.007143 C1022.70513,138.007143 1022.4716,137.908539 1022.27439,137.711328 C1022.07718,137.514117 1021.97857,137.280582 1021.97857,137.010714 C1021.97857,136.89654 1022.02009,136.733065 1022.10312,136.520285 C1022.18616,136.307505 1022.2692,136.120676 1022.35223,135.959794 C1022.43527,135.798911 1022.54685,135.591324 1022.68697,135.337026 C1022.82709,135.082728 1022.90753,134.929632 1022.92829,134.877734 L1020.17254,122.064286 L1016.99643,122.064286 C1016.72656,122.064286 1016.49303,121.965682 1016.29581,121.768471 C1016.0986,121.57126 1016,121.337725 1016,121.067857 C1016,120.79799 1016.0986,120.564454 1016.29581,120.367243 C1016.49303,120.170032 1016.72656,120.071429 1016.99643,120.071429 L1020.98214,120.071429 C1021.14822,120.071429 1021.29612,120.105161 1021.42586,120.172628 C1021.55561,120.240095 1021.65681,120.320535 1021.72946,120.413951 C1021.80212,120.507367 1021.86959,120.634514 1021.93186,120.795396 C1021.99414,120.956279 1022.03566,121.09121 1022.05642,121.200195 C1022.07718,121.30918 1022.10572,121.462276 1022.14205,121.659487 C1022.17838,121.856697 1022.20173,121.991629 1022.21211,122.064286 L1040.91071,122.064286 C1041.18058,122.064286 1041.41412,122.16289 1041.61133,122.3601 C1041.80854,122.557311 1041.90714,122.790847 1041.90714,123.060714 Z" id="" fill="#4A4A4A"></path>
    </g>
</svg>