<?xml version="1.0" encoding="UTF-8"?>
<svg width="96px" height="94px" viewBox="0 0 96 94" version="1.1" xmlns="http://www.w3.org/2000/svg" xmlns:xlink="http://www.w3.org/1999/xlink">
    <!-- Generator: Sketch 61.2 (89653) - https://sketch.com -->
    <title>chart-dark</title>
    <desc>Created with Sketch.</desc>
    <g id="Welcome" stroke="none" stroke-width="1" fill="none" fill-rule="evenodd">
        <g id="How-it-works" transform="translate(-902.000000, -689.000000)" fill="#494562" fill-rule="nonzero">
            <g id="chart-dark" transform="translate(902.000000, 689.000000)">
                <path d="M0.347472749,40 C33.0450743,39.7924643 64.4542762,27.308745 88.273627,5.05338032 C87.1401886,7.47375731 85.9937223,9.9070775 84.88634,12.3403977 C84.417331,13.3499667 85.9155541,14.243047 86.3975911,13.2205348 C88.273627,9.27717546 90.1149215,5.31655856 91.9214745,1.33868408 C92.1950631,0.717410839 91.7260541,-0.214499019 90.9443725,0.0443648302 L67.7935685,8.40566717 C67.0770271,8.65158783 67.3766717,9.77764557 68.1062412,9.53172491 L87.4007492,3.06012868 C63.6914218,25.0779811 32.7799439,37.8547445 0.347472749,39.0422038 C0.139969922,39.1108959 0,39.3038069 0,39.5211019 C0,39.7383968 0.139969922,39.9313079 0.347472749,40 L0.347472749,40 Z" id="Path"></path>
                <path d="M4.14180125,55 C3.10985415,55 2.94004007,56.1084633 3.50173279,56.6945473 C3.20531049,56.7301211 2.9757555,56.9646853 2.95310269,57.2551494 C2.42188942,63.4217726 1.90809297,69.5883959 1.41171336,75.7550191 L0.667143934,84.992213 C0.549580341,86.4574231 -0.469304134,90.3943788 0.262202669,91.7321793 C1.56846482,94.1274793 6.14038233,92.3692272 8.46552895,92.4966368 C11.4699319,92.6622692 19.6340703,92.3564862 19.6340703,92.3564862 C19.6340703,92.3564862 20.3917024,84.0876051 20.3525145,80.8896248 C20.2344754,74.8040482 20.7376892,68.72212 21.854716,62.733761 C22.088379,60.8427746 22.0399802,58.928746 21.7110271,57.0512941 C21.7110271,57.0512941 9.4060377,55.1911144 4.14180125,55 Z M18.9286888,69.5246911 C18.4572961,72.7959848 18.2215912,76.0954859 18.2233072,79.3989329 C18.2233072,83.5779668 17.8314285,90.8657942 17.8314285,90.8657942 C17.8314285,90.8657942 7.2768304,90.6619389 3.7499226,90.8657942 C1.51621433,91.0059448 1.99953132,91.5155831 2.03871919,89.1202831 C2.07790705,86.7249832 2.33915948,84.6354662 2.49591094,82.4057987 C3.07066629,74.005261 3.62365059,65.6047233 4.15486387,57.2041856 C4.16285139,57.132197 4.16285139,57.0595779 4.15486387,56.9875893 L4.24630222,56.9875893 C8.36102798,57.2806313 20.2218883,59.0516244 20.2218883,59.0516244 C20.2218883,59.0516244 19.229129,67.473397 18.9286888,69.5246911 Z" id="Shape"></path>
                <path d="M34.0769642,43.5974616 C33.5365176,43.625145 33.1127641,44.0707127 33.1134762,44.6105486 C33.0511769,44.7163636 33.0238452,44.8390555 33.0353555,44.9612326 C33.6863609,61.1186718 27.7361714,76.7695674 29.246504,93.0179247 C29.246504,93.5634331 29.8193888,94.1998595 30.4573741,93.9400936 C35.6654174,91.8230015 40.9646015,92.4074748 46.420027,93.1607959 C49.0240486,93.5114799 57.5782598,93.9790585 57.5782598,93.9790585 C57.5782598,93.9790585 57.7084609,89.8098158 57.5782598,87.3939929 C56.6953321,76.7755509 57.0711723,66.0902774 58.6979892,55.5596814 C59.1406728,52.7282331 60,43.5195318 60,43.5195318 C58.0372496,43.1945546 56.052323,43.0208637 54.0628306,43 C48.5683448,43.0909181 39.4933293,43.2727542 34.0769642,43.5974616 Z M56.9793349,52.4814555 C55.7085311,59.6313476 55.0205545,66.8722009 54.9221577,74.1329435 C54.9221577,78.0294321 55.0002784,81.8479908 55.2867208,85.6795379 C55.4169218,87.3420397 55.078399,91.8489781 55.078399,91.8489781 C55.078399,91.8489781 51.1723665,91.6931186 50.4172002,91.6022005 C43.907146,90.874856 37.3970918,89.4331552 31.0562991,91.6022005 C29.8975094,76.1461293 35.2617941,61.0797069 34.5587082,45.597659 C38.7121228,45.597659 46.0554639,45.3638697 49.9875366,45.2209985 C51.4327687,45.2209985 57.7996017,45.3898463 57.7996017,45.3898463 C57.7996017,45.3898463 57.4350386,49.8578198 56.9793349,52.4814555 Z" id="Shape"></path>
                <path d="M95.9469374,43.3142269 L95.9469374,33.0516487 C95.9469374,31.1608306 95.4643218,26.4533456 95.4643218,26.4533456 C95.4643218,26.4533456 88.5934001,25.8795801 84.719775,26.0230215 C80.1095263,26.1925431 70.5207168,26.7271882 70.5207168,26.7271882 C70.5207168,26.7271882 70.3048098,71.233134 70.2667086,73.8411589 C70.1772709,73.9746821 70.1772709,74.151 70.2667086,74.2845232 C70.2667086,77.6358352 70.0254008,89.9326729 70,91.7452502 C70.0469085,92.2576393 70.4771973,92.6420613 70.9779316,92.6189386 L82.611507,92.7102194 C85.3293947,92.7102194 89.3681251,93.3622257 92.0098103,92.7102194 C96.0104394,91.7061298 95.8199333,88.485219 95.9215366,85.2643082 C96.0739415,71.233134 95.9596378,57.2671604 95.9469374,43.3142269 Z M72.2098713,35.072868 C72.3936368,34.7460631 72.3936368,34.3434228 72.2098713,34.0166179 L72.2098713,32.8560468 C72.2098713,32.3083616 72.6670861,28.6571267 72.6670861,28.6571267 C72.6670861,28.6571267 83.3735316,28.5528057 85.5580021,28.4093643 C87.2344562,28.3050433 87.539266,27.8877593 89.1649185,27.7312778 C90.0096188,27.6058093 90.8691446,27.6322848 91.7050005,27.8095185 C86.3454275,30.9652287 77.0233267,35.803115 72.2098713,39.1022666 C72.1971709,37.7591337 72.2098713,36.4160009 72.2098713,35.072868 Z M72.2098713,40.5497204 C77.4805414,37.0940874 87.6408693,32.0866795 93.0766447,28.7353674 C93.4212966,29.8552373 93.5380168,31.0359056 93.4195558,32.2040406 L93.4195558,32.7517258 C93.3776907,32.7425697 93.3344168,32.7425697 93.2925517,32.7517258 C87.9922473,36.7767777 82.7046433,40.8105229 77.4297398,44.8529616 C75.8167877,46.1569741 73.8990258,47.3305853 72.1590697,48.6867583 C72.1675366,45.9744123 72.1760036,43.2620664 72.1844705,40.5497204 L72.2098713,40.5497204 Z M72.2098713,50.2385331 C75.0547631,47.7087489 78.953789,45.5571283 81.5192718,43.7184707 C85.5453017,40.7844427 89.52053,37.8112942 93.4957583,34.8251057 C93.4957583,36.4551213 93.4957583,38.098177 93.4957583,39.7281926 C93.3385428,39.7390662 93.1881205,39.798119 93.0639443,39.8977142 C86.7137394,44.8138412 78.3568697,51.164382 72.1463693,56.1587498 C72.1336689,54.1636107 72.1463693,52.1945518 72.1463693,50.2385331 L72.2098713,50.2385331 Z M72.2098713,57.6714042 C72.3881987,57.6695853 72.5614625,57.6102859 72.7051873,57.5018826 C78.9156877,52.5727155 87.2725574,46.5220976 93.5719607,41.449489 C93.5719607,43.2490263 93.5719607,45.0616036 93.5719607,46.8611408 C93.3955283,46.8683843 93.2280284,46.9427541 93.1020456,47.0697828 C86.5837947,53.1776266 79.5545012,58.6844296 72.0955676,63.5264202 C72.108268,61.5704015 72.108268,59.6143828 72.1209684,57.6714042 L72.2098713,57.6714042 Z M72.2098713,65.0521148 C79.9199656,60.4538402 87.1062873,54.9866323 93.6354628,48.7519589 C93.6354628,51.3599839 93.6354628,53.9680088 93.6354628,56.6542745 C93.3097603,56.2130117 92.7001348,56.120281 92.2638185,56.4456325 C85.5072005,61.6616824 78.8521857,66.9820533 72.1971709,72.3024242 C72.0701668,69.9291215 72.0701668,67.477578 72.0828672,65.0521148 L72.2098713,65.0521148 Z M93.3433533,57.541003 C93.4195558,57.541003 93.4449566,57.4236419 93.4957583,57.3714814 C93.4957583,59.5100618 93.4957583,61.6486423 93.4957583,63.7872227 C93.353842,63.8128479 93.2193141,63.8707718 93.1020456,63.9567444 C85.7612087,69.8508808 78.8648861,75.3798937 72.1209684,81.8086752 C72.1209684,78.9398477 72.0066648,76.7099864 72.0193652,73.8411589 C79.1696959,68.4295072 86.3200267,63.0569758 93.3433533,57.541003 Z M71.9939644,84.3906199 C78.8775865,77.8792509 86.0744854,71.6460713 93.5846611,65.691081 L93.5846611,71.8721001 C88.5044972,77.6488754 77.9377562,85.6946323 72.540082,89.9848334 C72.277299,90.1574132 72.1795569,90.5030857 72.3114746,90.7933211 L71.9939644,90.7933211 C71.9812639,88.6547407 71.9939644,86.5292003 71.9939644,84.3906199 Z M80.1857287,90.7933211 L73.6831189,90.7933211 C80.7772293,85.8448199 87.4326095,80.263773 93.5719607,74.1150015 L93.5719607,80.8176257 L93.5719607,80.8176257 C89.3009486,84.4050828 84.8314064,87.7358775 80.1857287,90.7933211 L80.1857287,90.7933211 Z M93.6354628,87.9244937 C92.1495148,90.7020402 89.3681251,90.7933211 86.485132,90.7933211 L82.8782156,90.7933211 C86.6187637,88.2714774 90.2225655,85.5420376 93.673564,82.6171629 C93.8259689,84.2732587 94.232382,86.7639226 93.6354628,87.9244937 Z" id="Shape"></path>
            </g>
        </g>
    </g>
</svg>