<?xml version="1.0" encoding="UTF-8"?>
<svg width="64px" height="60px" viewBox="0 0 64 60" version="1.1" xmlns="http://www.w3.org/2000/svg" xmlns:xlink="http://www.w3.org/1999/xlink">
    <!-- Generator: Sketch 61.2 (89653) - https://sketch.com -->
    <title>noun_confirm comment_806667</title>
    <desc>Created with Sketch.</desc>
    <g id="Welcome" stroke="none" stroke-width="1" fill="none" fill-rule="evenodd">
        <g id="Thankyou" transform="translate(-218.000000, -179.000000)" fill="#494562" fill-rule="nonzero">
            <g id="noun_confirm-comment_806667" transform="translate(217.000000, 179.000000)">
                <path d="M48.003,13.905 C46.369,13.712 45.103,15.091 44.104,16.187 C43.887,16.425 43.678,16.655 43.476,16.857 C43.282,17.052 43.048,17.329 42.923,17.48 C42.579,17.543 42.371,17.949 42.229,18.225 C42.206,18.27 42.186,18.31 42.169,18.34 C41.865,18.551 41.666,18.85 41.512,19.086 L35.939,25.456 C35.779,25.615 35.089,26.315 34.861,26.71 C33.967,27.606 33.156,28.598 32.364,29.566 L32.075,29.954 C31.984,30.076 31.895,30.196 31.806,30.314 C31.717,30.217 31.628,30.121 31.54,30.027 C31.302,29.771 31.074,29.525 30.861,29.268 C30.601,28.922 30.339,28.573 29.971,28.116 L29.475,27.626 C29.293,27.354 29.105,27.071 28.819,26.785 C28.564,26.53 28.042,25.921 28.039,25.918 C27.586,25.374 26.695,24.395 26.639,24.348 L26.505,24.146 C26.139,23.592 25.585,22.754 25.049,22.227 C24.915,22.138 24.781,22.054 24.648,21.979 L24.662,21.943 C24.548,21.886 24.426,21.844 24.305,21.806 C24.262,21.783 24.217,21.766 24.219,21.766 C23.986,21.649 23.678,21.646 23.643,21.646 L23.631,21.724 C22.598,21.732 21.379,22.345 21.145,23.444 C20.922,24.112 21.331,24.837 21.749,25.254 L22.868,26.373 L22.935,26.508 L22.968,26.56 C23.666,27.432 24.377,28.41 25.065,29.355 L25.117,29.421 C25.152,29.457 25.211,29.554 25.258,29.643 C25.976,30.991 27.29,31.954 28.154,33.195 C28.651,33.908 29.18,34.53 29.654,35.251 C29.901,35.626 30.129,36.256 30.52,36.515 C32.439,37.78 33.404,35.222 34.19,33.976 L34.204,33.945 C34.829,33.285 35.335,32.701 36.102,31.816 L36.196,31.707 C36.811,30.95 37.429,30.193 38.045,29.451 L39.014,28.423 C40.263,27.096 41.442,25.843 42.844,24.439 C44.541,22.402 46.222,20.715 47.984,19.281 C48.977,18.472 50.245,16.734 49.952,15.399 C49.836,14.842 49.398,14.143 48.003,13.905 Z" id="Path"></path>
                <path d="M64.699,13.062 C64.648,8.136 60.877,3.187 55.839,1.359 L55.865,1.226 L55.423,1.1 C52.111,0.153 48.464,0.595 44.937,1.022 C42.747,1.288 40.679,1.537 38.723,1.468 C35.408,1.348 32.908,1.327 30.369,1.4 C28.275,1.464 26.142,1.351 23.982,1.238 C21.869,1.128 19.683,1.014 17.497,1.073 C14.758,1.149 10.826,1.462 8.316,3.303 C5.041,5.707 3.591,10.451 2.532,13.919 C1.471,17.394 1.201,21.171 1.015,24.742 C0.903,26.872 0.909,28.979 1.034,31.005 C1.069,31.579 1.056,32.218 1.041,32.965 C1.008,34.442 0.974,35.968 1.394,37.31 C2.374,40.448 5.186,43.145 8.732,44.35 C9.71,44.682 10.936,44.966 12.097,45.13 C13.357,45.309 14.502,45.097 15.615,44.891 L15.744,44.867 C16.45,44.736 17.078,44.621 17.81,44.62 C17.965,44.613 18.217,44.616 18.496,44.61 C19.019,44.597 20.358,44.566 20.835,44.681 C20.857,44.764 20.881,44.851 20.907,44.941 C21.009,45.292 21.029,45.768 21.048,46.229 C21.057,46.416 21.065,46.6 21.076,46.775 C21.1,47.121 21.114,47.467 21.126,47.815 C21.152,48.497 21.179,49.202 21.286,49.919 C21.405,50.705 21.357,51.537 21.305,52.442 C21.243,53.524 21.179,54.642 21.423,55.767 C21.863,57.792 22.787,59 24.168,59.358 C24.437,59.428 24.72,59.463 25.011,59.463 C28.106,59.463 32.096,55.413 35.641,51.396 C35.874,51.13 36.074,50.905 36.232,50.731 C36.614,50.314 36.984,49.864 37.358,49.409 C38.234,48.342 39.14,47.239 40.236,46.581 C40.811,46.238 41.2,46.333 42.059,46.543 L42.544,46.658 C44.231,47.036 45.928,46.91 47.567,46.788 L48.573,46.717 C52.244,46.465 56.04,46.204 59.04,43.513 C61.223,41.554 62.603,38.89 63.144,35.598 C63.547,33.151 63.739,30.627 63.925,28.17 C64.021,26.894 64.117,25.621 64.242,24.361 C64.326,23.528 64.431,22.697 64.539,21.863 C64.904,19.02 65.281,16.079 64.699,13.062 Z M59.736,20.688 C59.572,21.24 59.399,22.905 59.028,26.726 C58.803,29.045 58.504,32.13 58.293,33.461 L58.213,33.461 L58.065,34.285 C57.337,38.363 55.442,40.31 51.729,40.796 C51.324,40.849 50.903,40.91 50.413,40.982 C48.595,41.247 46.531,41.547 44.886,41.326 C44.512,41.276 44.172,41.211 43.847,41.148 C42.806,40.949 41.729,40.743 40.265,41.157 C37.098,42.052 34.378,43.854 32.607,46.236 L32.08,46.952 C31.328,47.973 30.619,48.937 29.781,49.869 C29.571,50.103 29.33,50.39 29.058,50.713 C28.639,51.21 28.12,51.826 27.584,52.379 C27.547,51.287 27.336,50.114 27.157,49.116 L27.138,49.013 C27.063,48.588 26.996,48.22 26.968,47.952 C26.939,47.672 26.917,47.34 26.893,46.976 L26.884,46.848 C26.783,45.336 26.66,43.485 26.078,42.228 L26.191,42.099 L25.917,41.771 C25.386,41.134 24.661,40.541 23.924,40.129 L23.971,39.965 L23.516,39.813 C23.106,39.676 22.773,39.491 22.385,39.276 C21.625,38.854 20.776,38.385 19.383,38.411 C18.332,38.44 17.335,38.635 16.362,38.826 C15.212,39.052 14.128,39.268 13.011,39.191 C9.831,38.978 8.809,38.432 8.482,38.126 C7.546,37.248 7.428,34.871 7.357,33.444 L7.339,33.075 C7.039,27.426 7.088,22.876 7.493,18.757 C7.952,14.095 8.597,10.326 12.28,7.776 C13.215,7.128 15.242,6.709 16.762,6.63 C21.543,6.379 26.5,6.565 31.166,6.776 C32.145,6.82 33.155,6.959 34.154,7.095 C35.104,7.225 36.086,7.359 37.079,7.415 C38.625,7.504 39.838,7.211 41.133,6.901 C41.644,6.779 42.162,6.654 42.714,6.556 C49.183,5.41 57.256,5.183 58.994,10.615 C59.88,13.379 60.203,17.794 59.736,20.688 Z" id="Shape"></path>
            </g>
        </g>
    </g>
</svg>