<?xml version="1.0" encoding="UTF-8"?>
<svg width="154px" height="81px" viewBox="0 0 154 81" version="1.1" xmlns="http://www.w3.org/2000/svg" xmlns:xlink="http://www.w3.org/1999/xlink">
    <!-- Generator: Sketch 61.2 (89653) - https://sketch.com -->
    <title>electric-vehicals-dark</title>
    <desc>Created with Sketch.</desc>
    <g id="Welcome" stroke="none" stroke-width="1" fill="none" fill-rule="evenodd">
        <g id="Home-Page" transform="translate(-774.000000, -2253.000000)" fill="#494562" fill-rule="nonzero">
            <g id="electric-vehicals-dark" transform="translate(774.000000, 2253.000000)">
                <path d="M40.5516045,64.1300538 C42.8601474,62.9879202 45.6633781,63.1510821 47.9719211,62.4984343 C48.7964007,62.3352724 49.4559844,62.6615963 50.280464,62.9879202 C52.0943192,63.8037299 53.5783825,65.1090255 55.5571336,65.7616733 C56.0518213,65.9248352 55.8869254,66.2511591 56.0518213,66.577483 C56.3816132,67.3932927 56.5465091,68.3722644 57.2060928,69.1880741 C58.5252602,71.1460175 58.0305724,73.4302847 57.2060928,75.0619042 C56.3816132,76.6935237 54.567758,78.1619812 52.5890069,78.9777909 C51.2698395,79.4672768 49.7857762,79.9567626 48.4666088,80.6094104 C47.4772333,81.0988962 46.4878578,81.0988962 45.4984822,80.7725723 C43.3548352,80.1199245 41.3760841,79.1409529 39.562229,77.8356573 C37.418582,76.3671998 36.7589983,73.9197706 36.7589983,71.3091794 C36.7589983,70.4933697 36.9238942,69.8407219 37.0887901,68.6985883 C36.0994146,69.67756 35.274935,70.3302078 34.7802472,70.9828555 C33.6259757,72.614475 31.9770165,72.777637 30.3280572,72.1249892 C25.8758673,70.0038839 21.0938855,68.2091024 17.3012793,64.9458635 C15.1576323,63.1510821 13.3437771,60.8668149 12.5192975,58.0930618 C12.3544016,57.440414 12.1895056,56.2982804 11.5299219,56.1351184 C9.22137901,55.4824706 10.2107546,53.8508512 10.2107546,52.3823936 C10.2107546,47.6506972 11.5299219,43.4084866 13.8384649,39.4925999 C16.1470078,35.5767131 19.6098222,33.1292839 23.7322203,31.1713406 C24.0620121,31.0081786 24.7215958,31.0081786 24.8864918,30.6818548 C27.8546184,28.0712636 31.8121206,28.5607494 35.274935,27.2554539 C37.418582,26.4396441 40.0569167,27.0922919 42.5303556,27.4186158 C44.5091067,27.7449397 44.5091067,27.7449397 45.3335863,25.9501583 C48.3017129,19.2605185 52.424111,13.2235265 57.8656765,8.32866808 C59.6795317,6.69704861 61.8231787,5.55491499 64.1317216,4.73910526 C69.0785993,2.61799995 74.1903729,0.496894646 79.6319384,0.170570753 C85.4032958,-0.318915087 90.8448612,0.170570753 96.2864267,2.61799995 C102.882264,5.55491499 107.994037,9.7971256 111.621748,15.9972796 C113.600499,19.2605185 114.919666,22.8500813 116.568625,26.1133202 C117.228209,27.5817778 118.052689,29.2133972 118.877168,30.6818548 C119.371856,31.6608264 120.03144,31.9871503 121.185711,31.8239884 C124.318734,31.1713406 127.28686,31.6608264 130.419883,32.4766362 C135.036969,33.7819317 139.654055,34.9240654 143.776453,37.0451707 C147.569059,39.003114 150.207394,41.6137052 151.691457,45.6927538 C153.340416,49.7718025 154,54.0140131 154,58.4193857 C154,60.7036529 153.340416,62.8247582 152.515937,64.7827016 C152.351041,65.1090255 152.186145,65.4353494 152.021249,65.7616733 C150.866977,70.4933697 147.404163,73.4302847 143.281765,75.714552 C140.148742,77.5093334 136.685928,78.1619812 133.223114,78.4883051 C130.419883,78.651467 126.627277,75.714552 125.802797,72.9407989 C125.308109,71.6355033 124.813422,70.1670458 124.318734,68.8617502 C122.999566,65.2721874 120.361232,63.3142441 116.898417,62.1721104 C113.270707,61.0299768 109.642997,61.5194626 106.345078,63.6405679 C104.366327,64.9458635 102.552472,66.414321 101.233304,68.3722644 C99.7492411,70.4933697 97.9353859,72.1249892 95.9566349,73.9197706 C95.2970512,74.4092564 94.6374675,74.4092564 93.9778838,74.4092564 C90.3501735,74.4092564 86.5575672,74.4092564 82.9298569,74.5724184 C80.7862099,74.5724184 78.6425629,74.8987423 76.4989159,74.8987423 C72.7063096,74.8987423 68.9137034,75.2250661 65.1210971,74.7355803 C62.6476583,74.4092564 60.3391154,73.4302847 59.3497398,70.6565316 C58.855052,69.3512361 58.0305724,68.2091024 57.3709887,67.0669688 C55.2273417,62.9879202 51.4347355,61.5194626 47.1474415,62.0089485 C44.5091067,61.1931387 42.0356678,61.6826246 40.5516045,64.1300538 Z M45.4984822,31.0081786 C45.0037944,30.3555309 44.6740026,30.029207 44.0144189,30.029207 C42.2005637,29.866045 40.3867086,29.5397211 38.5728534,29.7028831 C32.3068083,30.029207 26.7003469,32.1503123 21.4236774,35.4135512 C19.9396141,36.3925229 18.4555507,37.5346565 17.6310711,39.166276 C17.795967,39.3294379 17.795967,39.3294379 17.960863,39.4925999 C18.2906548,39.6557618 18.4555507,39.8189238 18.7853426,39.9820857 C21.9183651,41.2873813 22.9077407,43.8979724 23.4024284,46.9980494 C23.7322203,48.6296689 23.0726366,49.9349644 22.0832611,51.24026 C20.5991977,52.8718795 18.6204467,53.5245273 16.6416956,54.0140131 C14.6629445,54.5034989 14.3331526,55.1561467 15.1576323,57.1140901 C15.3225282,57.6035759 15.65232,58.0930618 15.9821119,58.4193857 C17.960863,60.8668149 20.2694059,63.1510821 23.0726366,64.6195396 C25.3811795,65.7616733 27.8546184,66.7406449 30.1631613,67.8827786 C31.9770165,68.8617502 32.1419124,68.8617502 33.2961839,67.2301308 C34.7802472,65.1090255 36.7589983,63.1510821 38.7377493,61.5194626 C40.8813964,59.5615193 43.6846271,58.5825476 46.4878578,58.2562237 C51.1049436,57.6035759 58.0305724,60.8668149 60.5040113,66.2511591 C60.8338031,67.0669688 61.3284909,67.8827786 61.8231787,68.6985883 C62.4827624,70.0038839 63.6370338,70.6565316 64.9562012,70.9828555 C65.9455768,71.3091794 66.7700564,71.1460175 67.7594319,71.1460175 C74.5201648,70.9828555 81.4457936,70.6565316 88.2065265,70.9828555 C91.9991327,71.1460175 95.626843,70.6565316 97.4406982,66.414321 C97.6055941,66.0879971 97.77049,65.9248352 98.1002819,65.5985113 C100.738617,62.4984343 103.541847,59.7246812 107.664245,58.5825476 C112.116435,57.277252 116.238833,58.0930618 120.361232,60.2141671 C122.83467,61.5194626 124.648526,63.3142441 125.967693,65.7616733 C126.957069,67.5564547 127.616652,69.514398 128.276236,71.4723414 C129.100716,73.5934467 130.914571,75.0619042 132.893322,74.8987423 C133.552905,74.8987423 134.212489,74.5724184 134.872073,74.5724184 C144.930724,72.614475 150.866977,64.6195396 150.866977,54.9929848 C150.866977,52.0560697 150.37229,49.6086405 148.72333,47.3243733 C148.393539,46.8348875 148.228643,46.3454016 148.228643,45.6927538 C148.393539,44.7137822 148.063747,43.8979724 146.909475,44.0611344 C146.249892,44.0611344 145.9201,43.7348105 145.9201,43.2453246 C145.755204,41.4505432 144.436036,40.4715715 143.116869,39.6557618 C139.983846,37.6978185 136.521032,36.3925229 132.893322,35.5767131 C130.090091,34.9240654 127.451756,33.9450937 124.648526,33.9450937 C122.999566,33.9450937 121.350607,34.1082556 119.701648,34.1082556 C118.877168,34.1082556 118.052689,34.1082556 117.722897,33.2924459 C116.898417,31.8239884 115.909042,30.6818548 115.249458,29.0502353 C113.105811,23.6658911 110.632372,18.2815468 107.004662,13.5498504 C105.190807,11.1024212 103.212056,8.49183002 100.408825,7.02337251 C95.1321552,4.24961942 89.8554857,1.47586632 83.4245447,1.80219022 C80.621314,1.96535216 77.8180833,2.61799995 75.1797485,3.10748579 C71.88183,3.76013358 68.7488075,5.22859109 65.450889,6.53388667 C60.0093235,8.81815392 56.2167173,12.5708787 53.2485906,17.4657371 C50.280464,21.7079477 47.3123374,25.9501583 45.4984822,31.0081786 Z M46.6527537,65.1090255 C45.6633781,65.1090255 41.5409801,66.577483 40.8813964,66.9038069 C39.0675412,68.2091024 38.5728534,70.8196936 39.562229,73.1039608 C40.7165004,76.0408759 43.1899393,77.5093334 46.1580659,77.8356573 C49.1261925,78.1619812 51.7645273,76.8566856 53.5783825,74.4092564 C54.7326539,72.9407989 55.2273417,71.1460175 54.2379662,69.3512361 C52.424111,66.7406449 49.9506722,65.2721874 46.6527537,65.1090255 Z M19.6098222,46.8348875 C19.6098222,44.7137822 18.6204467,43.0821627 16.9714874,42.266353 C15.65232,41.6137052 15.3225282,41.7768671 14.8278404,43.0821627 C14.3331526,44.5506202 13.8384649,46.1822397 13.508673,47.6506972 C13.1788812,48.9559928 13.673569,49.9349644 14.1682567,51.0770981 C14.4980486,51.7297459 14.8278404,51.8929078 15.65232,51.8929078 C18.1257589,51.403422 19.7747181,49.4454786 19.6098222,46.8348875 Z" id="Shape"></path>
                <path d="M112.16375,79.9932113 C109.151864,79.8315513 106.307306,79.3465714 103.797401,77.406652 C100.618189,74.9817526 100.116208,70.6169338 102.458786,67.3837347 C103.462747,66.0904551 104.801363,64.9588354 106.139979,63.9888756 C106.307306,63.8272157 106.474633,63.6655557 106.474633,63.6655557 C109.821172,63.1805759 113.167711,62.3722761 116.179597,63.8272157 C119.191482,65.1204953 121.032079,67.7070546 121.868714,70.7785938 C122.203368,72.0718734 121.868714,73.3651531 121.199406,74.1734529 C119.024155,77.406652 116.514251,80.1548712 112.16375,79.9932113 Z M111.661769,77.406652 C112.331077,77.244992 113.502365,77.0833321 114.506327,76.7600122 C117.016232,75.9517124 118.689501,73.3651531 118.522174,70.9402537 C118.354847,68.6770144 116.514251,66.7370949 113.669692,66.0904551 C113.167711,65.9287951 112.66573,65.9287951 112.16375,65.9287951 C108.649883,65.2821553 106.307306,67.2220748 104.466709,69.6469741 C103.797401,70.4552739 103.797401,71.2635737 103.964728,72.2335334 C104.801363,75.6283925 107.478595,77.5683119 111.661769,77.406652 Z" id="Shape"></path>
                <path d="M3.99806423,30.0408661 C5.00875412,29.8837671 5.51409906,30.1979651 6.019444,30.6692622 C7.36703052,31.7689554 8.88306535,32.8686486 10.0622036,34.1254408 C10.5675485,34.5967379 11.5782384,35.068035 10.5675485,36.0106291 C9.72530693,36.7961243 8.71461704,37.4245204 7.70392715,36.6390252 C6.019444,35.225134 4.50340917,33.6541437 3.15582266,31.9260544 C2.65047771,31.1405593 3.49271929,30.0408661 3.99806423,30.0408661 Z" id="Path"></path>
                <path d="M4.18973488,44.8729731 C3.56903341,44.8729731 2.63798122,44.7459462 1.70692902,44.6189193 C0.155175366,44.4918924 0,44.2378386 0,42.9675696 C0,42.2054082 0.620701463,41.8243275 1.39657829,42.0783813 C2.79315658,42.459462 4.03455951,42.459462 5.4311378,42.7135158 C6.20701463,42.8405427 7.13806683,43.0945965 6.98289146,43.9837848 C6.8277161,44.6189193 6.05183927,45 5.12078707,45 C4.81043634,44.8729731 4.65526097,44.8729731 4.18973488,44.8729731 Z" id="Path"></path>
                <path d="M2.64404072,58 C1.68303141,58 1.20252676,57.8636364 1.04235854,56.9090909 C1.04235854,56.2272727 0.7220221,55.5454545 1.84319963,55.4090909 C3.12454538,55.1363636 4.40589112,55 5.68723687,55 C6.32790974,55 6.8084144,55.4090909 6.96858262,55.8181818 C7.12875083,56.3636364 6.64824618,56.5 6.16774152,56.7727273 C5.046564,57.1818182 3.92538647,57.7272727 2.64404072,58 Z" id="Path"></path>
                <path d="M81.2882741,36.7183223 C78.9512732,37.381536 76.4473436,36.7183223 73.943414,36.7183223 C68.7686262,36.7183223 63.4269098,36.3867155 58.252122,36.2209121 C56.5828356,36.2209121 54.7466206,36.3867155 53.0773342,36.5525189 C51.7419051,36.7183223 51.0741905,36.2209121 51.0741905,34.8944847 C51.0741905,34.231271 50.9072619,33.4022539 51.0741905,32.9048437 C52.242691,30.2519889 52.4096196,27.1017239 53.7450487,24.4488692 C54.078906,23.9514589 54.4127633,23.2882452 54.4127633,22.790835 C56.9166929,13.8374502 63.2599811,9.02915103 71.4394844,5.71308261 C72.107199,5.38147577 72.7749135,5.21567235 73.4426281,5.04986892 C77.1150582,3.39183471 80.7874882,3.88924498 84.2929896,5.21567235 C94.1417793,8.69754419 100.985854,15.4954844 105.659855,24.6146726 C106.995285,27.2675273 108.497642,29.9203821 109.499214,32.9048437 C109.666143,33.5680573 110,34.231271 110,34.8944847 C110,35.7235018 110,36.7183223 109.666143,37.381536 C109.165357,38.54216 108.163785,37.7131429 107.329142,37.7131429 C99.9842817,38.0447497 92.6394216,37.2157326 85.2945615,37.2157326 C83.7922037,37.2157326 82.4567746,37.0499292 82.289846,35.0602881 C82.289846,34.5628779 81.9559887,34.231271 81.4552028,34.231271 C80.7874882,34.3970744 80.9544169,35.0602881 81.1213455,35.5576984 C81.1213455,35.5576984 81.6221314,36.0551087 81.2882741,36.7183223 Z M78.4504873,5.87888603 C75.6127004,5.87888603 73.6095567,6.87370656 71.4394844,7.70272366 C65.2631248,10.5213818 60.2552656,14.5006639 57.7513361,21.1328008 C56.4159069,24.6146726 54.9135492,27.930741 54.2458346,31.7442197 C53.7450487,34.3970744 53.7450487,34.5628779 56.4159069,34.5628779 C56.5828356,34.5628779 56.7497642,34.5628779 56.9166929,34.5628779 C62.2584093,34.5628779 67.6001257,34.7286813 72.9418422,35.0602881 C75.1119145,35.2260916 77.2819868,34.8944847 79.6189877,34.8944847 C78.7843445,25.1120829 78.2835586,15.6612879 78.4504873,5.87888603 Z M81.6221314,6.21049287 C81.6221314,8.20013392 81.6221314,10.189775 81.78906,12.179416 C82.1229173,15.9928947 82.7906319,19.9721768 82.9575605,23.7856555 C83.1244892,26.4385102 83.2914178,29.091365 83.4583464,31.9100231 C83.6252751,34.5628779 83.6252751,34.5628779 86.2961333,34.7286813 C86.6299906,34.7286813 86.7969192,34.7286813 87.1307765,34.7286813 C90.3024206,34.8944847 93.4740648,34.7286813 96.4787803,35.0602881 C99.3165671,35.391895 101.987425,35.5576984 104.825212,35.391895 C107.329142,35.2260916 107.162213,35.2260916 106.494499,33.0706471 C104.491355,26.9359205 101.319711,21.630211 97.1464948,16.6561084 C93.1402075,11.5162023 87.9654197,8.0343305 81.6221314,6.21049287 Z" id="Shape"></path>
            </g>
        </g>
    </g>
</svg>