<?xml version="1.0" encoding="UTF-8"?>
<svg width="89px" height="92px" viewBox="0 0 89 92" version="1.1" xmlns="http://www.w3.org/2000/svg" xmlns:xlink="http://www.w3.org/1999/xlink">
    <!-- Generator: Sketch 61.2 (89653) - https://sketch.com -->
    <title>ethical-dark</title>
    <desc>Created with Sketch.</desc>
    <g id="Welcome" stroke="none" stroke-width="1" fill="none" fill-rule="evenodd">
        <g id="Home-Page" transform="translate(-806.000000, -2530.000000)" fill="#494562" fill-rule="nonzero">
            <g id="ethical-dark" transform="translate(850.500000, 2576.000000) scale(-1, 1) translate(-850.500000, -2576.000000) translate(806.000000, 2530.000000)">
                <path d="M87.4945646,76.5620057 C81.6165043,77.7414873 75.8560052,79.298403 70.0602377,80.843524 C68.0264288,80.1122454 65.9808638,79.3927616 63.9588111,78.6496881 C67.2081574,77.0366701 70.5812235,75.6877357 74.0455626,74.615861 C74.5726698,74.470482 74.9824326,74.0540124 75.1204974,73.5233322 C75.2585623,72.9926519 75.1039537,72.428384 74.7149113,72.0430827 C74.3258689,71.6577814 73.7614975,71.5099832 73.2343903,71.6553621 C70.130414,72.1361309 67.1437441,73.196308 64.4290559,74.7809884 C63.6178836,75.193807 60.9022197,76.8096968 61.0432932,77.4820013 C59.4914852,76.8804657 57.9631896,76.2081612 56.44665,75.4886774 C59.056952,74.4842225 61.4899627,73.0665997 63.6531519,71.2897228 C65.0403742,70.1102411 63.2299316,67.7512779 61.7486604,68.8010165 C58.9145884,70.7431663 55.7633593,72.1722741 52.4378129,73.0235608 C52.3235005,73.0485476 52.2128682,73.0881892 52.1086415,73.1415089 L52.0263486,73.1415089 C47.5417359,71.0365529 43.2192533,68.6001103 39.0946159,65.8523125 C46.9712168,58.3272197 53.7780106,49.7759779 58.1395314,39.9037166 C61.6663676,31.7417038 64.146909,21.8694425 62.0190512,12.9879459 C60.243877,5.54541677 53.7897667,-1.27198704 45.6427751,0.202364992 C40.7931637,1.0950679 36.92281,4.77013814 35.7676338,9.57924394 C32.7669898,5.92114762 28.7085903,3.28769287 24.1525866,2.04235633 C16.2427258,0.0719017033 7.93751667,3.16617863 3.22669186,9.8387299 C-2.74541743,18.0951013 0.558052473,27.0709565 5.18996401,35.0560471 C10.0682791,43.4464736 16.1483706,51.0725975 23.2356092,57.6902996 C26.292205,60.5244636 29.519461,63.1675494 32.8991404,65.6046213 C27.4207881,70.440496 21.6250207,75.0404744 16.0643756,79.6404527 C14.8887635,80.584038 14.8887635,80.8199343 14.4772993,79.876349 C14.4772993,76.6445694 14.4772993,77.1281568 14.547836,73.8963772 C14.547836,72.2451029 12.0672946,72.2568977 11.9850017,73.8963772 C11.7381232,77.8712303 11.7381232,81.869673 11.2208539,85.8209364 C11.1032927,86.8588803 12.302417,87.51939 13.1606138,87.3070833 C19.6189544,85.8430896 25.9860522,83.9999269 32.2290415,81.7871093 C33.5574831,81.2799322 33.5339709,78.8737896 31.8528456,79.0507119 C27.4566647,79.5893085 23.1247696,80.5652175 18.9211129,81.9640315 C25.0744202,77.7124726 30.9634231,73.0881752 36.5552939,68.1169172 C40.9784163,71.0464435 45.620177,73.629306 50.4392723,75.8425219 C50.6104395,75.9175972 50.7935517,75.961529 50.9800539,75.9722648 C50.8128821,76.1844838 50.718094,76.4449756 50.7096631,76.7153383 C50.5987382,79.4679301 51.0055368,82.2168572 51.9087874,84.8183771 C52.449569,86.3045239 54.7772809,85.7265779 54.2600116,84.1460725 C53.6024243,81.9251454 53.2620277,79.6218912 53.2489852,77.3050791 C55.2122573,78.3430229 57.2460662,79.3809667 59.3151434,80.3245521 C59.2364347,80.5981112 59.2364347,80.8884249 59.3151434,81.161984 C59.7501199,83.5209473 60.1968525,85.8799105 60.6435851,88.2388738 C61.0080248,90.149634 63.8412499,90.0552755 63.5355907,88.0501567 C63.2299316,86.045038 62.9125163,83.8512021 62.5951011,81.7517248 C64.0293478,82.3296708 65.4871068,82.8368479 66.9566218,83.2732561 C66.9551206,83.3007568 66.9551206,83.3283192 66.9566218,83.3558198 C67.9661311,86.0882862 69.144016,88.7551289 70.483458,91.3409105 C70.8005284,91.9106627 71.4927384,92.1517299 72.0934657,91.9016075 C72.6941931,91.651485 73.0128732,90.9895176 72.8346822,90.3619407 C72.2093995,88.2618358 71.447536,86.2051258 70.5539948,84.2050466 L70.5539948,84.2050466 C70.7891172,84.2050466 71.4944844,84.6060704 71.7296068,84.6768393 C72.9052189,85.077863 73.7163912,83.8276125 72.8111699,83.0373598 C77.9603508,81.7281352 83.1212877,81.032241 88.1881757,79.3927616 C88.8037951,79.075986 89.1218497,78.3763721 88.9566839,77.7022998 C88.7915181,77.0282276 88.1864059,76.5563058 87.4945646,76.5620057 L87.4945646,76.5620057 Z M35.5089991,63.2574529 C27.4578436,57.3941686 20.3321882,50.3484387 14.3714942,42.3570384 C12.0690129,39.2586561 9.95306144,36.0250492 8.0349452,32.6734942 C5.68372107,28.6868463 3.27371634,24.2637902 3.33249694,19.5340689 C3.41478979,11.631542 10.8329019,4.88490706 18.4861364,4.47208849 C25.3752231,4.10644918 31.9704068,8.35258305 35.497243,14.2499912 C35.7937944,16.2413179 36.5818325,18.1266711 37.7896865,19.7345808 C38.8242252,21.1145743 41.5634013,20.3950905 40.858034,18.437151 C40.4127546,17.1967494 39.8865083,15.9871272 39.2827139,14.8161424 C38.1338854,11.0735821 39.5673016,7.01804329 42.8095501,4.83772779 C46.8536556,2.25466303 51.7089334,3.23363278 55.0006472,6.57156579 C62.0543195,13.8371726 59.2916312,26.7996757 56.0704541,35.2211746 C51.7089334,46.555993 44.1262356,55.3313363 35.5089991,63.2574529 Z" id="Shape"></path>
            </g>
        </g>
    </g>
</svg>