<?xml version="1.0" encoding="UTF-8"?>
<svg width="42px" height="42px" viewBox="0 0 42 42" version="1.1" xmlns="http://www.w3.org/2000/svg" xmlns:xlink="http://www.w3.org/1999/xlink">
    <!-- Generator: Sketch 61.2 (89653) - https://sketch.com -->
    <title>facebook-icon</title>
    <desc>Created with Sketch.</desc>
    <g id="Welcome" stroke="none" stroke-width="1" fill="none" fill-rule="evenodd">
        <g id="Thankyou" transform="translate(-217.000000, -479.000000)" fill="#803D85">
            <path d="M239.96875,521 L239.96875,504.40625 L234.25,504.40625 L234.25,498.03125 L239.96875,498.03125 L239.96875,493.34375 C239.96875,490.71875 240.703125,488.671875 242.171875,487.203125 C243.640625,485.734375 245.625,485 248.125,485 C250.0625,485 251.6875,485.09375 253,485.28125 L253,485.28125 L253,490.90625 L249.625,490.90625 C248.4375,490.90625 247.59375,491.1875 247.09375,491.75 C246.71875,492.25 246.53125,493 246.53125,494 L246.53125,494 L246.53125,498.03125 L253,498.03125 L252.15625,504.40625 L246.53125,504.40625 L246.53125,521 L254.5,521 C255.75,521 256.8125,520.5625 257.6875,519.6875 C258.5625,518.8125 259,517.75 259,516.5 L259,516.5 L259,483.5 C259,482.25 258.5625,481.1875 257.6875,480.3125 C256.8125,479.4375 255.75,479 254.5,479 L254.5,479 L221.5,479 C220.25,479 219.1875,479.4375 218.3125,480.3125 C217.4375,481.1875 217,482.25 217,483.5 L217,483.5 L217,516.5 C217,517.75 217.4375,518.8125 218.3125,519.6875 C219.1875,520.5625 220.25,521 221.5,521 L221.5,521 L239.96875,521 Z" id="facebook-icon"></path>
        </g>
    </g>
</svg>