<?xml version="1.0" encoding="UTF-8"?>
<svg width="59px" height="47px" viewBox="0 0 59 47" version="1.1" xmlns="http://www.w3.org/2000/svg" xmlns:xlink="http://www.w3.org/1999/xlink">
    <!-- Generator: Sketch 61.2 (89653) - https://sketch.com -->
    <title>heart-dark</title>
    <desc>Created with Sketch.</desc>
    <g id="Welcome" stroke="none" stroke-width="1" fill="none" fill-rule="evenodd">
        <g id="How-it-works" transform="translate(-922.000000, -476.000000)" fill="#494562" fill-rule="nonzero">
            <g id="heart-dark" transform="translate(922.000000, 476.000000)">
                <path d="M21.6816193,37.9605022 C23.253639,40.1420306 24.8940074,50.3679446 30.0201586,45.8685424 C31.7972243,44.3005689 32.8224546,41.6418313 34.2577769,39.732994 C36.3082374,36.9379108 41.1609938,38.301366 44.3050332,38.5058843 C47.5174213,38.6422298 52.2334804,39.8693395 55.2408225,38.4377116 C57.496329,37.3469474 57.3596316,35.0972463 57.496329,32.915718 C57.701375,26.9846878 59,21.1218304 59,15.1908003 C59,11.577644 58.5899079,7.35093287 57.2912829,3.94229486 C56.2660527,1.21538444 54.4889869,1.01086616 51.686691,0.670002361 C42.4596188,-0.488934564 32.7541059,0.192793039 23.458685,0.2609658 C19.2210667,0.2609658 14.9150997,0.32913856 10.6774814,0.533656841 C7.80683671,0.670002361 3.63756707,0.32913856 1.92885001,3.26056725 C0.356830306,5.98747766 0.903619767,10.3505343 0.766922402,13.4183085 C0.493527671,17.9858835 0.151784258,22.6898039 0.0150868931,27.3255516 C-0.0532617895,30.6660169 0.0150868931,34.6882097 2.3389421,37.3469474 C3.63756707,38.8467481 5.41463282,38.6422298 7.19169857,38.6422298 C9.92564587,38.5740571 12.5912445,38.5740571 15.3251918,38.5058843 C16.7605141,38.5058843 21.0664811,37.6878112 22.2967574,38.5740571 C24.0738232,39.8693395 25.7825402,36.8697381 24.0054745,35.6426284 C21.8183167,34.0746549 17.1022575,35.0972463 14.5733563,35.1654191 C12.6595932,35.2335918 10.8141787,35.2335918 8.90041563,35.3017646 C8.01188276,35.3017646 6.30316569,35.7108012 5.4829815,35.3699374 C2.88573156,34.2791732 3.36417234,29.0980434 3.50086971,26.8483423 C3.63756707,23.0306677 3.9109618,19.2129932 4.11600785,15.3271458 C4.18435653,13.6228268 4.3210539,11.850335 4.38940258,10.146016 C4.45775126,9.25977016 4.45775126,8.44169703 4.52609995,7.55545115 C4.66279731,5.9193049 4.52609995,5.78295938 5.82472492,4.82854074 C8.28527749,3.05604897 14.0949155,3.80594933 17.1022575,3.73777657 C24.552264,3.60143105 31.9339217,3.66960381 39.3839281,3.73777657 C42.7330135,3.73777657 46.082099,3.66960381 49.3628357,3.8741221 C50.7981581,4.01046762 52.9853159,3.80594933 54.0788949,4.8967135 C54.9674277,5.85113214 55.1724738,9.39611568 55.3091711,10.6232254 C56.0610066,16.0770462 55.0357764,21.3945215 54.5573356,26.8483423 C54.3522896,28.8935251 54.3522896,30.9387079 54.0788949,32.9838907 C53.9421975,34.1428277 54.2155922,35.0290735 52.7802699,35.5062829 C51.3449475,35.9834922 48.4743029,35.3017646 46.9706319,35.2335918 C43.2114543,35.0290735 38.9054873,34.2110004 35.1463098,34.7563825 C33.369244,35.0290735 32.4807111,36.1880105 31.5238296,37.6196384 C30.9086914,38.5058843 28.7898823,42.9371137 27.8330007,43.0734593 C26.6027244,43.2779775 25.3040995,37.3469474 24.552264,36.324356 C23.3219877,34.4836915 20.3829943,36.1880105 21.6816193,37.9605022 Z" id="Path"></path>
                <path d="M30.1899388,15.6433179 C27.3110489,11.8486334 19.1430356,6.56318012 16.1302438,13.0683534 C14.992078,15.5077934 14.3225687,18.8959045 16.0632929,21.1998201 C18.2726735,24.2491201 22.6244839,27.3661823 25.8381285,29.3312867 C29.1856749,31.3641534 31.930663,28.3148534 34.6087001,26.1464623 C37.3536882,23.9780712 40.6342837,21.470869 40.9690384,17.6761845 C41.2368421,14.8301712 39.7639216,11.2387734 36.6841789,10.6289134 C33.0018778,9.883529 29.9221351,12.7973046 27.6458035,15.3045068 C26.1728831,16.8630379 28.5161656,19.3024779 29.989086,17.6761845 C31.2611537,16.3209401 32.6671232,14.6268845 34.5417492,14.2203112 C38.491854,13.4071646 37.9562466,18.3538068 36.1485715,20.3866734 C34.742602,22.0129668 32.867976,23.3682112 31.1942028,24.6556934 C29.1856749,26.1464623 27.9136073,26.6885601 25.7042266,25.0622667 C23.1600913,23.1649245 18.0048698,20.251149 18.6074282,16.7275134 C19.4777902,11.1710112 25.2355701,14.4913601 27.4449508,17.4051357 C28.5831165,19.031429 31.4620065,17.3373734 30.1899388,15.6433179 Z" id="Path"></path>
            </g>
        </g>
    </g>
</svg>