<?xml version="1.0" encoding="UTF-8"?>
<svg width="66px" height="66px" viewBox="0 0 66 66" version="1.1" xmlns="http://www.w3.org/2000/svg" xmlns:xlink="http://www.w3.org/1999/xlink">
    <!-- Generator: Sketch 53 (72520) - https://sketchapp.com -->
    <title>job</title>
    <desc>Created with Sketch.</desc>
    <g id="2.0" stroke="none" stroke-width="1" fill="none" fill-rule="evenodd">
        <g id="home---Desktop" transform="translate(-936.000000, -1316.000000)" fill="#000000">
            <g id="job" transform="translate(937.000000, 1317.000000)">
                <path d="M11.9821353,28.2143039 C10.5067587,28.2143039 9.9198475,27.207432 9.88411842,26.0677017 C9.86649194,25.555103 9.44012378,25.4029016 8.95992369,25.4029016 C8.31965691,25.4029016 8,25.612115 8,26.3715958 C8,28.5752101 9.67117252,30 12.0531174,30 C14.2397427,30 16,28.8409265 16,25.7638076 L16,16.6648001 C16,16.2280479 15.5731555,16 15.1644137,16 L12.0354909,16 C11.1808491,16 11.2261061,17.785696 12.0354909,17.785696 L14.1154052,17.785696 L14.1154052,25.7638076 C14.1154052,27.4354798 13.3331746,28.2143039 11.9821353,28.2143039 Z" id="Path"></path>
                <path d="M27,25.7638076 L27,20.2361924 C27,17.1590735 25.2358558,16 22.9914061,16 C20.7283361,16 19,17.1590735 19,20.2361924 L19,25.7638076 C19,28.8414355 20.7283361,30 22.9914061,30 C25.2358558,30 27,28.8414355 27,25.7638076 Z M20.8887563,25.7638076 L20.8887563,20.2361924 C20.8887563,18.5645202 21.6545715,17.785696 22.9909285,17.785696 C24.309143,17.785696 25.1112437,18.5645202 25.1112437,20.2361924 L25.1112437,25.7638076 C25.1112437,27.4354798 24.3096204,28.2143039 22.9909285,28.2143039 C21.6550489,28.2143039 20.8887563,27.4354798 20.8887563,25.7638076 Z" id="Shape" fill-rule="nonzero"></path>
                <path d="M36.6784959,19.313318 C36.6784959,16.6132922 34.986009,16 33.0796336,16 L29.8369336,16 C29.4096344,16 29,16.2299205 29,16.6702591 L29,29.349243 C29,29.6936105 29.3203551,30 29.8369336,30 L33.4539382,30 C37.5063583,30 36.9468113,25.7628945 36.9993284,25.6145753 C36.9993284,23.6607646 36.2688615,22.8755453 35.1640901,22.4162176 C36.0907804,21.9753656 36.6784959,20.9032589 36.6784959,19.313318 Z M30.8705682,17.8003591 L32.9550246,17.8003591 C34.0774609,17.8003591 34.7902629,18.3556581 34.7902629,19.6392096 C34.7902629,20.9412368 34.20207,21.611496 32.9908318,21.611496 L30.8705682,21.611496 L30.8705682,17.8003591 Z M33.097776,28.1996407 L30.8705682,28.1996407 L30.8705682,23.220426 L33.097776,23.220426 C34.3624862,23.220426 35.110618,23.833205 35.110618,25.518604 C35.0681268,25.6715422 35.4433862,28.1996407 33.097776,28.1996407 Z" id="Shape" fill-rule="nonzero"></path>
                <path d="M14.3419934,38.9048381 C13.8361028,38.6297005 13.6490855,37.9967123 13.9241925,37.4907661 C14.1992733,36.9848679 14.8327001,36.7977302 15.3381537,37.0729199 C25.9506556,42.8455439 39.0104259,35.1949798 39.0104259,23.0019478 C39.0104259,18.7170464 37.347277,14.6945349 34.3266241,11.6735709 C28.0756891,5.4229635 17.9226631,5.4229635 11.6727076,11.6735627 C5.13891333,18.2085171 5.47228936,28.9332435 12.4430136,35.0516524 C12.8755329,35.4317678 12.9184752,36.0901731 12.5386544,36.5229866 C12.1587271,36.9559214 11.4998378,36.998726 11.067405,36.6186866 C3.19225738,29.706941 2.81105857,17.5873709 10.1982211,10.1994474 C17.2634995,3.13344149 28.7359761,3.13359354 35.8011,10.199445 C42.8663756,17.2649569 42.8662236,28.7385992 35.8011025,35.8044479 C30.0736485,41.5324917 21.3124931,42.6970398 14.3419934,38.9048381 Z" id="Path" stroke="#000000" stroke-width="0.2"></path>
                <path d="M62.7080069,52.9473841 C63.6189604,54.1588809 64.1004949,55.6038896 64.0999996,57.1251477 C64.0999996,63.2896011 56.6062816,66.4411166 52.2119741,62.0484106 L39.8675125,49.7070653 C39.1597677,48.9989822 39.1599275,47.8531316 39.8680268,47.1457279 L42.7832399,44.2312506 L39.0686051,40.5340274 C29.8739024,48.9597116 15.6270224,48.6890236 6.75123907,39.8154807 C-1.08646485,31.9797552 -2.290138,19.8316065 3.59291944,10.6697628 C3.9035512,10.1852996 4.54860725,10.0447567 5.03270001,10.3558807 C5.51678451,10.6664592 5.65728363,11.3108213 5.34660815,11.7953527 C-0.0146961709,20.1441643 1.09108848,31.2103646 8.22501135,38.342009 C16.5498774,46.6647736 30.0241836,46.664323 38.3485989,38.342009 C46.67362,30.0190895 46.6733195,16.5487162 38.3485989,8.22609711 C29.7515442,-0.368787467 15.7391827,-0.0500736692 7.53317578,8.95081268 C7.14520097,9.37596474 6.48610311,9.40653116 6.06106377,9.01885498 C5.63541869,8.63111885 5.60500875,7.97212425 5.99298301,7.54697296 C15.0027194,-2.33119909 30.3821383,-2.68522688 39.8223731,6.75311566 C48.6928759,15.6218665 48.974443,29.8621261 40.542393,39.0610589 L44.2570425,42.7582967 L47.1545664,39.8610276 C47.8628143,39.1534754 49.0089107,39.1536351 49.7164791,39.8615416 L59.9905661,50.1330352 C60.3973917,50.5397579 60.3973917,51.199244 59.9905662,51.6065068 C59.5837469,52.0132234 58.9236133,52.0132234 58.5167939,51.6065068 L48.4355099,41.5277677 L41.5346392,48.4268963 L53.6862402,60.5749445 C56.7585176,63.6469229 62.0162217,61.4478246 62.0162217,57.1251477 C62.0162217,56.0584924 61.6794566,55.0473463 61.0418814,54.1993749 C60.6960688,53.7391281 60.7886166,53.086113 61.2487779,52.7405392 C61.7089475,52.3944192 62.3621626,52.4871113 62.7080069,52.9473841 Z M62.7080069,52.9473841 C62.7080105,52.9473889 62.7080141,52.9473937 62.7080177,52.9473985 L62.7079961,52.9473697 C62.7079997,52.9473745 62.7080033,52.9473793 62.7080069,52.9473841 Z" id="Path" stroke="#000000" stroke-width="0.2"></path>
            </g>
        </g>
    </g>
</svg>