<svg xmlns="http://www.w3.org/2000/svg" viewBox="0 0 193.86 32.97"><defs><style>.cls-1{fill:#494562;}.cls-2{fill:#033fa7;}.cls-3{fill:#98e5f9;}</style></defs><title>letsmakeone-logo</title><g id="Layer_2" data-name="Layer 2"><g id="Layer_1-2" data-name="Layer 1"><path class="cls-1" d="M37.16,10.42h2.72V22.76h7.66v2.3H37.16Z"/><path class="cls-1" d="M59.52,20.32H50.76A3,3,0,0,0,52,22.27a4,4,0,0,0,2.42.72,4,4,0,0,0,3-1.21l1.4,1.61a4.7,4.7,0,0,1-1.9,1.36,7.57,7.57,0,0,1-5.84-.27,5.32,5.32,0,0,1-2.16-2,5.75,5.75,0,0,1-.76-3,5.79,5.79,0,0,1,.74-2.94,5.25,5.25,0,0,1,2.06-2,6,6,0,0,1,3-.73,5.88,5.88,0,0,1,2.92.72,5.14,5.14,0,0,1,2,2,6.06,6.06,0,0,1,.73,3C59.57,19.72,59.55,20,59.52,20.32ZM51.8,16.6a3.17,3.17,0,0,0-1.06,2h6.34a3.06,3.06,0,0,0-3.16-2.72A3.17,3.17,0,0,0,51.8,16.6Z"/><path class="cls-1" d="M68.24,24.46a3,3,0,0,1-1.12.56,4.91,4.91,0,0,1-1.39.19,4,4,0,0,1-2.85-1,3.7,3.7,0,0,1-1-2.8V16.07H60V14h1.84V11.43h2.61V14h3v2.09h-3v5.31a1.76,1.76,0,0,0,.4,1.25,1.51,1.51,0,0,0,1.15.43,2.32,2.32,0,0,0,1.46-.46Z"/><path class="cls-1" d="M72.32,9.88a1.67,1.67,0,0,1,.48,1.23,3.06,3.06,0,0,1-.09.74c-.07.23-.19.59-.37,1.06l-1.09,3H69.56l.83-3.22a1.44,1.44,0,0,1-.72-.57,1.84,1.84,0,0,1-.26-1,1.72,1.72,0,0,1,2.91-1.23Z"/><path class="cls-1" d="M75.41,24.86a6.69,6.69,0,0,1-2.07-.9l1-2a6.43,6.43,0,0,0,1.81.8,7.24,7.24,0,0,0,2.08.31c1.56,0,2.34-.41,2.34-1.24A.82.82,0,0,0,80,21a9.91,9.91,0,0,0-1.92-.44,15.87,15.87,0,0,1-2.25-.48,3.47,3.47,0,0,1-1.5-.95,2.67,2.67,0,0,1-.64-1.9A3,3,0,0,1,75,14.72a6.07,6.07,0,0,1,3.59-1,10.67,10.67,0,0,1,2.3.26,6.79,6.79,0,0,1,1.88.7l-1,2a6.14,6.14,0,0,0-3.2-.84,3.54,3.54,0,0,0-1.74.35,1,1,0,0,0-.6.91.91.91,0,0,0,.64.89,11,11,0,0,0,2,.49A15.43,15.43,0,0,1,81,19a3.47,3.47,0,0,1,1.48.92,2.56,2.56,0,0,1,.61,1.84,2.9,2.9,0,0,1-1.36,2.51,6.37,6.37,0,0,1-3.7.94A10.25,10.25,0,0,1,75.41,24.86Z"/><path class="cls-1" d="M104.19,25.06l0-9.7-4.82,8H98.14l-4.81-7.9v9.57H90.74V10.42H93l5.81,9.71,5.71-9.71h2.24l0,14.64Z"/><path class="cls-1" d="M118,15a4.59,4.59,0,0,1,1.31,3.57v6.54H116.8V23.7a3,3,0,0,1-1.37,1.12,5.31,5.31,0,0,1-2.14.39,5.2,5.2,0,0,1-2.2-.43,3.31,3.31,0,0,1-1.45-1.19,3.15,3.15,0,0,1,.6-4.14,5.55,5.55,0,0,1,3.53-.91h2.88v-.17a2.29,2.29,0,0,0-.7-1.8,3,3,0,0,0-2.08-.62,5.86,5.86,0,0,0-1.85.29,4.6,4.6,0,0,0-1.54.81l-1-1.9a6.1,6.1,0,0,1,2.11-1,9.25,9.25,0,0,1,2.61-.36A5.44,5.44,0,0,1,118,15Zm-2.38,7.91a2.48,2.48,0,0,0,1.07-1.29v-1.3H114c-1.51,0-2.26.5-2.26,1.49a1.33,1.33,0,0,0,.56,1.13,2.59,2.59,0,0,0,1.57.42A3.4,3.4,0,0,0,115.58,22.86Z"/><path class="cls-1" d="M126.51,20.27l-1.94,1.85v2.94H122V9.55h2.62v9.37l5.42-5h3.13l-4.66,4.68,5.1,6.48h-3.18Z"/><path class="cls-1" d="M144.69,20.32h-8.77a3.06,3.06,0,0,0,1.21,1.95,3.92,3.92,0,0,0,2.41.72,4,4,0,0,0,3-1.21L144,23.39a4.81,4.81,0,0,1-1.91,1.36,7.54,7.54,0,0,1-5.83-.27,5.28,5.28,0,0,1-2.17-2,5.75,5.75,0,0,1-.76-3,5.89,5.89,0,0,1,.74-2.94,5.31,5.31,0,0,1,2.06-2,6,6,0,0,1,3-.73,5.88,5.88,0,0,1,2.92.72,5.1,5.1,0,0,1,2,2,6.16,6.16,0,0,1,.72,3C144.73,19.72,144.71,20,144.69,20.32ZM137,16.6a3.17,3.17,0,0,0-1.06,2h6.34a3.07,3.07,0,0,0-1-2,3.11,3.11,0,0,0-2.13-.75A3.17,3.17,0,0,0,137,16.6Z"/><path class="cls-1" d="M155.39,24.3a7.25,7.25,0,0,1-2.82-2.7,7.42,7.42,0,0,1-1-3.86,7.41,7.41,0,0,1,1-3.85,7.18,7.18,0,0,1,2.82-2.7,8.82,8.82,0,0,1,8.08,0,7.2,7.2,0,0,1,2.82,2.68,7.47,7.47,0,0,1,1,3.87,7.41,7.41,0,0,1-1,3.87,7.16,7.16,0,0,1-2.82,2.69,8.9,8.9,0,0,1-8.08,0Zm6.68-2.07a4.78,4.78,0,0,0,1.84-1.84,5.56,5.56,0,0,0,0-5.29,4.78,4.78,0,0,0-1.84-1.84,5.59,5.59,0,0,0-5.27,0A4.65,4.65,0,0,0,155,15.1a5.56,5.56,0,0,0,0,5.29,4.65,4.65,0,0,0,1.84,1.84,5.59,5.59,0,0,0,5.27,0Z"/><path class="cls-1" d="M179.28,15a4.89,4.89,0,0,1,1.28,3.66v6.4H178V19a3.15,3.15,0,0,0-.7-2.21,2.56,2.56,0,0,0-2-.74,3,3,0,0,0-2.28.87,3.45,3.45,0,0,0-.84,2.5v5.64h-2.61V13.9h2.49v1.44a4,4,0,0,1,1.63-1.17,5.74,5.74,0,0,1,2.22-.4A4.67,4.67,0,0,1,179.28,15Z"/><path class="cls-1" d="M193.81,20.32h-8.76a3,3,0,0,0,1.2,1.95,4,4,0,0,0,2.42.72,4,4,0,0,0,3-1.21l1.4,1.61a4.7,4.7,0,0,1-1.9,1.36,7.57,7.57,0,0,1-5.84-.27,5.32,5.32,0,0,1-2.16-2,5.75,5.75,0,0,1-.76-3,5.79,5.79,0,0,1,.74-2.94,5.25,5.25,0,0,1,2.06-2,6,6,0,0,1,3-.73,5.88,5.88,0,0,1,2.92.72,5.14,5.14,0,0,1,2,2,6.16,6.16,0,0,1,.73,3C193.86,19.72,193.84,20,193.81,20.32Zm-7.73-3.72a3.16,3.16,0,0,0-1.05,2h6.34a3.16,3.16,0,0,0-1-2,3.11,3.11,0,0,0-2.13-.75A3.19,3.19,0,0,0,186.08,16.6Z"/><path class="cls-2" d="M15.18,33A15.18,15.18,0,1,0,0,17.79,15.18,15.18,0,0,0,15.18,33Z"/><path class="cls-3" d="M18.65.33l-.2,1A16.67,16.67,0,0,1,31.64,14.51l1-.19A17.75,17.75,0,0,0,18.65.33Z"/><path class="cls-3" d="M17.32,1.17l.11-1A21.23,21.23,0,0,0,15.18,0V1A17.21,17.21,0,0,1,17.32,1.17Z"/></g></g></svg>