<?xml version="1.0" encoding="UTF-8"?>
<svg width="42px" height="42px" viewBox="0 0 42 42" version="1.1" xmlns="http://www.w3.org/2000/svg" xmlns:xlink="http://www.w3.org/1999/xlink">
    <!-- Generator: Sketch 61.2 (89653) - https://sketch.com -->
    <title>linkedin-icon</title>
    <desc>Created with Sketch.</desc>
    <g id="Welcome" stroke="none" stroke-width="1" fill="none" fill-rule="evenodd">
        <g id="Thankyou" transform="translate(-217.000000, -399.000000)" fill="#803D85">
            <path d="M256,399 C256.8125,399 257.515625,399.296875 258.109375,399.890625 C258.703125,400.484375 259,401.1875 259,402 L259,402 L259,438 C259,438.8125 258.703125,439.515625 258.109375,440.109375 C257.515625,440.703125 256.8125,441 256,441 L256,441 L220,441 C219.1875,441 218.484375,440.703125 217.890625,440.109375 C217.296875,439.515625 217,438.8125 217,438 L217,438 L217,402 C217,401.1875 217.296875,400.484375 217.890625,399.890625 C218.484375,399.296875 219.1875,399 220,399 L220,399 Z M245.59375,414.46875 C244.15625,414.46875 242.875,414.8125 241.75,415.5 C240.8125,416.0625 240.125,416.78125 239.6875,417.65625 L239.6875,417.65625 L239.59375,417.65625 L239.59375,414.9375 L233.59375,414.9375 L233.59375,435 L239.78125,435 L239.78125,425.0625 C239.78125,423.5 240,422.3125 240.4375,421.5 C241.0625,420.4375 242.09375,419.90625 243.53125,419.90625 C244.96875,419.90625 245.90625,420.5 246.34375,421.6875 C246.65625,422.4375 246.8125,423.625 246.8125,425.25 L246.8125,425.25 L246.8125,435 L253,435 L253,424.03125 C253,420.90625 252.5625,418.625 251.6875,417.1875 C250.5,415.375 248.46875,414.46875 245.59375,414.46875 Z M229.75,414.9375 L223.46875,414.9375 L223.46875,435 L229.75,435 L229.75,414.9375 Z M226.5625,405 C225.5625,405 224.71875,405.359375 224.03125,406.078125 C223.34375,406.796875 223,407.640625 223,408.609375 C223,409.578125 223.34375,410.421875 224.03125,411.140625 C224.71875,411.859375 225.5625,412.21875 226.5625,412.21875 C227.5625,412.21875 228.421875,411.859375 229.140625,411.140625 C229.859375,410.421875 230.21875,409.578125 230.21875,408.609375 C230.21875,407.640625 229.859375,406.796875 229.140625,406.078125 C228.421875,405.359375 227.5625,405 226.5625,405 Z" id="linkedin-icon"></path>
        </g>
    </g>
</svg>