<?xml version="1.0" encoding="UTF-8"?>
<svg width="66px" height="68px" viewBox="0 0 66 68" version="1.1" xmlns="http://www.w3.org/2000/svg" xmlns:xlink="http://www.w3.org/1999/xlink">
    <!-- Generator: Sketch 53 (72520) - https://sketchapp.com -->
    <title>market</title>
    <desc>Created with Sketch.</desc>
    <g id="2.0" stroke="none" stroke-width="1" fill="none" fill-rule="evenodd">
        <g id="home---Desktop" transform="translate(-133.000000, -1548.000000)" fill="#000000">
            <g id="market" transform="translate(166.483051, 1582.000000) scale(-1, 1) translate(-166.483051, -1582.000000) translate(132.983051, 1548.000000)">
                <path d="M16.9770701,56.0101169 C16.9801906,56.0054476 16.9827908,56.0007783 16.9843511,55.9976653 C16.9859111,55.9950713 16.9874714,55.9924773 16.9890316,55.9898831 C16.9859111,55.9955901 16.9812306,56.0033724 16.9770701,56.0101169 Z" id="Path"></path>
                <path d="M16.9827908,55.9989623 C16.9843511,56.0020753 16.9859111,56.0046693 16.9869513,56.0067446 C16.9843511,56.0020753 16.9817506,55.997406 16.9791504,55.9932554 C16.9801906,55.9948118 16.9812306,55.996887 16.9827908,55.9989623 Z" id="Path"></path>
                <path d="M23.9963398,53.301956 L22.1056995,51.3399941 C23.7972181,49.9266138 24.9289609,48.3379501 25.4100024,46.7275653 C27.200066,46.2764758 28.5288987,44.6595241 28.5288987,42.7389838 C28.5288987,40.9159354 27.3306126,39.3661674 25.6746514,38.8281937 L25.6746514,37.724464 L25.9210138,37.724464 C26.7164847,37.724464 27.3631223,37.0814214 27.3631223,36.2918883 L27.3631223,29.7134567 C27.3631223,28.5268839 26.7581378,27.4766989 25.8402476,26.8528517 L25.8402476,26.4305551 C25.8402476,25.6278884 25.1179233,25 24.1959694,25 L10.8720854,25 C7.5378126,25 4.92484806,26.9220558 4.92484806,29.3750132 L4.92484806,36.1529749 C4.92484806,37.163254 5.78533839,37.9815801 6.96025806,38.1705022 L6.96025806,38.9514479 C5.48056025,39.5778209 4.43872696,41.0401997 4.43872696,42.7389838 C4.43872696,44.524652 5.58875646,46.0481527 7.19239738,46.6149192 C7.67089911,48.3212805 8.87985225,50.0094566 10.7146168,51.491536 L8.9646822,53.3070073 L8.9631584,53.3070073 C6.30447708,54.2667724 4.0135615,56.1403347 2.569929,58.6534038 C2.30121631,59.1201527 2.46427258,59.7141967 2.93363091,59.9814156 C3.40298924,60.2471189 4.00035438,60.0849692 4.26754315,59.6182203 C5.32512334,57.7779971 6.9226687,56.3479471 8.79654636,55.4806226 L10.4926366,60.7967107 C10.8050342,61.7488986 12.2141252,62.3737563 13.3732979,61.7367753 C13.3966643,62.2308018 13.6130567,62.6743142 13.9493287,62.9960882 L12.9979128,66.0547077 L8.898647,66.0547077 L8.898647,62.2782848 C8.898647,61.7413215 8.46078235,61.3058913 7.92081705,61.3058913 C7.38034383,61.3058913 6.94247931,61.7413215 6.94247931,62.2782848 L6.94247931,66.0547077 L4.39301018,66.0547077 C3.59093582,66.0547077 2.93921854,65.4066137 2.93921854,64.6089986 C2.93921854,64.0503142 2.98595119,63.4885991 3.07738463,62.9400176 C3.16729415,62.4111366 2.80714802,61.9095331 2.27378622,61.8211336 C1.74042454,61.7327342 1.23754056,62.0908782 1.14864703,62.6212746 C1.0389269,63.2734097 0.983050847,63.9427195 0.983050847,64.6089986 C0.983050847,66.4790249 2.51252915,68 4.39301018,68 L28.5746154,68 C30.4550965,68 31.9830508,66.4790249 31.9830508,64.6089986 C31.9830508,59.4121234 28.6487781,54.9744729 23.9963398,53.301956 Z M25.6746514,40.98716 C26.2186804,41.3811688 26.5732389,42.0191601 26.5732389,42.7389838 C26.5732389,43.4588076 26.2186804,44.097809 25.6746514,44.4933333 L25.6746514,40.98716 Z M6.96025806,44.195301 C6.20491622,43.3658619 6.20644014,42.1105903 6.96025806,41.2826666 L6.96025806,44.195301 Z M22.434352,54.4920646 C21.7013605,56.7879236 21.4133451,57.690608 20.662067,60.0420324 C20.5579345,60.0794126 17.6203812,58.1538208 17.6071742,58.1452335 L17.6071742,58.1437181 C17.499486,58.3255683 19.2438328,55.3816153 20.7849943,52.780652 L22.434352,54.4920646 Z M15.1323758,53.9258032 C16.0797278,54.1940323 16.7476999,54.1995888 17.9124603,53.7959823 C16.8843421,55.5311366 16.5821037,56.0403172 16.5059092,56.1691278 C16.5059092,56.1691278 16.5033693,56.173674 16.4972739,56.1837768 C16.494226,56.1888281 16.4916863,56.1928692 16.4901623,56.1964052 L16.4901623,56.1959001 C16.4901623,56.1964052 16.4896544,56.1969104 16.4891465,56.1974156 C16.4876226,56.2004464 16.4860986,56.2024669 16.4850828,56.2039824 C16.4855907,56.2039824 16.4855907,56.2034773 16.4860986,56.2029722 C16.4855907,56.2034773 16.4850828,56.2039824 16.4845747,56.2049926 C16.4830508,56.2080235 16.4825429,56.2090337 16.4830508,56.2075184 C16.4825429,56.2070133 16.4820349,56.2060029 16.480511,56.2034773 C16.4810191,56.2039824 16.4810191,56.2044875 16.481527,56.2044875 C16.4794951,56.2019618 16.4784791,56.1994361 16.4769553,56.1969104 C16.4764473,56.1969104 16.4764473,56.1964052 16.4759394,56.1959001 C16.4744154,56.1933745 16.4728916,56.1903436 16.4713677,56.188323 C16.4703517,56.1863025 16.4688279,56.1837768 16.467304,56.1807459 C16.467304,56.1817562 16.4678119,56.1822613 16.4683199,56.1827666 C16.4657801,56.1782202 16.4637482,56.1751895 16.4627322,56.1731689 C16.4632403,56.1741791 16.4637482,56.1751895 16.4642562,56.1761997 C16.3977129,56.0635535 16.118333,55.5912482 15.1323758,53.9258032 L15.1323758,53.9258032 Z M16.4845747,59.7389487 L17.6412077,60.4845344 C17.6412077,60.5133275 17.6412077,61.5892746 17.6412077,61.5720999 L15.3264178,61.5720999 C15.3264178,61.5382555 15.3264178,60.4183613 15.3264178,60.4845344 L16.4845747,59.7389487 Z M25.3475229,29.2936858 C25.4547032,29.6589015 25.3861281,29.3452099 25.4074626,35.779677 C24.6973295,35.779677 23.7474377,35.779677 23.3420827,35.779677 C22.502419,35.779677 21.8187,35.1002644 21.8187,34.2652687 L21.8187,33.6207107 C23.1962972,32.4710132 24.6069121,30.931348 25.3475229,29.2936858 L25.3475229,29.2936858 Z M6.88101575,36.0893274 L6.88101575,29.3750132 C6.88101575,28.6375095 7.45349058,27.9641586 8.3373473,27.5145844 C9.03224145,27.1604816 9.91914575,26.9452923 10.8720854,26.9452923 L23.8845878,26.9452923 C23.8668091,27.2059441 24.0171663,27.828276 23.2166157,29.1588135 C18.7023437,36.6944845 7.44942687,36.5737562 6.88101575,36.0893274 Z M9.32686018,46.7836358 C8.76098884,45.5106843 8.91642563,45.4076358 8.91642563,38.2124288 C9.06373512,38.1902027 14.5106284,38.5155125 19.9422827,35.0027723 C20.2841421,36.5575918 21.6779941,37.724464 23.3420827,37.724464 L23.7189918,37.724464 L23.7189918,44.977257 C23.7189918,48.5561703 18.2746383,52.1669075 16.3174547,52.172464 C14.8164224,52.1674126 10.6358824,49.7265785 9.32686018,46.7836358 Z M12.3050506,60.044558 C12.2974311,60.0203113 10.8893562,55.6074127 10.5332737,54.4920646 L12.1826314,52.780652 C12.1907588,52.7937856 15.4320742,58.2644464 15.3604514,58.1437181 L15.3604514,58.1452335 C12.159773,60.2067078 12.4096911,60.0748664 12.3050506,60.044558 L12.3050506,60.044558 Z M15.0460219,66.0547077 L15.8364132,63.5173921 L17.1896281,63.5173921 L18.0059256,66.0547077 L15.0460219,66.0547077 Z M28.5746154,66.055213 L26.0246383,66.055213 L26.0246383,62.2782848 C26.0246383,61.7413215 25.5867737,61.3058913 25.0468084,61.3058913 C24.5068433,61.3058913 24.0689786,61.7413215 24.0689786,62.2782848 L24.0689786,66.0547077 L20.0596223,66.0547077 L19.0624898,62.952141 C19.3728556,62.6359236 19.5719773,62.2090808 19.5943277,61.7372804 C20.7555323,62.3777974 22.1656391,61.7393011 22.474989,60.7972158 L24.1726032,55.4780969 C27.6277714,57.0834302 30.0273911,60.5724288 30.0273911,64.6095037 C30.0273911,65.4066137 29.3766898,66.055213 28.5746154,66.055213 Z" id="Shape" fill-rule="nonzero"></path>
                <path d="M22.9830508,40.9999999 C22.9830508,41.5522006 22.535366,42 21.982795,42 C21.4307356,42 20.9830508,41.5522006 20.9830508,40.9999999 C20.9830508,40.4477994 21.4307356,40 21.982795,40 C22.535366,40 22.9830508,40.4477994 22.9830508,40.9999999 Z" id="Path"></path>
                <path d="M20.3336352,39.7374351 C21.1007853,39.6225897 22.5743676,39.5581225 23.2609495,39.8736273 C23.4466069,39.9594412 23.6538658,40 23.8582058,40 C24.9832427,40 25.4094372,38.9198551 24.4577973,38.482247 C22.7862972,37.7137644 20.1695793,38.083063 19.8770815,38.1274642 C19.2699002,38.220109 18.8810707,38.6543017 19.0065936,39.0983138 C19.1321167,39.542326 19.7258699,39.8279453 20.3336352,39.7374351 L20.3336352,39.7374351 Z" id="Path"></path>
                <path d="M12.9830508,40.9999999 C12.9830508,41.5522006 12.5352514,42 11.9830509,42 C11.4308503,42 10.9830508,41.5522006 10.9830508,40.9999999 C10.9830508,40.4477994 11.4308503,40 11.9830509,40 C12.5352514,40 12.9830508,40.4477994 12.9830508,40.9999999 Z" id="Path"></path>
                <path d="M13.6312976,39.7370632 C14.2377442,39.829284 14.8325169,39.5440825 14.9591762,39.1000564 C15.0858353,38.6556033 14.6959352,38.220116 14.0883213,38.1274682 C13.7953125,38.0830656 11.1798295,37.7137554 9.5087454,38.4822622 C8.9834308,38.723915 8.82525286,39.2311294 9.15561729,39.6153829 C9.48481444,39.9992093 10.1788133,40.1157662 10.7047116,39.8736866 C11.3911226,39.5585987 12.8637546,39.622641 13.6312976,39.7370632 Z" id="Path"></path>
                <path d="M15.9817864,48 C18.9634081,48 19.9114814,45 17.968301,45 C17.4065387,45 16.9509984,45.3398161 16.9509984,45.7588699 C16.9509984,46.1574245 16.5160685,46.481866 15.9817864,46.481866 C15.4475042,46.481866 15.0131027,46.1574245 15.0131027,45.7588699 C15.0131027,45.3398161 14.5575625,45 13.9952716,45 C12.0589614,45 12.9980507,48 15.9817864,48 Z" id="Path"></path>
                <path d="M16.2068949,19.8289964 L16.8447406,19.8289964 C16.5021467,20.6240321 16.0165084,21.3296399 15.55785,21.8880188 C15.0141795,22.5505486 14.9658192,23.4786354 15.4372041,24.1978755 C15.7747073,24.7159029 16.3000519,25 16.8513583,25 C17.0682157,25 17.2891454,24.9563766 17.5044756,24.8658581 C20.2095928,23.7332868 22.2193414,21.529762 23.4543083,19.8289964 L35.7652899,19.8289964 C37.1763898,19.8289964 38.3787774,18.8534692 38.8124919,17.497328 L42.5117933,17.497328 C44.9175864,20.8099767 47.9978771,22.6666957 49.1152523,22.6666957 C49.6665587,22.6666957 50.1919033,22.3825986 50.5288975,21.8656619 C51.0007913,21.1447859 50.9524311,20.216699 50.4087607,19.5547145 C49.9501022,18.9963356 49.463955,18.2923636 49.1228882,17.497328 L49.7592066,17.497328 C51.536317,17.497328 52.9830508,15.9476084 52.9830508,14.0439942 L52.9830508,12.4201147 C52.9830508,11.8404693 52.5437365,11.3704277 52.0031202,11.3704277 C51.4604679,11.3704277 51.0226807,11.8404693 51.0226807,12.4201147 L51.0226807,14.0439942 C51.0226807,14.7899536 50.4555936,15.3974087 49.7592066,15.3974087 C45.7315649,15.3974087 43.047828,15.3974087 38.9876068,15.3974087 L38.9876068,12.1780051 L47.6252488,12.1780051 C48.1663741,12.1780051 48.6051795,11.7079635 48.6051795,11.1283181 C48.6051795,10.5470369 48.1663741,10.0786311 47.6252488,10.0786311 L38.9876068,10.0786311 L38.9876068,7.41869693 L47.6252488,7.41869693 C48.1663741,7.41869693 48.6051795,6.94865534 48.6051795,6.36900996 C48.6051795,5.78827407 48.1663741,5.31932299 47.6252488,5.31932299 L38.9565545,5.31932299 C38.7447877,3.63546146 37.3947743,2.33221363 35.7652899,2.33221363 L29.4942436,2.33221363 C29.6953203,2.18498487 29.9386484,2.09991933 30.2013208,2.09991933 L49.7592066,2.09991933 C50.4555936,2.09991933 51.0226807,2.70573858 51.0226807,3.45169796 L51.0226807,8.22082142 C51.0226807,8.80155731 51.4604679,9.27050838 52.0031202,9.27050838 C52.5437365,9.27050838 52.9830508,8.80155731 52.9830508,8.22082142 L52.9830508,3.45169796 C52.9830508,1.54808388 51.536317,0 49.7592066,0 L30.2013208,0 C28.7897117,0 27.5873243,0.975527261 27.1536096,2.33221363 L16.2068949,2.33221363 C14.4297846,2.33221363 12.9830508,3.88138816 12.9830508,5.78500225 L12.9830508,16.3772983 C12.9830508,18.2809125 14.4297846,19.8289964 16.2068949,19.8289964 Z M47.0204919,17.497328 C47.2907999,18.3970597 47.7402953,19.3000632 48.3608331,20.1845268 C47.0647795,19.4767379 45.9682755,18.4772176 45.1018642,17.497328 L47.0204919,17.497328 Z M17.6052685,22.5183763 C18.2258063,21.6322769 18.6753017,20.7309092 18.9461189,19.8289964 L20.8657646,19.8289964 C19.9993532,20.808886 18.9028492,21.810042 17.6052685,22.5183763 Z M14.9434208,5.78500225 C14.9434208,5.03904286 15.510508,4.4315877 16.2068949,4.4315877 L35.7652899,4.4315877 C36.3089604,4.4315877 36.7727094,4.80129557 36.9503695,5.31932299 C37.0786513,5.69448385 37.029273,15.8690864 37.0277458,16.3772983 C37.0277458,17.1183501 36.4662583,17.7296223 35.7652899,17.7296223 L16.2068949,17.7296223 C15.510508,17.7296223 14.9434208,17.1232577 14.9434208,16.3772983 L14.9434208,5.78500225 Z" id="Shape" fill-rule="nonzero"></path>
                <path d="M19.0056272,9 L34.9599432,9 C35.5262115,9 35.9830508,8.55336287 35.9830508,8.00025966 C35.9830508,7.44819533 35.5262115,7 34.9599432,7 C33.5979246,7 20.7936749,7 19.0056272,7 C18.4414837,7 17.9830508,7.44819533 17.9830508,8.00025966 C17.9830508,8.55336287 18.4414837,9 19.0056272,9 Z" id="Path"></path>
                <path d="M19.0056272,13 L34.9599432,13 C35.5262115,13 35.9830508,12.5533629 35.9830508,11.9997403 C35.9830508,11.4481953 35.5262115,11 34.9599432,11 C33.0035023,11 20.8085488,11 19.0056272,11 C18.4414837,11 17.9830508,11.4481953 17.9830508,11.9997403 C17.9830508,12.5533629 18.4414837,13 19.0056272,13 Z" id="Path"></path>
                <path d="M49.1952708,45.8081445 C49.1952708,45.3618808 48.6999633,45 48.0891607,45 C47.4783582,45 46.9830508,45.3618808 46.9830508,45.8081445 C46.9830508,47.0167927 48.32877,48 49.9830508,48 C51.6373316,48 52.9830508,47.0167927 52.9830508,45.8081445 C52.9830508,45.3618808 52.4877434,45 51.8769408,45 C51.2655637,45 50.7702564,45.3618808 50.7702564,45.8081445 C50.7702564,46.1255248 50.4168757,46.3837111 49.9830508,46.3837111 C49.5486512,46.3837111 49.1952708,46.1255248 49.1952708,45.8081445 L49.1952708,45.8081445 Z" id="Path"></path>
                <path d="M56.9830508,40.9999999 C56.9830508,41.552094 56.5355413,42 55.9827954,42 C55.4305604,42 54.9830508,41.552094 54.9830508,40.9999999 C54.9830508,40.447906 55.4305604,40 55.9827954,40 C56.5355413,40 56.9830508,40.447906 56.9830508,40.9999999 Z" id="Path"></path>
                <path d="M46.9830508,40.9999999 C46.9830508,41.552094 46.5351448,42 45.9830508,42 C45.4309569,42 44.9830508,41.552094 44.9830508,40.9999999 C44.9830508,40.447906 45.4309569,40 45.9830508,40 C46.5351448,40 46.9830508,40.447906 46.9830508,40.9999999 Z" id="Path"></path>
                <path d="M66.4640841,49.9861691 C64.0779453,48.2739695 63.1665193,46.0640375 62.8204343,44.7005058 C63.7015648,43.047013 63.3678032,40.9841035 61.9454653,39.6905095 C62.1852601,39.3745133 62.327494,38.9788798 62.327494,38.5500641 L62.327494,32.8315011 C62.327494,28.5137359 58.8964245,25 54.6797316,25 L47.286655,25 C45.2912741,25 43.3996159,25.7866725 41.9603331,27.2150371 C40.5693174,28.5969466 39.6388927,30.5980863 39.6388927,33.2138616 L39.6388927,33.2159038 C39.6388927,33.4869764 39.6394062,34.6825554 39.6404332,39.1636789 C38.4014073,39.888071 37.5670032,41.2276095 37.5670032,42.757052 C37.5670032,43.9179171 38.048647,44.9685155 38.8224605,45.7250689 C38.320791,47.0309146 37.3569902,48.6553091 35.5023026,49.9861691 C34.9898502,50.3537254 34.8332389,51.0449354 35.1382457,51.5937174 C35.5259226,52.2905428 36.8476186,54.2824936 39.7210494,55.3708685 C37.9254119,56.8671289 36.9328563,59.0382633 36.9328563,61.3038394 L36.9328563,65.6634652 C36.9328563,66.9514436 37.9875429,68 39.2830515,68 L62.6823082,68 C63.9793572,68 65.0335304,66.9514436 65.0335304,65.6634652 L65.0335304,61.3038394 C65.0335304,59.0336689 64.0378938,56.8635554 62.2453373,55.3708685 C65.118768,54.2824936 66.440464,52.2905428 66.8291679,51.5921859 C67.1321208,51.0444249 66.9760231,50.3547464 66.4640841,49.9861691 L66.4640841,49.9861691 Z M60.2884672,44.621379 L60.2884672,40.8947668 C61.6733212,41.757503 61.6753751,43.7576218 60.2884672,44.621379 Z M47.286655,26.9659156 L54.6797316,26.9659156 C57.8196582,26.9659156 60.3505982,29.6112997 60.3505982,32.8315011 L60.3505982,38.4546016 C60.3295456,38.4530701 60.3095199,38.4520491 60.2884672,38.4505176 C59.5187616,38.3994681 58.8081061,38.0416113 58.3115714,37.4744515 C57.8530344,36.9496628 57.8278739,36.6244777 56.9970642,34.8561236 C56.715164,34.2282149 56.1113122,33.8376864 55.4196554,33.8376864 C54.6879473,33.8376864 54.0512328,34.2782435 53.7970605,34.9597541 C53.475109,35.8219798 52.9585486,36.6030368 52.2612435,37.2804635 C51.8709992,37.6602716 51.864324,38.2830753 52.2468662,38.6710514 C52.6278679,39.058517 53.2537993,39.0651534 53.6440437,38.6863662 C54.4060471,37.9446172 55.0042506,37.1048533 55.4273576,36.1808577 C55.9644572,37.2222671 56.1092583,38.1932282 57.2794779,39.2183018 C55.8396816,38.657268 54.0039927,39.0089989 53.7749809,39.056475 C53.2414758,39.1672524 52.8994985,39.6864256 53.0098966,40.2173402 C53.1197811,40.7482548 53.6430166,41.0892653 54.1765218,40.9810404 C54.8532876,40.8437174 56.1523906,40.7666326 56.7577828,41.1449092 C57.6209417,41.6845024 58.6591971,40.7104782 58.1380155,39.8186437 C58.1955252,39.8502944 58.2525214,39.8839871 58.3115714,39.9130853 L58.3115714,45.022628 C58.3115714,48.8207095 52.5837087,52.3089206 50.8152855,52.3089206 C49.5095075,52.3089206 45.8761271,50.3322847 44.1955091,47.7027258 C44.1955091,46.2682354 44.1955091,42.2098015 44.1955091,40.8345284 C45.9932004,41.4353809 47.9742039,41.4803044 49.868943,40.9024243 C50.3906381,40.7441708 50.6848618,40.1948784 50.5251697,39.6762157 C50.3644506,39.1570425 49.8119468,38.8650394 49.2902517,39.0232929 C47.7785683,39.4832487 46.1570003,39.4480246 44.6622618,38.9160889 C44.196536,38.7501781 43.68357,38.7869337 43.3179727,38.9594809 C42.6761235,39.2356587 42.2263155,39.8686723 42.2186133,40.6078688 C42.2186133,48.5736299 42.2453142,48.0360789 42.1682922,48.1509403 C42.1143769,48.2321089 42.0219506,48.285711 41.9182278,48.285711 C41.7518605,48.285711 41.6173288,48.1509403 41.6173288,47.9870714 C41.6173288,43.2507005 41.6173288,38.4357133 41.6163019,33.1459659 C41.6163019,29.2110718 44.4712475,26.9659156 47.286655,26.9659156 L47.286655,26.9659156 Z M47.8401859,53.9925325 L47.8401859,53.3687079 C48.9688137,53.9363781 50.0363373,54.2743256 50.8152855,54.2743256 C51.6722827,54.2743256 52.8769054,53.8669508 54.1262007,53.1930977 L54.1262007,53.9925325 L51.452,57.995833 C51.377032,58.1086523 51.1711268,58.2071778 50.9826798,58.2224927 C50.7942329,58.2071778 50.5898681,58.1086523 50.5149001,57.995833 C50.5123327,57.9922595 50.4959014,57.9677557 50.4943609,57.9652033 C50.4460939,57.892713 47.8905068,54.0675753 47.8401859,53.9925325 L47.8401859,53.9925325 Z M37.2060272,51.1638807 C38.2910093,50.2894031 39.0899832,49.3332462 39.6799711,48.4000618 C39.9885722,50.0545755 41.9454422,50.7993873 43.2810021,49.7993281 C44.0317091,50.7039249 44.9261902,51.4941709 45.8632902,52.167003 L45.8632902,53.5678008 L44.7125827,53.5678008 C44.4753553,53.5678008 44.2350469,53.5785213 44.0044946,53.6009829 C43.371888,53.6571374 42.7546858,53.7913976 42.1641844,53.9945745 C39.343642,53.5341082 37.8632808,52.0592887 37.2060272,51.1638807 L37.2060272,51.1638807 Z M63.0566346,61.3038394 L63.0566346,65.6634652 C63.0566346,65.8676632 62.8892404,66.0340844 62.6823082,66.0340844 L39.2830515,66.0340844 C39.0776597,66.0340844 38.9102654,65.8676632 38.9102654,65.6634652 L38.9102654,61.3038394 C38.9102654,58.0586239 41.5274699,55.5337164 44.7125827,55.5337164 L46.4969237,55.5337164 C46.4974372,55.5337164 46.4974372,55.5337164 46.4974372,55.5342269 C46.4979506,55.5347375 46.4979506,55.5352479 46.4989776,55.5362688 L46.4989776,55.5367793 C46.5000047,55.5378004 46.5010316,55.5393319 46.5020584,55.5413739 C46.5030855,55.5423948 46.5041125,55.5439263 46.5046259,55.5449472 L46.5046259,55.5454578 C46.5056528,55.5464787 46.5061663,55.5474998 46.5066799,55.5485207 C46.5066799,55.5480103 46.5066799,55.5474998 46.5061663,55.5474998 C46.5082203,55.5500522 46.5102741,55.5531151 46.5128416,55.5566886 C46.5123282,55.5566886 46.5118146,55.5561782 46.5118146,55.5556677 C46.5133551,55.5577097 46.5148955,55.5602621 46.516436,55.5628146 C46.515409,55.5612831 46.5143819,55.5597517 46.5138685,55.5582202 C46.5169494,55.5628146 46.5205438,55.5684301 46.5246517,55.5750665 C46.527219,55.5791504 46.5297864,55.5827239 46.5318403,55.5852763 C46.5318403,55.5862974 46.5323538,55.5868079 46.5328673,55.5873183 C46.5328673,55.5873183 46.5323538,55.5868079 46.5323538,55.5868079 C46.5354347,55.5908918 46.5359482,55.5919129 46.5354347,55.5908918 C46.6627776,55.7818168 47.1649604,56.5332652 48.8671447,59.0826764 C49.844296,60.547286 52.1174693,60.553412 53.0997555,59.0842079 C54.8019398,56.5342863 55.3041226,55.7823274 55.4314655,55.5908918 C55.4314655,55.5908918 55.4319789,55.5903814 55.4330059,55.5893603 C55.4324924,55.5893603 55.4324924,55.5898708 55.4324924,55.5898708 C55.4330059,55.5893603 55.4335194,55.5888498 55.4335194,55.5878289 C55.4345464,55.5868079 55.4350599,55.5857868 55.4360867,55.5842554 C55.4355733,55.5847659 55.4355733,55.5852763 55.4350599,55.5857868 C55.4371138,55.5827239 55.4386542,55.5806819 55.4401946,55.5781295 C55.4412216,55.5760875 55.4432755,55.5740455 55.4448159,55.5714931 C55.4463563,55.569451 55.4473834,55.5674091 55.4489237,55.565367 C55.4478968,55.5668985 55.4468699,55.5679196 55.4458429,55.569451 C55.4499507,55.5633252 55.4535451,55.5582202 55.4561125,55.5541362 C55.4550856,55.5561782 55.4540586,55.5571991 55.4530315,55.5592412 C55.4540586,55.5571991 55.455599,55.5551573 55.4571394,55.5526047 C55.4576529,55.5526047 55.4576529,55.5520942 55.4581664,55.5515838 C55.4633013,55.5434158 55.4679225,55.5362688 55.4694629,55.5342269 C57.387822,55.5255485 57.7657428,55.5408633 57.7842282,55.5587306 C60.7511122,55.8236775 63.0566346,58.2638427 63.0566346,61.3038394 Z M59.8022022,53.9945745 C58.1123414,53.4131208 56.8907739,53.6060879 56.10361,53.5678008 L56.10361,51.918392 C57.8068212,50.6436865 59.3914187,48.8651225 60.0117018,46.8256956 C60.4604827,46.7287017 60.881536,46.5587069 61.2640781,46.3310262 C61.8104202,47.7910414 62.8358386,49.6104449 64.7603594,51.1638807 C64.1031058,52.0592887 62.6227446,53.5346187 59.8022022,53.9945745 L59.8022022,53.9945745 Z" id="Shape" fill-rule="nonzero"></path>
                <path d="M45.9838309,56.0010377 C45.9833109,56.0005188 45.9827908,56 45.9822708,55.9989623 C45.9827908,56 45.9833109,56.0005188 45.9838309,56.0010377 Z" id="Path"></path>
            </g>
        </g>
    </g>
</svg>