<?xml version="1.0" encoding="UTF-8"?>
<svg width="64px" height="98px" viewBox="0 0 64 98" version="1.1" xmlns="http://www.w3.org/2000/svg" xmlns:xlink="http://www.w3.org/1999/xlink">
    <!-- Generator: Sketch 61.2 (89653) - https://sketch.com -->
    <title>recycling-dark</title>
    <desc>Created with Sketch.</desc>
    <g id="Welcome" stroke="none" stroke-width="1" fill="none" fill-rule="evenodd">
        <g id="Home-Page" transform="translate(-301.000000, -2531.000000)" fill="#494562" fill-rule="nonzero">
            <g id="recycling-dark" transform="translate(301.000000, 2531.000000)">
                <path d="M30.0693333,2.254 C24.9848889,12.3031325 17.8038519,21.0806265 11.821037,30.5866265 C5.41511111,40.7644578 1.98992593,51.918747 0.580740741,63.8334217 C-1.84888889,84.3626506 15.2485926,101.137181 36.16,97.4438795 C54.7223704,94.165012 64.4136296,76.2817831 63.3682963,58.5662169 C62.7294815,47.7543373 56.3223704,39.374747 51.3125926,30.1981687 C45.8737778,20.2352289 40.8379259,9.98183133 33.6521481,1.1086988 C32.2121481,-0.66946988 29.7125926,1.85255422 31.1383704,3.61301205 C37.0204444,10.8768193 41.4708148,19.2611325 45.8607407,27.4683373 C50.2317037,35.6413012 56.0379259,43.5072771 58.7899259,52.4040241 C64.0071111,69.2671084 54.3205926,89.6971566 36.7312593,93.7600241 C27.616,95.8664337 17.4115556,92.771759 10.7674074,86.3828675 C1.42103704,77.3975663 3.79377778,65.0566506 6.06577778,53.7299759 C9.91762963,34.5207952 24.5463704,21.0263133 33.1401481,4.04161446 C34.1688889,2.00840964 31.1016296,0.214891566 30.0693333,2.254 L30.0693333,2.254 Z" id="Path"></path>
                <path d="M35.1597037,54.9036145 C38.6548148,55.2531084 42.2708148,54.5848193 45.5087407,53.2659518 C46.7034074,52.779494 47.3256296,51.3342892 46.2933333,50.3058795 C44.0023704,48.0223614 41.7481481,45.5971566 39.1822222,43.6147229 C37.394963,42.2332771 34.8586667,44.7210602 36.6684444,46.1190361 C39.2343704,48.1026506 41.4874074,50.5266747 43.7795556,52.8101928 C44.0414815,51.8242892 44.3022222,50.8372048 44.5641481,49.8501205 C41.5762963,51.0662651 38.386963,51.6837831 35.1597037,51.3602651 C32.8782222,51.1323855 32.9007407,54.6769157 35.1597037,54.9036145 L35.1597037,54.9036145 Z" id="Path"></path>
                <path d="M28.0485926,71.0405542 C25.2278519,71.2153012 22.6014815,72.5306265 19.7522963,72.6144578 C18.4711111,72.652241 17.4494815,74.1139759 18.2174815,75.2793494 C19.9988148,77.9855663 21.4482963,80.9208434 23.3528889,83.5444096 C24.6838519,85.3757108 27.7700741,83.6105301 26.4237037,81.7556145 C24.5179259,79.1332289 23.0684444,76.1967711 21.2882963,73.4905542 C20.7762963,74.3784578 20.2642963,75.2675422 19.7534815,76.1554458 C22.6121481,76.0704337 25.2586667,74.7551084 28.0497778,74.5815422 C30.3253333,74.4410361 30.3395556,70.8976867 28.0485926,71.0405542 L28.0485926,71.0405542 Z" id="Path"></path>
                <path d="M16.7893333,66.9080241 C17.2373333,60.8650843 21.7659259,54.206988 27.4133333,51.8455422 C31.2746667,50.2303133 36.2808889,51.505494 40.2962963,51.7558072 C42.5872593,51.8986747 42.573037,48.3553253 40.2962963,48.2136386 C34.0053333,47.8228193 28.2773333,46.7129398 22.7413333,50.3979759 C17.4968889,53.8905542 13.6948148,60.7033253 13.2337778,66.9080241 C13.0642963,69.188 16.621037,69.1702892 16.7893333,66.9080241 L16.7893333,66.9080241 Z" id="Path"></path>
                <path d="M20.4705185,75.6371084 C32.9801481,85.5787952 53.5300741,75.7233012 49.12,58.9582169 C48.5392593,56.7502651 45.1093333,57.687759 45.6912593,59.9004337 C49.1425185,73.0218072 32.8343704,80.960988 22.9831111,73.1327952 C21.2112593,71.7241928 18.6785185,74.2131566 20.4705185,75.6371084 L20.4705185,75.6371084 Z" id="Path"></path>
            </g>
        </g>
    </g>
</svg>
