<?xml version="1.0" encoding="UTF-8"?>
<svg width="60px" height="75px" viewBox="0 0 60 75" version="1.1" xmlns="http://www.w3.org/2000/svg" xmlns:xlink="http://www.w3.org/1999/xlink">
    <!-- Generator: Sketch 53 (72520) - https://sketchapp.com -->
    <title>star</title>
    <desc>Created with Sketch.</desc>
    <g id="2.0" stroke="none" stroke-width="1" fill="none" fill-rule="evenodd">
        <g id="home---Desktop" transform="translate(-540.000000, -1547.000000)" fill="#000000">
            <g id="star" transform="translate(540.800000, 1548.000000)">
                <path d="M53.1913335,41.9994441 C53.1969248,42.0000001 53.2025161,42.0000001 53.2086665,42.0005559 C53.2030752,42.0000001 53.197484,42.0000001 53.1913335,41.9994441 Z" id="Path"></path>
                <path d="M53.1902152,41.9994441 C53.1974839,41.9994441 53.2036343,42.0000001 53.2097848,42.0005559 C53.202516,42.0000001 53.1958066,41.9994441 53.1902152,41.9994441 Z" id="Path"></path>
                <path d="M53.1929328,41.9997221 C53.1974058,41.9997221 53.2013198,42.0002779 53.2063519,42.0002779 C53.2091475,42.0002779 53.2035563,42.0002779 53.1929328,41.9997221 Z" id="Path"></path>
                <path d="M52.0420541,42.3123876 C52.0469522,42.3242168 52.0533809,42.3494408 52.0671476,42.4034573 L52.0687901,42.3037644 C52.0703201,42.3039048 52.0703201,42.3039048 52.0731511,42.3039865 C52.0754101,42.3040136 52.0754101,42.3040136 52.0782628,42.3040143 L52.0782628,42.3042035 C52.0814392,42.3043642 52.0818057,42.3044164 52.0833527,42.3046366 C52.0835794,42.304663 52.0836762,42.3046742 52.0837285,42.3046802 C52.0834043,42.3046391 52.0834043,42.3046391 52.0833697,42.3046254 L52.0833881,42.3046262 C52.1079925,42.3058585 52.1146365,42.3061912 52.1246732,42.3455826 L52.1255548,42.3068507 C52.1448274,42.3076881 52.1448274,42.3076881 52.1598702,42.4088205 C52.15152,42.4081264 52.15152,42.4081264 52.1441219,42.3079755 C52.1721313,42.3093687 52.1721313,42.3093687 52.1777449,42.3095836 C52.1785785,42.3095836 52.1785785,42.3095836 52.1825146,42.3096485 C55.612048,42.4845782 57.329394,38.273972 54.797417,35.9839997 L51.9746913,33.430406 C49.3947269,31.0961966 49.393303,27.0328032 51.9746931,24.6974289 L54.7974212,22.143833 C57.262785,19.9140367 55.6979429,15.8121264 52.3928251,15.8121264 C52.2368982,15.8121264 51.841876,15.8320394 50.2778867,15.9153689 C50.2529027,15.9166999 50.2529027,15.9166999 50.2279148,15.9180307 C48.8879818,15.9893851 48.2835985,16.018753 48.0800988,16.018753 C44.8461382,16.018753 42.2140316,13.3819224 42.2140316,10.1419961 C42.2140316,9.96632221 42.2435881,9.35748275 42.3155347,7.98612154 C42.3166424,7.96500914 42.3166424,7.96500914 42.3177503,7.94389912 C42.4015647,6.34691329 42.4213315,5.95240294 42.4213315,5.81954733 C42.4213315,2.50764206 38.3287199,0.939322853 36.1038564,3.40969961 L33.5551337,6.23841162 C31.2275717,8.8231594 27.1686976,8.82333789 24.8409261,6.23841826 L22.2927474,3.40969314 C20.6086611,1.53994718 17.6784777,1.92491744 16.4596442,3.99198672 C16.1438435,4.52759928 15.455681,4.70486964 14.9210417,4.38830133 C14.3880442,4.07167192 14.2116117,3.38156408 14.5272678,2.84677928 C16.5201987,-0.529533812 21.2644419,-1.08846771 23.9587493,1.90249869 L26.5069262,4.73010797 C27.9517663,6.33342571 30.4497908,6.32750518 31.8896838,4.73010755 L34.4378284,1.9025342 C38.1381369,-2.21144687 44.9426889,0.651837414 44.6576237,6.14620738 C44.6135169,7.0208929 44.5767998,7.74580722 44.5410425,8.44905595 C44.5037018,9.18259399 44.4902517,9.44678494 44.4823495,9.60316917 C44.4699204,9.84913764 44.464391,9.96282245 44.4617121,10.0279287 C44.4594409,10.0831288 44.4591383,10.1012399 44.4592795,10.1419961 C44.4592795,12.2134595 46.1979721,13.8734591 48.270386,13.7645561 L52.0684054,13.5696291 C57.5432872,13.2809839 60.4021986,20.0999952 56.3017089,23.8130843 L53.4790264,26.366639 C51.880739,27.8157817 51.8826473,30.3132613 53.4789851,31.7611602 L56.3017089,34.3147522 C57.5574721,35.4502048 58.25,36.9868447 58.25,38.6380784 C58.25,41.8999149 55.58202,44.7364536 52.0684898,44.556541 L48.4646684,44.3200294 L48.4646684,69.046152 C48.4646684,72.1608228 45.0471424,74.0861998 42.3940974,72.4577564 L30.1073463,64.9368179 C29.5597872,64.6029302 28.8362667,64.6029302 28.2887813,64.9367729 L16.0025589,72.4577278 C13.3484642,74.0863438 9.93138532,72.160495 9.93138532,69.046152 L9.9839334,44.3699645 L6.32764454,44.5565368 C0.845325874,44.8451591 -2.00199113,38.0189743 2.0943449,34.3147522 L4.91703378,31.7611919 C6.51586746,30.3120502 6.51395878,27.8140282 4.91706878,26.3666764 L2.09432776,23.8130688 C-1.89684776,20.1990746 0.69929357,13.5628763 6.00322866,13.5628763 C6.06063299,13.5628874 6.06063299,13.5628874 6.1109331,13.5632569 C6.23252736,13.5645556 6.33547451,13.5692431 6.89858441,13.5986983 C7.34930834,13.6223325 7.65728105,13.6384259 8.05432869,13.6589581 C8.66358587,13.6904642 9.33731814,13.7248502 10.1253273,13.7645398 C12.2796783,13.8603814 14.0275513,12.12551 13.9312819,9.95073322 L13.8140144,7.65776408 C13.7826315,7.03750747 14.2596446,6.50899117 14.8783597,6.47749391 C15.496341,6.44483807 16.0249541,6.92347868 16.0563542,7.54407772 L16.173607,9.8350985 C16.3674215,13.2834711 13.5026949,16.1909858 10.0104999,16.0114469 L6.2146739,15.8165432 C2.74563357,15.6798943 1.07818017,19.8642543 3.59863689,22.1438368 L6.4213626,24.6974306 C9.00132696,27.0316399 9.00275088,31.0950334 6.42136078,33.4304077 L3.59863269,35.9840035 C1.13328653,38.2137838 2.6980871,42.3151531 6.00322866,42.3151531 C6.05491726,42.3154625 6.073729,42.3153154 6.12140718,42.3135094 C6.18027948,42.3112795 6.28186017,42.3063485 6.5185817,42.2942631 C6.63383641,42.288379 7.37726079,42.2501271 7.6519893,42.2360368 C8.33642516,42.2009336 9.0794266,42.1630573 9.97924157,42.1174837 C13.4424254,41.9688628 16.1820223,44.6595791 16.1820223,47.9858404 C16.1820223,48.1189358 16.1805853,48.1578198 16.157991,48.6040712 C16.1500068,48.761763 16.136184,49.0314246 16.0982537,49.7715922 C16.0620616,50.4792646 16.0248448,51.2118101 15.9801947,52.0973423 C15.7805846,55.5094654 20.0004455,57.2629843 22.2927496,54.717584 L24.8409219,51.888866 C25.9516036,50.655586 27.5396998,49.948082 29.1980269,49.948082 C31.0066166,49.948082 32.3585868,50.6479578 33.6037069,51.9342086 C33.8976079,52.2378182 34.9320445,53.4710612 35.1568147,53.6660455 C35.5732583,54.1276716 35.5371242,54.8387367 35.0759773,55.2554084 C34.6163495,55.6711186 33.9055382,55.6348438 33.4908241,55.1743665 L31.8896897,53.3960646 C30.4442971,51.79274 27.9462684,51.7986605 26.5069324,53.3960508 L23.9587617,56.2247672 C20.2588037,60.3335094 13.4500885,57.4717602 13.7384307,51.9816163 L13.9312661,48.1768769 C13.9941526,46.7639548 13.2799422,45.5026576 12.1766332,44.7873062 L12.1766332,69.0455951 C12.1766332,70.0491162 12.9995432,70.7984255 13.9284192,70.7984255 C14.4022201,70.7984255 14.4985137,70.7564264 15.9247927,69.8794251 C16.219691,69.6980957 18.6113107,68.2136173 19.6496315,67.5730423 C21.8373707,66.2233525 24.232099,64.7608943 27.1183827,63.0169032 C27.7444692,62.633795 28.46436,62.4308864 29.1980269,62.4308864 C29.9322529,62.4308864 30.6521509,62.6337971 31.2774321,63.0167579 C34.1664457,64.762439 36.5627793,66.2257554 38.7531398,67.5767994 C39.785296,68.2134473 42.1773257,69.6977391 42.4783403,69.8827625 C43.901739,70.7576773 43.9952594,70.7984255 44.4676347,70.7984255 C45.3968634,70.7984255 46.2194207,70.0492853 46.2194207,69.0455951 L46.2942087,44.8301722 C45.170172,45.4718283 44.4592795,46.6685688 44.4592795,47.9852834 C44.4591216,48.0260769 44.4594145,48.0442209 44.4616601,48.0988299 C44.4643366,48.1639186 44.469928,48.2783062 44.4823486,48.5224222 C44.4754759,48.3873462 44.5885964,50.5934926 44.6593159,51.9832976 C44.8178679,56.0175814 41.1368578,58.889507 37.4436223,58.0266738 C36.8401133,57.8855363 36.464785,57.2808871 36.6054557,56.6756493 C36.7462807,56.0709146 37.3497161,55.6947458 37.9538168,55.8357497 C40.1749389,56.3560462 42.4213315,54.7076194 42.4213315,52.3077322 C42.4215211,52.2518581 42.4212677,52.2308798 42.4191287,52.1758237 C42.4166165,52.1111601 42.4114306,52.0042143 42.3988875,51.7574329 C42.3776654,51.3420517 42.3566401,50.9311115 42.3402721,50.609863 C42.3056856,49.9310461 42.2680347,49.1869527 42.223005,48.2905525 C42.0264082,44.8447846 44.896318,41.9334663 48.3855326,42.1158315 C51.2446645,42.2614729 51.7909748,42.2892924 52.0271326,42.3012294 C52.0271326,42.3012294 52.0271326,42.3012294 52.0326768,42.3014789 C52.0347939,42.3016572 52.0347939,42.3016572 52.0385227,42.3018524 C52.040647,42.301959 52.0417745,42.3020155 52.0420541,42.3123876 Z" id="Path" stroke="#000000" stroke-width="0.1"></path>
                <path d="M53.2136987,42.0005558 C53.2041935,42.0005558 53.1952474,42 53.1863013,41.9994442 L53.1896562,41.9994442 C53.1969248,42 53.2047526,42.0005558 53.2136987,42.0005558 Z" id="Path"></path>
                <path d="M39.8660801,17.0606571 C39.5051121,17.5554761 38.8113862,17.664032 38.3159706,17.3031574 C35.5107339,15.2560334 32.1851954,14.1738367 28.6999999,14.1738367 C19.6945767,14.1738367 12.3680021,21.4989623 12.3680021,30.5028034 C12.3680021,39.5067494 19.6946817,46.8323187 28.6999999,46.8323187 C37.7048541,46.8323187 45.031449,39.5066647 45.031449,30.5028034 C45.031449,26.6657539 43.6740474,22.9372647 41.2094798,20.0041952 C40.8153394,19.5354345 40.8759419,18.8360343 41.3445566,18.4416527 C41.8134826,18.0474927 42.5129774,18.1082628 42.9073191,18.577263 C45.7078275,21.9088624 47.25,26.1440387 47.25,30.5028034 C47.25,40.7297516 38.9284907,49.05 28.6999999,49.05 C18.4715093,49.05 10.15,40.7297516 10.15,30.5028034 C10.15,15.3469583 27.4488944,6.62798289 39.6240828,15.5113231 C40.1188584,15.8721501 40.2271021,16.5657641 39.8660801,17.0606571 Z" id="Path" stroke="#000000" stroke-width="0.1"></path>
                <path d="M23.4238693,37.3684502 L23.4244182,37.3679013 L25.3912974,37.3679013 L25.3912974,25.8563109 C25.1555819,25.9334573 24.9091857,25.9730281 24.6599935,25.9730281 C23.2487208,25.9730281 22.1067262,24.658534 22.1067262,23.0490933 C22.1067262,22.0167012 22.612455,21.0462786 23.4288589,20.5060784 L27.3256089,17.4961144 C27.786833,17.1060697 28.3483422,16.9 28.9498247,16.9 C30.585876,16.9 32.039592,17.9995272 32.039592,19.4847333 L32.039592,37.3684502 L33.9755817,37.3684502 C35.8091338,37.3684502 37.3,38.8784383 37.3,40.7342251 C37.3,42.5900119 35.8091338,44.1 33.9755817,44.1 L23.4244182,44.1 C21.5908661,44.1 20.1,42.5900119 20.1,40.7342251 C20.1,38.8786234 21.5905685,37.3687515 23.4238693,37.3684502 Z M26.9758072,22.3520183 C27.4036908,22.5311635 27.682563,22.9539217 27.682563,23.4223247 L27.682563,38.5277687 C27.682563,39.1672603 27.1698607,39.6865385 26.5372011,39.6865385 L23.4244182,39.6865385 C22.8555668,39.6865385 22.3918075,40.1564012 22.3918075,40.7342251 C22.3918075,41.312049 22.8555668,41.7819117 23.4244182,41.7819117 L33.9755817,41.7819117 C34.5447804,41.7819117 35.0081924,41.3122458 35.0081924,40.7342251 C35.0081924,40.1562044 34.5447804,39.6865385 33.9755817,39.6865385 L30.8936882,39.6865385 C30.2610286,39.6865385 29.7483264,39.1672602 29.7483264,38.5277687 L29.751355,19.5091576 C29.7279485,19.416227 29.321316,19.2186372 28.9498247,19.2186372 C28.8799945,19.2186372 28.0816328,19.8095687 26.8466444,20.7739611 C26.8152115,20.7985101 26.8152115,20.7985101 26.7837855,20.8230664 C26.5574915,20.9999149 25.6579198,21.7058279 25.4615652,21.8590394 C25.0287136,22.1967847 24.7905879,22.3776388 24.697764,22.4365228 C24.5244967,22.5462039 24.3985336,22.8002273 24.3985336,23.0490933 C24.3985336,23.3562083 24.5681845,23.6549399 24.6599935,23.6549399 C24.6797794,23.6549399 24.6914362,23.6508738 24.6880049,23.6550422 L25.7263218,22.6034077 C26.0541156,22.2714097 26.5473754,22.1720942 26.9758072,22.3520183 Z" id="Shape" stroke="#000000" stroke-width="0.2" fill-rule="nonzero"></path>
            </g>
        </g>
    </g>
</svg>